<?xml version="1.0" encoding="utf-8" standalone="no"?>
<!DOCTYPE svg PUBLIC "-//W3C//DTD SVG 1.1//EN"
  "http://www.w3.org/Graphics/SVG/1.1/DTD/svg11.dtd">
<svg xmlns:xlink="http://www.w3.org/1999/xlink" width="856.8pt" height="265.274688pt" viewBox="0 0 856.8 265.274688" xmlns="http://www.w3.org/2000/svg" version="1.1">
 <metadata>
  <rdf:RDF xmlns:dc="http://purl.org/dc/elements/1.1/" xmlns:cc="http://creativecommons.org/ns#" xmlns:rdf="http://www.w3.org/1999/02/22-rdf-syntax-ns#">
   <cc:Work>
    <dc:type rdf:resource="http://purl.org/dc/dcmitype/StillImage"/>
    <dc:date>2026-05-26T04:44:38.113608</dc:date>
    <dc:format>image/svg+xml</dc:format>
    <dc:creator>
     <cc:Agent>
      <dc:title>Matplotlib v3.10.8, https://matplotlib.org/</dc:title>
     </cc:Agent>
    </dc:creator>
   </cc:Work>
  </rdf:RDF>
 </metadata>
 <defs>
  <style type="text/css">*{stroke-linejoin: round; stroke-linecap: butt}</style>
 </defs>
 <g id="figure_1">
  <g id="patch_1">
   <path d="M 0 265.274688 
L 856.8 265.274688 
L 856.8 0 
L 0 0 
z
" style="fill: #ffffff"/>
  </g>
  <g id="axes_1">
   <g id="patch_2">
    <path d="M 19.935347 96.841537 
L 29.001187 96.841537 
L 29.001187 89.599337 
L 19.935347 89.599337 
z
" clip-path="url(#pc2c79d824a)" style="fill: #eeeeee; stroke: #595959; stroke-linejoin: miter"/>
   </g>
   <g id="patch_3">
    <path d="M 20.054066 96.841537 
L 21.111747 96.841537 
L 21.111747 84.167687 
L 20.054066 84.167687 
z
" clip-path="url(#pc2c79d824a)" style="fill: #d8d8d8; stroke: #595959; stroke-width: 0.8; stroke-linejoin: miter"/>
   </g>
   <g id="patch_4">
    <path d="M 23.939426 96.841537 
L 24.997107 96.841537 
L 24.997107 84.167687 
L 23.939426 84.167687 
z
" clip-path="url(#pc2c79d824a)" style="fill: #d8d8d8; stroke: #595959; stroke-width: 0.8; stroke-linejoin: miter"/>
   </g>
   <g id="patch_5">
    <path d="M 27.824786 96.841537 
L 28.882467 96.841537 
L 28.882467 84.167687 
L 27.824786 84.167687 
z
" clip-path="url(#pc2c79d824a)" style="fill: #d8d8d8; stroke: #595959; stroke-width: 0.8; stroke-linejoin: miter"/>
   </g>
   <g id="patch_6">
    <path d="M 45.298113 100.773017 
L 55.44322 100.773017 
Q 56.09078 100.773017 56.09078 99.221117 
L 56.09078 87.219757 
Q 56.09078 85.667857 55.44322 85.667857 
L 45.298113 85.667857 
Q 44.650553 85.667857 44.650553 87.219757 
L 44.650553 99.221117 
Q 44.650553 100.773017 45.298113 100.773017 
z
" clip-path="url(#pc2c79d824a)" style="fill: #f7f7f7; stroke: #4c4c4c; stroke-linejoin: miter"/>
   </g>
   <g id="patch_7">
    <path d="M 81.237693 102.531837 
L 84.25964 102.531837 
L 84.25964 83.909037 
L 81.237693 83.909037 
z
" clip-path="url(#pc2c79d824a)" style="fill: #ffffff; stroke: #4c4c4c; stroke-linejoin: miter"/>
   </g>
   <g id="patch_8">
    <path d="M 115.774227 102.531837 
L 118.796173 102.531837 
L 118.796173 83.909037 
L 115.774227 83.909037 
z
" clip-path="url(#pc2c79d824a)" style="fill: #ffffff; stroke: #4c4c4c; stroke-linejoin: miter"/>
   </g>
   <g id="patch_9">
    <path d="M 152.469293 102.531837 
L 155.49124 102.531837 
L 155.49124 83.909037 
L 152.469293 83.909037 
z
" clip-path="url(#pc2c79d824a)" style="fill: #ffffff; stroke: #4c4c4c; stroke-linejoin: miter"/>
   </g>
   <g id="patch_10">
    <path d="M 90.821581 162.874883 
L 96.261085 162.874883 
Q 96.692792 162.874883 96.692792 161.840283 
L 96.692792 153.925592 
Q 96.692792 152.890992 96.261085 152.890992 
L 90.821581 152.890992 
Q 90.389875 152.890992 90.389875 153.925592 
L 90.389875 161.840283 
Q 90.389875 162.874883 90.821581 162.874883 
z
" clip-path="url(#pc2c79d824a)" style="fill: #f7f7f7; stroke: #4c4c4c; stroke-linejoin: miter"/>
   </g>
   <g id="patch_11">
    <path d="M 129.675181 162.874883 
L 135.114685 162.874883 
Q 135.546392 162.874883 135.546392 161.840283 
L 135.546392 153.925592 
Q 135.546392 152.890992 135.114685 152.890992 
L 129.675181 152.890992 
Q 129.243475 152.890992 129.243475 153.925592 
L 129.243475 161.840283 
Q 129.243475 162.874883 129.675181 162.874883 
z
" clip-path="url(#pc2c79d824a)" style="fill: #f7f7f7; stroke: #4c4c4c; stroke-linejoin: miter"/>
   </g>
   <g id="patch_12">
    <path d="M 168.528781 162.874883 
L 173.968285 162.874883 
Q 174.399992 162.874883 174.399992 161.840283 
L 174.399992 153.925592 
Q 174.399992 152.890992 173.968285 152.890992 
L 168.528781 152.890992 
Q 168.097075 152.890992 168.097075 153.925592 
L 168.097075 161.840283 
Q 168.097075 162.874883 168.528781 162.874883 
z
" clip-path="url(#pc2c79d824a)" style="fill: #f7f7f7; stroke: #4c4c4c; stroke-linejoin: miter"/>
   </g>
   <g id="patch_13">
    <path d="M 117.2852 75.114937 
L 121.602267 95.806938 
L 118.58032 94.255037 
L 122.897387 111.325937 
L 115.126667 92.185837 
z
" clip-path="url(#pc2c79d824a)" style="fill: #ffd92f; stroke: #333333; stroke-linejoin: miter"/>
   </g>
   <g id="line2d_1">
    <path d="M 30.943867 93.220437 
L 42.8158 93.220437 
" clip-path="url(#pc2c79d824a)" style="fill: none; stroke: #1f77b4; stroke-width: 2; stroke-linecap: square"/>
   </g>
   <g id="line2d_2">
    <path d="M 57.925533 93.220437 
L 184.199733 93.220437 
" clip-path="url(#pc2c79d824a)" style="fill: none; stroke: #d94801; stroke-width: 2.5; stroke-linecap: square"/>
   </g>
   <g id="line2d_3">
    <path d="M 93.541333 93.220437 
L 93.541333 147.536938 
" clip-path="url(#pc2c79d824a)" style="fill: none; stroke: #d94801; stroke-width: 1.5; stroke-linecap: square"/>
   </g>
   <g id="line2d_4">
    <path d="M 132.394933 93.220437 
L 132.394933 147.536938 
" clip-path="url(#pc2c79d824a)" style="fill: none; stroke: #d94801; stroke-width: 1.5; stroke-linecap: square"/>
   </g>
   <g id="line2d_5">
    <path d="M 171.248533 93.220437 
L 171.248533 147.536938 
" clip-path="url(#pc2c79d824a)" style="fill: none; stroke: #d94801; stroke-width: 1.5; stroke-linecap: square"/>
   </g>
   <g id="text_1">
    <!-- AC grid -->
    <g transform="translate(11.723892 106.505764) scale(0.07 -0.07)">
     <defs>
      <path id="DejaVuSans-41" d="M 2188 4044 
L 1331 1722 
L 3047 1722 
L 2188 4044 
z
M 1831 4666 
L 2547 4666 
L 4325 0 
L 3669 0 
L 3244 1197 
L 1141 1197 
L 716 0 
L 50 0 
L 1831 4666 
z
" transform="scale(0.015625)"/>
      <path id="DejaVuSans-43" d="M 4122 4306 
L 4122 3641 
Q 3803 3938 3442 4084 
Q 3081 4231 2675 4231 
Q 1875 4231 1450 3742 
Q 1025 3253 1025 2328 
Q 1025 1406 1450 917 
Q 1875 428 2675 428 
Q 3081 428 3442 575 
Q 3803 722 4122 1019 
L 4122 359 
Q 3791 134 3420 21 
Q 3050 -91 2638 -91 
Q 1578 -91 968 557 
Q 359 1206 359 2328 
Q 359 3453 968 4101 
Q 1578 4750 2638 4750 
Q 3056 4750 3426 4639 
Q 3797 4528 4122 4306 
z
" transform="scale(0.015625)"/>
      <path id="DejaVuSans-20" transform="scale(0.015625)"/>
      <path id="DejaVuSans-67" d="M 2906 1791 
Q 2906 2416 2648 2759 
Q 2391 3103 1925 3103 
Q 1463 3103 1205 2759 
Q 947 2416 947 1791 
Q 947 1169 1205 825 
Q 1463 481 1925 481 
Q 2391 481 2648 825 
Q 2906 1169 2906 1791 
z
M 3481 434 
Q 3481 -459 3084 -895 
Q 2688 -1331 1869 -1331 
Q 1566 -1331 1297 -1286 
Q 1028 -1241 775 -1147 
L 775 -588 
Q 1028 -725 1275 -790 
Q 1522 -856 1778 -856 
Q 2344 -856 2625 -561 
Q 2906 -266 2906 331 
L 2906 616 
Q 2728 306 2450 153 
Q 2172 0 1784 0 
Q 1141 0 747 490 
Q 353 981 353 1791 
Q 353 2603 747 3093 
Q 1141 3584 1784 3584 
Q 2172 3584 2450 3431 
Q 2728 3278 2906 2969 
L 2906 3500 
L 3481 3500 
L 3481 434 
z
" transform="scale(0.015625)"/>
      <path id="DejaVuSans-72" d="M 2631 2963 
Q 2534 3019 2420 3045 
Q 2306 3072 2169 3072 
Q 1681 3072 1420 2755 
Q 1159 2438 1159 1844 
L 1159 0 
L 581 0 
L 581 3500 
L 1159 3500 
L 1159 2956 
Q 1341 3275 1631 3429 
Q 1922 3584 2338 3584 
Q 2397 3584 2469 3576 
Q 2541 3569 2628 3553 
L 2631 2963 
z
" transform="scale(0.015625)"/>
      <path id="DejaVuSans-69" d="M 603 3500 
L 1178 3500 
L 1178 0 
L 603 0 
L 603 3500 
z
M 603 4863 
L 1178 4863 
L 1178 4134 
L 603 4134 
L 603 4863 
z
" transform="scale(0.015625)"/>
      <path id="DejaVuSans-64" d="M 2906 2969 
L 2906 4863 
L 3481 4863 
L 3481 0 
L 2906 0 
L 2906 525 
Q 2725 213 2448 61 
Q 2172 -91 1784 -91 
Q 1150 -91 751 415 
Q 353 922 353 1747 
Q 353 2572 751 3078 
Q 1150 3584 1784 3584 
Q 2172 3584 2448 3432 
Q 2725 3281 2906 2969 
z
M 947 1747 
Q 947 1113 1208 752 
Q 1469 391 1925 391 
Q 2381 391 2643 752 
Q 2906 1113 2906 1747 
Q 2906 2381 2643 2742 
Q 2381 3103 1925 3103 
Q 1469 3103 1208 2742 
Q 947 2381 947 1747 
z
" transform="scale(0.015625)"/>
     </defs>
     <use xlink:href="#DejaVuSans-41"/>
     <use xlink:href="#DejaVuSans-43" transform="translate(66.658203 0)"/>
     <use xlink:href="#DejaVuSans-20" transform="translate(136.482422 0)"/>
     <use xlink:href="#DejaVuSans-67" transform="translate(168.269531 0)"/>
     <use xlink:href="#DejaVuSans-72" transform="translate(231.746094 0)"/>
     <use xlink:href="#DejaVuSans-69" transform="translate(272.859375 0)"/>
     <use xlink:href="#DejaVuSans-64" transform="translate(300.642578 0)"/>
    </g>
   </g>
   <g id="text_2">
    <!-- AC/DC -->
    <g transform="translate(38.34051 95.152) scale(0.07 -0.07)">
     <defs>
      <path id="DejaVuSans-Bold-41" d="M 3419 850 
L 1538 850 
L 1241 0 
L 31 0 
L 1759 4666 
L 3194 4666 
L 4922 0 
L 3713 0 
L 3419 850 
z
M 1838 1716 
L 3116 1716 
L 2478 3572 
L 1838 1716 
z
" transform="scale(0.015625)"/>
      <path id="DejaVuSans-Bold-43" d="M 4288 256 
Q 3956 84 3597 -3 
Q 3238 -91 2847 -91 
Q 1681 -91 1000 561 
Q 319 1213 319 2328 
Q 319 3447 1000 4098 
Q 1681 4750 2847 4750 
Q 3238 4750 3597 4662 
Q 3956 4575 4288 4403 
L 4288 3438 
Q 3953 3666 3628 3772 
Q 3303 3878 2944 3878 
Q 2300 3878 1931 3465 
Q 1563 3053 1563 2328 
Q 1563 1606 1931 1193 
Q 2300 781 2944 781 
Q 3303 781 3628 887 
Q 3953 994 4288 1222 
L 4288 256 
z
" transform="scale(0.015625)"/>
      <path id="DejaVuSans-Bold-2f" d="M 1644 4666 
L 2338 4666 
L 691 -594 
L 0 -594 
L 1644 4666 
z
" transform="scale(0.015625)"/>
      <path id="DejaVuSans-Bold-44" d="M 1791 3756 
L 1791 909 
L 2222 909 
Q 2959 909 3348 1275 
Q 3738 1641 3738 2338 
Q 3738 3031 3350 3393 
Q 2963 3756 2222 3756 
L 1791 3756 
z
M 588 4666 
L 1856 4666 
Q 2919 4666 3439 4514 
Q 3959 4363 4331 4000 
Q 4659 3684 4818 3271 
Q 4978 2859 4978 2338 
Q 4978 1809 4818 1395 
Q 4659 981 4331 666 
Q 3956 303 3431 151 
Q 2906 0 1856 0 
L 588 0 
L 588 4666 
z
" transform="scale(0.015625)"/>
     </defs>
     <use xlink:href="#DejaVuSans-Bold-41"/>
     <use xlink:href="#DejaVuSans-Bold-43" transform="translate(77.392578 0)"/>
     <use xlink:href="#DejaVuSans-Bold-2f" transform="translate(150.78125 0)"/>
     <use xlink:href="#DejaVuSans-Bold-44" transform="translate(187.304688 0)"/>
     <use xlink:href="#DejaVuSans-Bold-43" transform="translate(270.3125 0)"/>
    </g>
   </g>
   <g id="text_3">
    <!-- DC/DC -->
    <g transform="translate(81.314302 159.8145) scale(0.07 -0.07)">
     <use xlink:href="#DejaVuSans-Bold-44"/>
     <use xlink:href="#DejaVuSans-Bold-43" transform="translate(83.007812 0)"/>
     <use xlink:href="#DejaVuSans-Bold-2f" transform="translate(156.396484 0)"/>
     <use xlink:href="#DejaVuSans-Bold-44" transform="translate(192.919922 0)"/>
     <use xlink:href="#DejaVuSans-Bold-43" transform="translate(275.927734 0)"/>
    </g>
   </g>
   <g id="text_4">
    <!-- campus 1 -->
    <g transform="translate(76.46024 181.161438) scale(0.07 -0.07)">
     <defs>
      <path id="DejaVuSans-63" d="M 3122 3366 
L 3122 2828 
Q 2878 2963 2633 3030 
Q 2388 3097 2138 3097 
Q 1578 3097 1268 2742 
Q 959 2388 959 1747 
Q 959 1106 1268 751 
Q 1578 397 2138 397 
Q 2388 397 2633 464 
Q 2878 531 3122 666 
L 3122 134 
Q 2881 22 2623 -34 
Q 2366 -91 2075 -91 
Q 1284 -91 818 406 
Q 353 903 353 1747 
Q 353 2603 823 3093 
Q 1294 3584 2113 3584 
Q 2378 3584 2631 3529 
Q 2884 3475 3122 3366 
z
" transform="scale(0.015625)"/>
      <path id="DejaVuSans-61" d="M 2194 1759 
Q 1497 1759 1228 1600 
Q 959 1441 959 1056 
Q 959 750 1161 570 
Q 1363 391 1709 391 
Q 2188 391 2477 730 
Q 2766 1069 2766 1631 
L 2766 1759 
L 2194 1759 
z
M 3341 1997 
L 3341 0 
L 2766 0 
L 2766 531 
Q 2569 213 2275 61 
Q 1981 -91 1556 -91 
Q 1019 -91 701 211 
Q 384 513 384 1019 
Q 384 1609 779 1909 
Q 1175 2209 1959 2209 
L 2766 2209 
L 2766 2266 
Q 2766 2663 2505 2880 
Q 2244 3097 1772 3097 
Q 1472 3097 1187 3025 
Q 903 2953 641 2809 
L 641 3341 
Q 956 3463 1253 3523 
Q 1550 3584 1831 3584 
Q 2591 3584 2966 3190 
Q 3341 2797 3341 1997 
z
" transform="scale(0.015625)"/>
      <path id="DejaVuSans-6d" d="M 3328 2828 
Q 3544 3216 3844 3400 
Q 4144 3584 4550 3584 
Q 5097 3584 5394 3201 
Q 5691 2819 5691 2113 
L 5691 0 
L 5113 0 
L 5113 2094 
Q 5113 2597 4934 2840 
Q 4756 3084 4391 3084 
Q 3944 3084 3684 2787 
Q 3425 2491 3425 1978 
L 3425 0 
L 2847 0 
L 2847 2094 
Q 2847 2600 2669 2842 
Q 2491 3084 2119 3084 
Q 1678 3084 1418 2786 
Q 1159 2488 1159 1978 
L 1159 0 
L 581 0 
L 581 3500 
L 1159 3500 
L 1159 2956 
Q 1356 3278 1631 3431 
Q 1906 3584 2284 3584 
Q 2666 3584 2933 3390 
Q 3200 3197 3328 2828 
z
" transform="scale(0.015625)"/>
      <path id="DejaVuSans-70" d="M 1159 525 
L 1159 -1331 
L 581 -1331 
L 581 3500 
L 1159 3500 
L 1159 2969 
Q 1341 3281 1617 3432 
Q 1894 3584 2278 3584 
Q 2916 3584 3314 3078 
Q 3713 2572 3713 1747 
Q 3713 922 3314 415 
Q 2916 -91 2278 -91 
Q 1894 -91 1617 61 
Q 1341 213 1159 525 
z
M 3116 1747 
Q 3116 2381 2855 2742 
Q 2594 3103 2138 3103 
Q 1681 3103 1420 2742 
Q 1159 2381 1159 1747 
Q 1159 1113 1420 752 
Q 1681 391 2138 391 
Q 2594 391 2855 752 
Q 3116 1113 3116 1747 
z
" transform="scale(0.015625)"/>
      <path id="DejaVuSans-75" d="M 544 1381 
L 544 3500 
L 1119 3500 
L 1119 1403 
Q 1119 906 1312 657 
Q 1506 409 1894 409 
Q 2359 409 2629 706 
Q 2900 1003 2900 1516 
L 2900 3500 
L 3475 3500 
L 3475 0 
L 2900 0 
L 2900 538 
Q 2691 219 2414 64 
Q 2138 -91 1772 -91 
Q 1169 -91 856 284 
Q 544 659 544 1381 
z
M 1991 3584 
L 1991 3584 
z
" transform="scale(0.015625)"/>
      <path id="DejaVuSans-73" d="M 2834 3397 
L 2834 2853 
Q 2591 2978 2328 3040 
Q 2066 3103 1784 3103 
Q 1356 3103 1142 2972 
Q 928 2841 928 2578 
Q 928 2378 1081 2264 
Q 1234 2150 1697 2047 
L 1894 2003 
Q 2506 1872 2764 1633 
Q 3022 1394 3022 966 
Q 3022 478 2636 193 
Q 2250 -91 1575 -91 
Q 1294 -91 989 -36 
Q 684 19 347 128 
L 347 722 
Q 666 556 975 473 
Q 1284 391 1588 391 
Q 1994 391 2212 530 
Q 2431 669 2431 922 
Q 2431 1156 2273 1281 
Q 2116 1406 1581 1522 
L 1381 1569 
Q 847 1681 609 1914 
Q 372 2147 372 2553 
Q 372 3047 722 3315 
Q 1072 3584 1716 3584 
Q 2034 3584 2315 3537 
Q 2597 3491 2834 3397 
z
" transform="scale(0.015625)"/>
      <path id="DejaVuSans-31" d="M 794 531 
L 1825 531 
L 1825 4091 
L 703 3866 
L 703 4441 
L 1819 4666 
L 2450 4666 
L 2450 531 
L 3481 531 
L 3481 0 
L 794 0 
L 794 531 
z
" transform="scale(0.015625)"/>
     </defs>
     <use xlink:href="#DejaVuSans-63"/>
     <use xlink:href="#DejaVuSans-61" transform="translate(54.980469 0)"/>
     <use xlink:href="#DejaVuSans-6d" transform="translate(116.259766 0)"/>
     <use xlink:href="#DejaVuSans-70" transform="translate(213.671875 0)"/>
     <use xlink:href="#DejaVuSans-75" transform="translate(277.148438 0)"/>
     <use xlink:href="#DejaVuSans-73" transform="translate(340.527344 0)"/>
     <use xlink:href="#DejaVuSans-20" transform="translate(392.626953 0)"/>
     <use xlink:href="#DejaVuSans-31" transform="translate(424.414062 0)"/>
    </g>
   </g>
   <g id="text_5">
    <!-- DC/DC -->
    <g transform="translate(120.167902 159.8145) scale(0.07 -0.07)">
     <use xlink:href="#DejaVuSans-Bold-44"/>
     <use xlink:href="#DejaVuSans-Bold-43" transform="translate(83.007812 0)"/>
     <use xlink:href="#DejaVuSans-Bold-2f" transform="translate(156.396484 0)"/>
     <use xlink:href="#DejaVuSans-Bold-44" transform="translate(192.919922 0)"/>
     <use xlink:href="#DejaVuSans-Bold-43" transform="translate(275.927734 0)"/>
    </g>
   </g>
   <g id="text_6">
    <!-- campus 2 -->
    <g transform="translate(115.31384 181.161438) scale(0.07 -0.07)">
     <defs>
      <path id="DejaVuSans-32" d="M 1228 531 
L 3431 531 
L 3431 0 
L 469 0 
L 469 531 
Q 828 903 1448 1529 
Q 2069 2156 2228 2338 
Q 2531 2678 2651 2914 
Q 2772 3150 2772 3378 
Q 2772 3750 2511 3984 
Q 2250 4219 1831 4219 
Q 1534 4219 1204 4116 
Q 875 4013 500 3803 
L 500 4441 
Q 881 4594 1212 4672 
Q 1544 4750 1819 4750 
Q 2544 4750 2975 4387 
Q 3406 4025 3406 3419 
Q 3406 3131 3298 2873 
Q 3191 2616 2906 2266 
Q 2828 2175 2409 1742 
Q 1991 1309 1228 531 
z
" transform="scale(0.015625)"/>
     </defs>
     <use xlink:href="#DejaVuSans-63"/>
     <use xlink:href="#DejaVuSans-61" transform="translate(54.980469 0)"/>
     <use xlink:href="#DejaVuSans-6d" transform="translate(116.259766 0)"/>
     <use xlink:href="#DejaVuSans-70" transform="translate(213.671875 0)"/>
     <use xlink:href="#DejaVuSans-75" transform="translate(277.148438 0)"/>
     <use xlink:href="#DejaVuSans-73" transform="translate(340.527344 0)"/>
     <use xlink:href="#DejaVuSans-20" transform="translate(392.626953 0)"/>
     <use xlink:href="#DejaVuSans-32" transform="translate(424.414062 0)"/>
    </g>
   </g>
   <g id="text_7">
    <!-- DC/DC -->
    <g transform="translate(159.021502 159.8145) scale(0.07 -0.07)">
     <use xlink:href="#DejaVuSans-Bold-44"/>
     <use xlink:href="#DejaVuSans-Bold-43" transform="translate(83.007812 0)"/>
     <use xlink:href="#DejaVuSans-Bold-2f" transform="translate(156.396484 0)"/>
     <use xlink:href="#DejaVuSans-Bold-44" transform="translate(192.919922 0)"/>
     <use xlink:href="#DejaVuSans-Bold-43" transform="translate(275.927734 0)"/>
    </g>
   </g>
   <g id="text_8">
    <!-- campus 3 -->
    <g transform="translate(154.16744 181.161438) scale(0.07 -0.07)">
     <defs>
      <path id="DejaVuSans-33" d="M 2597 2516 
Q 3050 2419 3304 2112 
Q 3559 1806 3559 1356 
Q 3559 666 3084 287 
Q 2609 -91 1734 -91 
Q 1441 -91 1130 -33 
Q 819 25 488 141 
L 488 750 
Q 750 597 1062 519 
Q 1375 441 1716 441 
Q 2309 441 2620 675 
Q 2931 909 2931 1356 
Q 2931 1769 2642 2001 
Q 2353 2234 1838 2234 
L 1294 2234 
L 1294 2753 
L 1863 2753 
Q 2328 2753 2575 2939 
Q 2822 3125 2822 3475 
Q 2822 3834 2567 4026 
Q 2313 4219 1838 4219 
Q 1578 4219 1281 4162 
Q 984 4106 628 3988 
L 628 4550 
Q 988 4650 1302 4700 
Q 1616 4750 1894 4750 
Q 2613 4750 3031 4423 
Q 3450 4097 3450 3541 
Q 3450 3153 3228 2886 
Q 3006 2619 2597 2516 
z
" transform="scale(0.015625)"/>
     </defs>
     <use xlink:href="#DejaVuSans-63"/>
     <use xlink:href="#DejaVuSans-61" transform="translate(54.980469 0)"/>
     <use xlink:href="#DejaVuSans-6d" transform="translate(116.259766 0)"/>
     <use xlink:href="#DejaVuSans-70" transform="translate(213.671875 0)"/>
     <use xlink:href="#DejaVuSans-75" transform="translate(277.148438 0)"/>
     <use xlink:href="#DejaVuSans-73" transform="translate(340.527344 0)"/>
     <use xlink:href="#DejaVuSans-20" transform="translate(392.626953 0)"/>
     <use xlink:href="#DejaVuSans-33" transform="translate(424.414062 0)"/>
    </g>
   </g>
   <g id="text_9">
    <!-- backbone fault -->
    <g transform="translate(122.681533 67.355437) scale(0.07 -0.07)">
     <defs>
      <path id="DejaVuSans-62" d="M 3116 1747 
Q 3116 2381 2855 2742 
Q 2594 3103 2138 3103 
Q 1681 3103 1420 2742 
Q 1159 2381 1159 1747 
Q 1159 1113 1420 752 
Q 1681 391 2138 391 
Q 2594 391 2855 752 
Q 3116 1113 3116 1747 
z
M 1159 2969 
Q 1341 3281 1617 3432 
Q 1894 3584 2278 3584 
Q 2916 3584 3314 3078 
Q 3713 2572 3713 1747 
Q 3713 922 3314 415 
Q 2916 -91 2278 -91 
Q 1894 -91 1617 61 
Q 1341 213 1159 525 
L 1159 0 
L 581 0 
L 581 4863 
L 1159 4863 
L 1159 2969 
z
" transform="scale(0.015625)"/>
      <path id="DejaVuSans-6b" d="M 581 4863 
L 1159 4863 
L 1159 1991 
L 2875 3500 
L 3609 3500 
L 1753 1863 
L 3688 0 
L 2938 0 
L 1159 1709 
L 1159 0 
L 581 0 
L 581 4863 
z
" transform="scale(0.015625)"/>
      <path id="DejaVuSans-6f" d="M 1959 3097 
Q 1497 3097 1228 2736 
Q 959 2375 959 1747 
Q 959 1119 1226 758 
Q 1494 397 1959 397 
Q 2419 397 2687 759 
Q 2956 1122 2956 1747 
Q 2956 2369 2687 2733 
Q 2419 3097 1959 3097 
z
M 1959 3584 
Q 2709 3584 3137 3096 
Q 3566 2609 3566 1747 
Q 3566 888 3137 398 
Q 2709 -91 1959 -91 
Q 1206 -91 779 398 
Q 353 888 353 1747 
Q 353 2609 779 3096 
Q 1206 3584 1959 3584 
z
" transform="scale(0.015625)"/>
      <path id="DejaVuSans-6e" d="M 3513 2113 
L 3513 0 
L 2938 0 
L 2938 2094 
Q 2938 2591 2744 2837 
Q 2550 3084 2163 3084 
Q 1697 3084 1428 2787 
Q 1159 2491 1159 1978 
L 1159 0 
L 581 0 
L 581 3500 
L 1159 3500 
L 1159 2956 
Q 1366 3272 1645 3428 
Q 1925 3584 2291 3584 
Q 2894 3584 3203 3211 
Q 3513 2838 3513 2113 
z
" transform="scale(0.015625)"/>
      <path id="DejaVuSans-65" d="M 3597 1894 
L 3597 1613 
L 953 1613 
Q 991 1019 1311 708 
Q 1631 397 2203 397 
Q 2534 397 2845 478 
Q 3156 559 3463 722 
L 3463 178 
Q 3153 47 2828 -22 
Q 2503 -91 2169 -91 
Q 1331 -91 842 396 
Q 353 884 353 1716 
Q 353 2575 817 3079 
Q 1281 3584 2069 3584 
Q 2775 3584 3186 3129 
Q 3597 2675 3597 1894 
z
M 3022 2063 
Q 3016 2534 2758 2815 
Q 2500 3097 2075 3097 
Q 1594 3097 1305 2825 
Q 1016 2553 972 2059 
L 3022 2063 
z
" transform="scale(0.015625)"/>
      <path id="DejaVuSans-66" d="M 2375 4863 
L 2375 4384 
L 1825 4384 
Q 1516 4384 1395 4259 
Q 1275 4134 1275 3809 
L 1275 3500 
L 2222 3500 
L 2222 3053 
L 1275 3053 
L 1275 0 
L 697 0 
L 697 3053 
L 147 3053 
L 147 3500 
L 697 3500 
L 697 3744 
Q 697 4328 969 4595 
Q 1241 4863 1831 4863 
L 2375 4863 
z
" transform="scale(0.015625)"/>
      <path id="DejaVuSans-6c" d="M 603 4863 
L 1178 4863 
L 1178 0 
L 603 0 
L 603 4863 
z
" transform="scale(0.015625)"/>
      <path id="DejaVuSans-74" d="M 1172 4494 
L 1172 3500 
L 2356 3500 
L 2356 3053 
L 1172 3053 
L 1172 1153 
Q 1172 725 1289 603 
Q 1406 481 1766 481 
L 2356 481 
L 2356 0 
L 1766 0 
Q 1100 0 847 248 
Q 594 497 594 1153 
L 594 3053 
L 172 3053 
L 172 3500 
L 594 3500 
L 594 4494 
L 1172 4494 
z
" transform="scale(0.015625)"/>
     </defs>
     <use xlink:href="#DejaVuSans-62"/>
     <use xlink:href="#DejaVuSans-61" transform="translate(63.476562 0)"/>
     <use xlink:href="#DejaVuSans-63" transform="translate(124.755859 0)"/>
     <use xlink:href="#DejaVuSans-6b" transform="translate(179.736328 0)"/>
     <use xlink:href="#DejaVuSans-62" transform="translate(237.646484 0)"/>
     <use xlink:href="#DejaVuSans-6f" transform="translate(301.123047 0)"/>
     <use xlink:href="#DejaVuSans-6e" transform="translate(362.304688 0)"/>
     <use xlink:href="#DejaVuSans-65" transform="translate(425.683594 0)"/>
     <use xlink:href="#DejaVuSans-20" transform="translate(487.207031 0)"/>
     <use xlink:href="#DejaVuSans-66" transform="translate(518.994141 0)"/>
     <use xlink:href="#DejaVuSans-61" transform="translate(554.199219 0)"/>
     <use xlink:href="#DejaVuSans-75" transform="translate(615.478516 0)"/>
     <use xlink:href="#DejaVuSans-6c" transform="translate(678.857422 0)"/>
     <use xlink:href="#DejaVuSans-74" transform="translate(706.640625 0)"/>
    </g>
   </g>
   <g id="text_10">
    <!-- a  Protection zones -->
    <g transform="translate(7.2 14.798437) scale(0.1 -0.1)">
     <defs>
      <path id="DejaVuSans-Bold-61" d="M 2106 1575 
Q 1756 1575 1579 1456 
Q 1403 1338 1403 1106 
Q 1403 894 1545 773 
Q 1688 653 1941 653 
Q 2256 653 2472 879 
Q 2688 1106 2688 1447 
L 2688 1575 
L 2106 1575 
z
M 3816 1997 
L 3816 0 
L 2688 0 
L 2688 519 
Q 2463 200 2181 54 
Q 1900 -91 1497 -91 
Q 953 -91 614 226 
Q 275 544 275 1050 
Q 275 1666 698 1953 
Q 1122 2241 2028 2241 
L 2688 2241 
L 2688 2328 
Q 2688 2594 2478 2717 
Q 2269 2841 1825 2841 
Q 1466 2841 1156 2769 
Q 847 2697 581 2553 
L 581 3406 
Q 941 3494 1303 3539 
Q 1666 3584 2028 3584 
Q 2975 3584 3395 3211 
Q 3816 2838 3816 1997 
z
" transform="scale(0.015625)"/>
      <path id="DejaVuSans-Bold-20" transform="scale(0.015625)"/>
      <path id="DejaVuSans-Bold-50" d="M 588 4666 
L 2584 4666 
Q 3475 4666 3951 4270 
Q 4428 3875 4428 3144 
Q 4428 2409 3951 2014 
Q 3475 1619 2584 1619 
L 1791 1619 
L 1791 0 
L 588 0 
L 588 4666 
z
M 1791 3794 
L 1791 2491 
L 2456 2491 
Q 2806 2491 2997 2661 
Q 3188 2831 3188 3144 
Q 3188 3456 2997 3625 
Q 2806 3794 2456 3794 
L 1791 3794 
z
" transform="scale(0.015625)"/>
      <path id="DejaVuSans-Bold-72" d="M 3138 2547 
Q 2991 2616 2845 2648 
Q 2700 2681 2553 2681 
Q 2122 2681 1889 2404 
Q 1656 2128 1656 1613 
L 1656 0 
L 538 0 
L 538 3500 
L 1656 3500 
L 1656 2925 
Q 1872 3269 2151 3426 
Q 2431 3584 2822 3584 
Q 2878 3584 2943 3579 
Q 3009 3575 3134 3559 
L 3138 2547 
z
" transform="scale(0.015625)"/>
      <path id="DejaVuSans-Bold-6f" d="M 2203 2784 
Q 1831 2784 1636 2517 
Q 1441 2250 1441 1747 
Q 1441 1244 1636 976 
Q 1831 709 2203 709 
Q 2569 709 2762 976 
Q 2956 1244 2956 1747 
Q 2956 2250 2762 2517 
Q 2569 2784 2203 2784 
z
M 2203 3584 
Q 3106 3584 3614 3096 
Q 4122 2609 4122 1747 
Q 4122 884 3614 396 
Q 3106 -91 2203 -91 
Q 1297 -91 786 396 
Q 275 884 275 1747 
Q 275 2609 786 3096 
Q 1297 3584 2203 3584 
z
" transform="scale(0.015625)"/>
      <path id="DejaVuSans-Bold-74" d="M 1759 4494 
L 1759 3500 
L 2913 3500 
L 2913 2700 
L 1759 2700 
L 1759 1216 
Q 1759 972 1856 886 
Q 1953 800 2241 800 
L 2816 800 
L 2816 0 
L 1856 0 
Q 1194 0 917 276 
Q 641 553 641 1216 
L 641 2700 
L 84 2700 
L 84 3500 
L 641 3500 
L 641 4494 
L 1759 4494 
z
" transform="scale(0.015625)"/>
      <path id="DejaVuSans-Bold-65" d="M 4031 1759 
L 4031 1441 
L 1416 1441 
Q 1456 1047 1700 850 
Q 1944 653 2381 653 
Q 2734 653 3104 758 
Q 3475 863 3866 1075 
L 3866 213 
Q 3469 63 3072 -14 
Q 2675 -91 2278 -91 
Q 1328 -91 801 392 
Q 275 875 275 1747 
Q 275 2603 792 3093 
Q 1309 3584 2216 3584 
Q 3041 3584 3536 3087 
Q 4031 2591 4031 1759 
z
M 2881 2131 
Q 2881 2450 2695 2645 
Q 2509 2841 2209 2841 
Q 1884 2841 1681 2658 
Q 1478 2475 1428 2131 
L 2881 2131 
z
" transform="scale(0.015625)"/>
      <path id="DejaVuSans-Bold-63" d="M 3366 3391 
L 3366 2478 
Q 3138 2634 2908 2709 
Q 2678 2784 2431 2784 
Q 1963 2784 1702 2511 
Q 1441 2238 1441 1747 
Q 1441 1256 1702 982 
Q 1963 709 2431 709 
Q 2694 709 2930 787 
Q 3166 866 3366 1019 
L 3366 103 
Q 3103 6 2833 -42 
Q 2563 -91 2291 -91 
Q 1344 -91 809 395 
Q 275 881 275 1747 
Q 275 2613 809 3098 
Q 1344 3584 2291 3584 
Q 2566 3584 2833 3536 
Q 3100 3488 3366 3391 
z
" transform="scale(0.015625)"/>
      <path id="DejaVuSans-Bold-69" d="M 538 3500 
L 1656 3500 
L 1656 0 
L 538 0 
L 538 3500 
z
M 538 4863 
L 1656 4863 
L 1656 3950 
L 538 3950 
L 538 4863 
z
" transform="scale(0.015625)"/>
      <path id="DejaVuSans-Bold-6e" d="M 4056 2131 
L 4056 0 
L 2931 0 
L 2931 347 
L 2931 1631 
Q 2931 2084 2911 2256 
Q 2891 2428 2841 2509 
Q 2775 2619 2662 2680 
Q 2550 2741 2406 2741 
Q 2056 2741 1856 2470 
Q 1656 2200 1656 1722 
L 1656 0 
L 538 0 
L 538 3500 
L 1656 3500 
L 1656 2988 
Q 1909 3294 2193 3439 
Q 2478 3584 2822 3584 
Q 3428 3584 3742 3212 
Q 4056 2841 4056 2131 
z
" transform="scale(0.015625)"/>
      <path id="DejaVuSans-Bold-7a" d="M 366 3500 
L 3419 3500 
L 3419 2719 
L 1575 800 
L 3419 800 
L 3419 0 
L 288 0 
L 288 781 
L 2131 2700 
L 366 2700 
L 366 3500 
z
" transform="scale(0.015625)"/>
      <path id="DejaVuSans-Bold-73" d="M 3272 3391 
L 3272 2541 
Q 2913 2691 2578 2766 
Q 2244 2841 1947 2841 
Q 1628 2841 1473 2761 
Q 1319 2681 1319 2516 
Q 1319 2381 1436 2309 
Q 1553 2238 1856 2203 
L 2053 2175 
Q 2913 2066 3209 1816 
Q 3506 1566 3506 1031 
Q 3506 472 3093 190 
Q 2681 -91 1863 -91 
Q 1516 -91 1145 -36 
Q 775 19 384 128 
L 384 978 
Q 719 816 1070 734 
Q 1422 653 1784 653 
Q 2113 653 2278 743 
Q 2444 834 2444 1013 
Q 2444 1163 2330 1236 
Q 2216 1309 1875 1350 
L 1678 1375 
Q 931 1469 631 1722 
Q 331 1975 331 2491 
Q 331 3047 712 3315 
Q 1094 3584 1881 3584 
Q 2191 3584 2531 3537 
Q 2872 3491 3272 3391 
z
" transform="scale(0.015625)"/>
     </defs>
     <use xlink:href="#DejaVuSans-Bold-61"/>
     <use xlink:href="#DejaVuSans-Bold-20" transform="translate(67.480469 0)"/>
     <use xlink:href="#DejaVuSans-Bold-20" transform="translate(102.294922 0)"/>
     <use xlink:href="#DejaVuSans-Bold-50" transform="translate(137.109375 0)"/>
     <use xlink:href="#DejaVuSans-Bold-72" transform="translate(210.400391 0)"/>
     <use xlink:href="#DejaVuSans-Bold-6f" transform="translate(259.716797 0)"/>
     <use xlink:href="#DejaVuSans-Bold-74" transform="translate(328.417969 0)"/>
     <use xlink:href="#DejaVuSans-Bold-65" transform="translate(376.220703 0)"/>
     <use xlink:href="#DejaVuSans-Bold-63" transform="translate(444.042969 0)"/>
     <use xlink:href="#DejaVuSans-Bold-74" transform="translate(503.320312 0)"/>
     <use xlink:href="#DejaVuSans-Bold-69" transform="translate(551.123047 0)"/>
     <use xlink:href="#DejaVuSans-Bold-6f" transform="translate(585.400391 0)"/>
     <use xlink:href="#DejaVuSans-Bold-6e" transform="translate(654.101562 0)"/>
     <use xlink:href="#DejaVuSans-Bold-20" transform="translate(725.292969 0)"/>
     <use xlink:href="#DejaVuSans-Bold-7a" transform="translate(760.107422 0)"/>
     <use xlink:href="#DejaVuSans-Bold-6f" transform="translate(818.310547 0)"/>
     <use xlink:href="#DejaVuSans-Bold-6e" transform="translate(887.011719 0)"/>
     <use xlink:href="#DejaVuSans-Bold-65" transform="translate(958.203125 0)"/>
     <use xlink:href="#DejaVuSans-Bold-73" transform="translate(1026.025391 0)"/>
    </g>
   </g>
  </g>
  <g id="axes_2">
   <g id="patch_14">
    <path d="M 320.473333 227.718438 
L 536.326667 227.718438 
L 536.326667 20.798437 
L 320.473333 20.798437 
z
" style="fill: #ffffff"/>
   </g>
   <g id="matplotlib.axis_1">
    <g id="xtick_1">
     <g id="line2d_6">
      <path d="M 330.284848 227.718438 
L 330.284848 20.798437 
" clip-path="url(#p0be85b5c20)" style="fill: none; stroke: #b0b0b0; stroke-opacity: 0.25; stroke-width: 0.8; stroke-linecap: square"/>
     </g>
     <g id="line2d_7">
      <defs>
       <path id="m86951c83c8" d="M 0 0 
L 0 3.5 
" style="stroke: #000000; stroke-width: 0.8"/>
      </defs>
      <g>
       <use xlink:href="#m86951c83c8" x="330.284848" y="227.718438" style="stroke: #000000; stroke-width: 0.8"/>
      </g>
     </g>
     <g id="text_11">
      <!-- 0 -->
      <g transform="translate(327.103598 242.316875) scale(0.1 -0.1)">
       <defs>
        <path id="DejaVuSans-30" d="M 2034 4250 
Q 1547 4250 1301 3770 
Q 1056 3291 1056 2328 
Q 1056 1369 1301 889 
Q 1547 409 2034 409 
Q 2525 409 2770 889 
Q 3016 1369 3016 2328 
Q 3016 3291 2770 3770 
Q 2525 4250 2034 4250 
z
M 2034 4750 
Q 2819 4750 3233 4129 
Q 3647 3509 3647 2328 
Q 3647 1150 3233 529 
Q 2819 -91 2034 -91 
Q 1250 -91 836 529 
Q 422 1150 422 2328 
Q 422 3509 836 4129 
Q 1250 4750 2034 4750 
z
" transform="scale(0.015625)"/>
       </defs>
       <use xlink:href="#DejaVuSans-30"/>
      </g>
     </g>
    </g>
    <g id="xtick_2">
     <g id="line2d_8">
      <path d="M 379.403823 227.718438 
L 379.403823 20.798437 
" clip-path="url(#p0be85b5c20)" style="fill: none; stroke: #b0b0b0; stroke-opacity: 0.25; stroke-width: 0.8; stroke-linecap: square"/>
     </g>
     <g id="line2d_9">
      <g>
       <use xlink:href="#m86951c83c8" x="379.403823" y="227.718438" style="stroke: #000000; stroke-width: 0.8"/>
      </g>
     </g>
     <g id="text_12">
      <!-- 20 -->
      <g transform="translate(373.041323 242.316875) scale(0.1 -0.1)">
       <use xlink:href="#DejaVuSans-32"/>
       <use xlink:href="#DejaVuSans-30" transform="translate(63.623047 0)"/>
      </g>
     </g>
    </g>
    <g id="xtick_3">
     <g id="line2d_10">
      <path d="M 428.522797 227.718438 
L 428.522797 20.798437 
" clip-path="url(#p0be85b5c20)" style="fill: none; stroke: #b0b0b0; stroke-opacity: 0.25; stroke-width: 0.8; stroke-linecap: square"/>
     </g>
     <g id="line2d_11">
      <g>
       <use xlink:href="#m86951c83c8" x="428.522797" y="227.718438" style="stroke: #000000; stroke-width: 0.8"/>
      </g>
     </g>
     <g id="text_13">
      <!-- 40 -->
      <g transform="translate(422.160297 242.316875) scale(0.1 -0.1)">
       <defs>
        <path id="DejaVuSans-34" d="M 2419 4116 
L 825 1625 
L 2419 1625 
L 2419 4116 
z
M 2253 4666 
L 3047 4666 
L 3047 1625 
L 3713 1625 
L 3713 1100 
L 3047 1100 
L 3047 0 
L 2419 0 
L 2419 1100 
L 313 1100 
L 313 1709 
L 2253 4666 
z
" transform="scale(0.015625)"/>
       </defs>
       <use xlink:href="#DejaVuSans-34"/>
       <use xlink:href="#DejaVuSans-30" transform="translate(63.623047 0)"/>
      </g>
     </g>
    </g>
    <g id="xtick_4">
     <g id="line2d_12">
      <path d="M 477.641772 227.718438 
L 477.641772 20.798437 
" clip-path="url(#p0be85b5c20)" style="fill: none; stroke: #b0b0b0; stroke-opacity: 0.25; stroke-width: 0.8; stroke-linecap: square"/>
     </g>
     <g id="line2d_13">
      <g>
       <use xlink:href="#m86951c83c8" x="477.641772" y="227.718438" style="stroke: #000000; stroke-width: 0.8"/>
      </g>
     </g>
     <g id="text_14">
      <!-- 60 -->
      <g transform="translate(471.279272 242.316875) scale(0.1 -0.1)">
       <defs>
        <path id="DejaVuSans-36" d="M 2113 2584 
Q 1688 2584 1439 2293 
Q 1191 2003 1191 1497 
Q 1191 994 1439 701 
Q 1688 409 2113 409 
Q 2538 409 2786 701 
Q 3034 994 3034 1497 
Q 3034 2003 2786 2293 
Q 2538 2584 2113 2584 
z
M 3366 4563 
L 3366 3988 
Q 3128 4100 2886 4159 
Q 2644 4219 2406 4219 
Q 1781 4219 1451 3797 
Q 1122 3375 1075 2522 
Q 1259 2794 1537 2939 
Q 1816 3084 2150 3084 
Q 2853 3084 3261 2657 
Q 3669 2231 3669 1497 
Q 3669 778 3244 343 
Q 2819 -91 2113 -91 
Q 1303 -91 875 529 
Q 447 1150 447 2328 
Q 447 3434 972 4092 
Q 1497 4750 2381 4750 
Q 2619 4750 2861 4703 
Q 3103 4656 3366 4563 
z
" transform="scale(0.015625)"/>
       </defs>
       <use xlink:href="#DejaVuSans-36"/>
       <use xlink:href="#DejaVuSans-30" transform="translate(63.623047 0)"/>
      </g>
     </g>
    </g>
    <g id="xtick_5">
     <g id="line2d_14">
      <path d="M 526.760746 227.718438 
L 526.760746 20.798437 
" clip-path="url(#p0be85b5c20)" style="fill: none; stroke: #b0b0b0; stroke-opacity: 0.25; stroke-width: 0.8; stroke-linecap: square"/>
     </g>
     <g id="line2d_15">
      <g>
       <use xlink:href="#m86951c83c8" x="526.760746" y="227.718438" style="stroke: #000000; stroke-width: 0.8"/>
      </g>
     </g>
     <g id="text_15">
      <!-- 80 -->
      <g transform="translate(520.398246 242.316875) scale(0.1 -0.1)">
       <defs>
        <path id="DejaVuSans-38" d="M 2034 2216 
Q 1584 2216 1326 1975 
Q 1069 1734 1069 1313 
Q 1069 891 1326 650 
Q 1584 409 2034 409 
Q 2484 409 2743 651 
Q 3003 894 3003 1313 
Q 3003 1734 2745 1975 
Q 2488 2216 2034 2216 
z
M 1403 2484 
Q 997 2584 770 2862 
Q 544 3141 544 3541 
Q 544 4100 942 4425 
Q 1341 4750 2034 4750 
Q 2731 4750 3128 4425 
Q 3525 4100 3525 3541 
Q 3525 3141 3298 2862 
Q 3072 2584 2669 2484 
Q 3125 2378 3379 2068 
Q 3634 1759 3634 1313 
Q 3634 634 3220 271 
Q 2806 -91 2034 -91 
Q 1263 -91 848 271 
Q 434 634 434 1313 
Q 434 1759 690 2068 
Q 947 2378 1403 2484 
z
M 1172 3481 
Q 1172 3119 1398 2916 
Q 1625 2713 2034 2713 
Q 2441 2713 2670 2916 
Q 2900 3119 2900 3481 
Q 2900 3844 2670 4047 
Q 2441 4250 2034 4250 
Q 1625 4250 1398 4047 
Q 1172 3844 1172 3481 
z
" transform="scale(0.015625)"/>
       </defs>
       <use xlink:href="#DejaVuSans-38"/>
       <use xlink:href="#DejaVuSans-30" transform="translate(63.623047 0)"/>
      </g>
     </g>
    </g>
    <g id="text_16">
     <!-- Time (ms) -->
     <g transform="translate(403.200781 255.995) scale(0.1 -0.1)">
      <defs>
       <path id="DejaVuSans-54" d="M -19 4666 
L 3928 4666 
L 3928 4134 
L 2272 4134 
L 2272 0 
L 1638 0 
L 1638 4134 
L -19 4134 
L -19 4666 
z
" transform="scale(0.015625)"/>
       <path id="DejaVuSans-28" d="M 1984 4856 
Q 1566 4138 1362 3434 
Q 1159 2731 1159 2009 
Q 1159 1288 1364 580 
Q 1569 -128 1984 -844 
L 1484 -844 
Q 1016 -109 783 600 
Q 550 1309 550 2009 
Q 550 2706 781 3412 
Q 1013 4119 1484 4856 
L 1984 4856 
z
" transform="scale(0.015625)"/>
       <path id="DejaVuSans-29" d="M 513 4856 
L 1013 4856 
Q 1481 4119 1714 3412 
Q 1947 2706 1947 2009 
Q 1947 1309 1714 600 
Q 1481 -109 1013 -844 
L 513 -844 
Q 928 -128 1133 580 
Q 1338 1288 1338 2009 
Q 1338 2731 1133 3434 
Q 928 4138 513 4856 
z
" transform="scale(0.015625)"/>
      </defs>
      <use xlink:href="#DejaVuSans-54"/>
      <use xlink:href="#DejaVuSans-69" transform="translate(57.958984 0)"/>
      <use xlink:href="#DejaVuSans-6d" transform="translate(85.742188 0)"/>
      <use xlink:href="#DejaVuSans-65" transform="translate(183.154297 0)"/>
      <use xlink:href="#DejaVuSans-20" transform="translate(244.677734 0)"/>
      <use xlink:href="#DejaVuSans-28" transform="translate(276.464844 0)"/>
      <use xlink:href="#DejaVuSans-6d" transform="translate(315.478516 0)"/>
      <use xlink:href="#DejaVuSans-73" transform="translate(412.890625 0)"/>
      <use xlink:href="#DejaVuSans-29" transform="translate(464.990234 0)"/>
     </g>
    </g>
   </g>
   <g id="matplotlib.axis_2">
    <g id="ytick_1">
     <g id="line2d_16">
      <path d="M 320.473333 218.312983 
L 536.326667 218.312983 
" clip-path="url(#p0be85b5c20)" style="fill: none; stroke: #b0b0b0; stroke-opacity: 0.25; stroke-width: 0.8; stroke-linecap: square"/>
     </g>
     <g id="line2d_17">
      <defs>
       <path id="mcad8913f29" d="M 0 0 
L -3.5 0 
" style="stroke: #000000; stroke-width: 0.8"/>
      </defs>
      <g>
       <use xlink:href="#mcad8913f29" x="320.473333" y="218.312983" style="stroke: #000000; stroke-width: 0.8"/>
      </g>
     </g>
     <g id="text_17">
      <!-- 0 -->
      <g transform="translate(307.110833 222.112202) scale(0.1 -0.1)">
       <use xlink:href="#DejaVuSans-30"/>
      </g>
     </g>
    </g>
    <g id="ytick_2">
     <g id="line2d_18">
      <path d="M 320.473333 186.784728 
L 536.326667 186.784728 
" clip-path="url(#p0be85b5c20)" style="fill: none; stroke: #b0b0b0; stroke-opacity: 0.25; stroke-width: 0.8; stroke-linecap: square"/>
     </g>
     <g id="line2d_19">
      <g>
       <use xlink:href="#mcad8913f29" x="320.473333" y="186.784728" style="stroke: #000000; stroke-width: 0.8"/>
      </g>
     </g>
     <g id="text_18">
      <!-- 10 -->
      <g transform="translate(300.748333 190.583947) scale(0.1 -0.1)">
       <use xlink:href="#DejaVuSans-31"/>
       <use xlink:href="#DejaVuSans-30" transform="translate(63.623047 0)"/>
      </g>
     </g>
    </g>
    <g id="ytick_3">
     <g id="line2d_20">
      <path d="M 320.473333 155.256473 
L 536.326667 155.256473 
" clip-path="url(#p0be85b5c20)" style="fill: none; stroke: #b0b0b0; stroke-opacity: 0.25; stroke-width: 0.8; stroke-linecap: square"/>
     </g>
     <g id="line2d_21">
      <g>
       <use xlink:href="#mcad8913f29" x="320.473333" y="155.256473" style="stroke: #000000; stroke-width: 0.8"/>
      </g>
     </g>
     <g id="text_19">
      <!-- 20 -->
      <g transform="translate(300.748333 159.055691) scale(0.1 -0.1)">
       <use xlink:href="#DejaVuSans-32"/>
       <use xlink:href="#DejaVuSans-30" transform="translate(63.623047 0)"/>
      </g>
     </g>
    </g>
    <g id="ytick_4">
     <g id="line2d_22">
      <path d="M 320.473333 123.728217 
L 536.326667 123.728217 
" clip-path="url(#p0be85b5c20)" style="fill: none; stroke: #b0b0b0; stroke-opacity: 0.25; stroke-width: 0.8; stroke-linecap: square"/>
     </g>
     <g id="line2d_23">
      <g>
       <use xlink:href="#mcad8913f29" x="320.473333" y="123.728217" style="stroke: #000000; stroke-width: 0.8"/>
      </g>
     </g>
     <g id="text_20">
      <!-- 30 -->
      <g transform="translate(300.748333 127.527436) scale(0.1 -0.1)">
       <use xlink:href="#DejaVuSans-33"/>
       <use xlink:href="#DejaVuSans-30" transform="translate(63.623047 0)"/>
      </g>
     </g>
    </g>
    <g id="ytick_5">
     <g id="line2d_24">
      <path d="M 320.473333 92.199962 
L 536.326667 92.199962 
" clip-path="url(#p0be85b5c20)" style="fill: none; stroke: #b0b0b0; stroke-opacity: 0.25; stroke-width: 0.8; stroke-linecap: square"/>
     </g>
     <g id="line2d_25">
      <g>
       <use xlink:href="#mcad8913f29" x="320.473333" y="92.199962" style="stroke: #000000; stroke-width: 0.8"/>
      </g>
     </g>
     <g id="text_21">
      <!-- 40 -->
      <g transform="translate(300.748333 95.999181) scale(0.1 -0.1)">
       <use xlink:href="#DejaVuSans-34"/>
       <use xlink:href="#DejaVuSans-30" transform="translate(63.623047 0)"/>
      </g>
     </g>
    </g>
    <g id="ytick_6">
     <g id="line2d_26">
      <path d="M 320.473333 60.671707 
L 536.326667 60.671707 
" clip-path="url(#p0be85b5c20)" style="fill: none; stroke: #b0b0b0; stroke-opacity: 0.25; stroke-width: 0.8; stroke-linecap: square"/>
     </g>
     <g id="line2d_27">
      <g>
       <use xlink:href="#mcad8913f29" x="320.473333" y="60.671707" style="stroke: #000000; stroke-width: 0.8"/>
      </g>
     </g>
     <g id="text_22">
      <!-- 50 -->
      <g transform="translate(300.748333 64.470926) scale(0.1 -0.1)">
       <defs>
        <path id="DejaVuSans-35" d="M 691 4666 
L 3169 4666 
L 3169 4134 
L 1269 4134 
L 1269 2991 
Q 1406 3038 1543 3061 
Q 1681 3084 1819 3084 
Q 2600 3084 3056 2656 
Q 3513 2228 3513 1497 
Q 3513 744 3044 326 
Q 2575 -91 1722 -91 
Q 1428 -91 1123 -41 
Q 819 9 494 109 
L 494 744 
Q 775 591 1075 516 
Q 1375 441 1709 441 
Q 2250 441 2565 725 
Q 2881 1009 2881 1497 
Q 2881 1984 2565 2268 
Q 2250 2553 1709 2553 
Q 1456 2553 1204 2497 
Q 953 2441 691 2322 
L 691 4666 
z
" transform="scale(0.015625)"/>
       </defs>
       <use xlink:href="#DejaVuSans-35"/>
       <use xlink:href="#DejaVuSans-30" transform="translate(63.623047 0)"/>
      </g>
     </g>
    </g>
    <g id="ytick_7">
     <g id="line2d_28">
      <path d="M 320.473333 29.143452 
L 536.326667 29.143452 
" clip-path="url(#p0be85b5c20)" style="fill: none; stroke: #b0b0b0; stroke-opacity: 0.25; stroke-width: 0.8; stroke-linecap: square"/>
     </g>
     <g id="line2d_29">
      <g>
       <use xlink:href="#mcad8913f29" x="320.473333" y="29.143452" style="stroke: #000000; stroke-width: 0.8"/>
      </g>
     </g>
     <g id="text_23">
      <!-- 60 -->
      <g transform="translate(300.748333 32.942671) scale(0.1 -0.1)">
       <use xlink:href="#DejaVuSans-36"/>
       <use xlink:href="#DejaVuSans-30" transform="translate(63.623047 0)"/>
      </g>
     </g>
    </g>
    <g id="text_24">
     <!-- Fault current (kA) -->
     <g transform="translate(294.668646 167.689688) rotate(-90) scale(0.1 -0.1)">
      <defs>
       <path id="DejaVuSans-46" d="M 628 4666 
L 3309 4666 
L 3309 4134 
L 1259 4134 
L 1259 2759 
L 3109 2759 
L 3109 2228 
L 1259 2228 
L 1259 0 
L 628 0 
L 628 4666 
z
" transform="scale(0.015625)"/>
      </defs>
      <use xlink:href="#DejaVuSans-46"/>
      <use xlink:href="#DejaVuSans-61" transform="translate(48.394531 0)"/>
      <use xlink:href="#DejaVuSans-75" transform="translate(109.673828 0)"/>
      <use xlink:href="#DejaVuSans-6c" transform="translate(173.052734 0)"/>
      <use xlink:href="#DejaVuSans-74" transform="translate(200.835938 0)"/>
      <use xlink:href="#DejaVuSans-20" transform="translate(240.044922 0)"/>
      <use xlink:href="#DejaVuSans-63" transform="translate(271.832031 0)"/>
      <use xlink:href="#DejaVuSans-75" transform="translate(326.8125 0)"/>
      <use xlink:href="#DejaVuSans-72" transform="translate(390.191406 0)"/>
      <use xlink:href="#DejaVuSans-72" transform="translate(429.554688 0)"/>
      <use xlink:href="#DejaVuSans-65" transform="translate(468.417969 0)"/>
      <use xlink:href="#DejaVuSans-6e" transform="translate(529.941406 0)"/>
      <use xlink:href="#DejaVuSans-74" transform="translate(593.320312 0)"/>
      <use xlink:href="#DejaVuSans-20" transform="translate(632.529297 0)"/>
      <use xlink:href="#DejaVuSans-28" transform="translate(664.316406 0)"/>
      <use xlink:href="#DejaVuSans-6b" transform="translate(703.330078 0)"/>
      <use xlink:href="#DejaVuSans-41" transform="translate(761.240234 0)"/>
      <use xlink:href="#DejaVuSans-29" transform="translate(829.648438 0)"/>
     </g>
    </g>
   </g>
   <g id="line2d_30">
    <path d="M 330.284848 218.312983 
L 331.512823 184.393417 
L 332.740797 155.762584 
L 333.968772 131.595863 
L 335.196746 111.197213 
L 336.42472 93.979117 
L 337.652695 79.445662 
L 338.880669 67.17826 
L 340.108643 56.82359 
L 341.336618 48.083417 
L 342.564592 40.706011 
L 343.792566 34.478888 
L 344.774946 30.203892 
L 346.00292 57.129317 
L 347.230895 79.856535 
L 348.458869 99.04013 
L 349.686843 115.232622 
L 350.914818 128.900385 
L 352.142792 140.437073 
L 353.370766 150.174963 
L 354.598741 158.394523 
L 355.826715 165.332491 
L 357.05469 171.188692 
L 358.282664 176.131796 
L 359.510638 180.304172 
L 360.738613 183.825992 
L 362.212182 187.335119 
L 363.685751 190.198371 
L 365.15932 192.534625 
L 366.63289 194.440878 
L 368.106459 195.996274 
L 369.580028 197.26539 
L 371.299192 198.453939 
L 373.263951 199.508075 
L 374.246331 199.937146 
L 376.456684 202.496753 
L 378.667038 204.699828 
L 380.877392 206.596032 
L 383.333341 208.394798 
L 385.78929 209.917421 
L 388.490833 211.323756 
L 391.437972 212.590688 
L 394.630705 213.705401 
L 398.069033 214.664287 
L 401.998551 215.518343 
L 406.419259 216.242663 
L 411.576751 216.854053 
L 417.716623 217.351197 
L 425.575659 217.748755 
L 435.890644 218.032796 
L 451.363121 218.214935 
L 481.0801 218.299933 
L 526.515152 218.312385 
L 526.515152 218.312385 
" clip-path="url(#p0be85b5c20)" style="fill: none; stroke: #d94801; stroke-width: 1.5; stroke-linecap: square"/>
   </g>
   <g id="line2d_31">
    <path d="M 337.652695 227.718438 
L 337.652695 20.798437 
" clip-path="url(#p0be85b5c20)" style="fill: none; stroke-dasharray: 1,1.65; stroke-dashoffset: 0; stroke: #808080"/>
   </g>
   <g id="line2d_32">
    <path d="M 374.491926 227.718438 
L 374.491926 20.798437 
" clip-path="url(#p0be85b5c20)" style="fill: none; stroke-dasharray: 3.7,1.6; stroke-dashoffset: 0; stroke: #808080"/>
   </g>
   <g id="patch_15">
    <path d="M 320.473333 227.718438 
L 320.473333 20.798438 
" style="fill: none; stroke: #000000; stroke-width: 0.8; stroke-linejoin: miter; stroke-linecap: square"/>
   </g>
   <g id="patch_16">
    <path d="M 536.326667 227.718438 
L 536.326667 20.798438 
" style="fill: none; stroke: #000000; stroke-width: 0.8; stroke-linejoin: miter; stroke-linecap: square"/>
   </g>
   <g id="patch_17">
    <path d="M 320.473333 227.718438 
L 536.326667 227.718438 
" style="fill: none; stroke: #000000; stroke-width: 0.8; stroke-linejoin: miter; stroke-linecap: square"/>
   </g>
   <g id="patch_18">
    <path d="M 320.473333 20.798437 
L 536.326667 20.798437 
" style="fill: none; stroke: #000000; stroke-width: 0.8; stroke-linejoin: miter; stroke-linecap: square"/>
   </g>
   <g id="text_25">
    <!-- b  Backbone fault response -->
    <g transform="translate(320.473333 14.798437) scale(0.1 -0.1)">
     <defs>
      <path id="DejaVuSans-Bold-62" d="M 2400 722 
Q 2759 722 2948 984 
Q 3138 1247 3138 1747 
Q 3138 2247 2948 2509 
Q 2759 2772 2400 2772 
Q 2041 2772 1848 2508 
Q 1656 2244 1656 1747 
Q 1656 1250 1848 986 
Q 2041 722 2400 722 
z
M 1656 2988 
Q 1888 3294 2169 3439 
Q 2450 3584 2816 3584 
Q 3463 3584 3878 3070 
Q 4294 2556 4294 1747 
Q 4294 938 3878 423 
Q 3463 -91 2816 -91 
Q 2450 -91 2169 54 
Q 1888 200 1656 506 
L 1656 0 
L 538 0 
L 538 4863 
L 1656 4863 
L 1656 2988 
z
" transform="scale(0.015625)"/>
      <path id="DejaVuSans-Bold-42" d="M 2456 2859 
Q 2741 2859 2887 2984 
Q 3034 3109 3034 3353 
Q 3034 3594 2887 3720 
Q 2741 3847 2456 3847 
L 1791 3847 
L 1791 2859 
L 2456 2859 
z
M 2497 819 
Q 2859 819 3042 972 
Q 3225 1125 3225 1434 
Q 3225 1738 3044 1889 
Q 2863 2041 2497 2041 
L 1791 2041 
L 1791 819 
L 2497 819 
z
M 3616 2497 
Q 4003 2384 4215 2081 
Q 4428 1778 4428 1338 
Q 4428 663 3972 331 
Q 3516 0 2584 0 
L 588 0 
L 588 4666 
L 2394 4666 
Q 3366 4666 3802 4372 
Q 4238 4078 4238 3431 
Q 4238 3091 4078 2852 
Q 3919 2613 3616 2497 
z
" transform="scale(0.015625)"/>
      <path id="DejaVuSans-Bold-6b" d="M 538 4863 
L 1656 4863 
L 1656 2216 
L 2944 3500 
L 4244 3500 
L 2534 1894 
L 4378 0 
L 3022 0 
L 1656 1459 
L 1656 0 
L 538 0 
L 538 4863 
z
" transform="scale(0.015625)"/>
      <path id="DejaVuSans-Bold-66" d="M 2841 4863 
L 2841 4128 
L 2222 4128 
Q 1984 4128 1890 4042 
Q 1797 3956 1797 3744 
L 1797 3500 
L 2753 3500 
L 2753 2700 
L 1797 2700 
L 1797 0 
L 678 0 
L 678 2700 
L 122 2700 
L 122 3500 
L 678 3500 
L 678 3744 
Q 678 4316 997 4589 
Q 1316 4863 1984 4863 
L 2841 4863 
z
" transform="scale(0.015625)"/>
      <path id="DejaVuSans-Bold-75" d="M 500 1363 
L 500 3500 
L 1625 3500 
L 1625 3150 
Q 1625 2866 1622 2436 
Q 1619 2006 1619 1863 
Q 1619 1441 1641 1255 
Q 1663 1069 1716 984 
Q 1784 875 1895 815 
Q 2006 756 2150 756 
Q 2500 756 2700 1025 
Q 2900 1294 2900 1772 
L 2900 3500 
L 4019 3500 
L 4019 0 
L 2900 0 
L 2900 506 
Q 2647 200 2364 54 
Q 2081 -91 1741 -91 
Q 1134 -91 817 281 
Q 500 653 500 1363 
z
" transform="scale(0.015625)"/>
      <path id="DejaVuSans-Bold-6c" d="M 538 4863 
L 1656 4863 
L 1656 0 
L 538 0 
L 538 4863 
z
" transform="scale(0.015625)"/>
      <path id="DejaVuSans-Bold-70" d="M 1656 506 
L 1656 -1331 
L 538 -1331 
L 538 3500 
L 1656 3500 
L 1656 2988 
Q 1888 3294 2169 3439 
Q 2450 3584 2816 3584 
Q 3463 3584 3878 3070 
Q 4294 2556 4294 1747 
Q 4294 938 3878 423 
Q 3463 -91 2816 -91 
Q 2450 -91 2169 54 
Q 1888 200 1656 506 
z
M 2400 2772 
Q 2041 2772 1848 2508 
Q 1656 2244 1656 1747 
Q 1656 1250 1848 986 
Q 2041 722 2400 722 
Q 2759 722 2948 984 
Q 3138 1247 3138 1747 
Q 3138 2247 2948 2509 
Q 2759 2772 2400 2772 
z
" transform="scale(0.015625)"/>
     </defs>
     <use xlink:href="#DejaVuSans-Bold-62"/>
     <use xlink:href="#DejaVuSans-Bold-20" transform="translate(71.582031 0)"/>
     <use xlink:href="#DejaVuSans-Bold-20" transform="translate(106.396484 0)"/>
     <use xlink:href="#DejaVuSans-Bold-42" transform="translate(141.210938 0)"/>
     <use xlink:href="#DejaVuSans-Bold-61" transform="translate(217.431641 0)"/>
     <use xlink:href="#DejaVuSans-Bold-63" transform="translate(284.912109 0)"/>
     <use xlink:href="#DejaVuSans-Bold-6b" transform="translate(344.189453 0)"/>
     <use xlink:href="#DejaVuSans-Bold-62" transform="translate(410.693359 0)"/>
     <use xlink:href="#DejaVuSans-Bold-6f" transform="translate(482.275391 0)"/>
     <use xlink:href="#DejaVuSans-Bold-6e" transform="translate(550.976562 0)"/>
     <use xlink:href="#DejaVuSans-Bold-65" transform="translate(622.167969 0)"/>
     <use xlink:href="#DejaVuSans-Bold-20" transform="translate(689.990234 0)"/>
     <use xlink:href="#DejaVuSans-Bold-66" transform="translate(724.804688 0)"/>
     <use xlink:href="#DejaVuSans-Bold-61" transform="translate(768.310547 0)"/>
     <use xlink:href="#DejaVuSans-Bold-75" transform="translate(835.791016 0)"/>
     <use xlink:href="#DejaVuSans-Bold-6c" transform="translate(906.982422 0)"/>
     <use xlink:href="#DejaVuSans-Bold-74" transform="translate(941.259766 0)"/>
     <use xlink:href="#DejaVuSans-Bold-20" transform="translate(989.0625 0)"/>
     <use xlink:href="#DejaVuSans-Bold-72" transform="translate(1023.876953 0)"/>
     <use xlink:href="#DejaVuSans-Bold-65" transform="translate(1073.193359 0)"/>
     <use xlink:href="#DejaVuSans-Bold-73" transform="translate(1141.015625 0)"/>
     <use xlink:href="#DejaVuSans-Bold-70" transform="translate(1200.537109 0)"/>
     <use xlink:href="#DejaVuSans-Bold-6f" transform="translate(1272.119141 0)"/>
     <use xlink:href="#DejaVuSans-Bold-6e" transform="translate(1340.820312 0)"/>
     <use xlink:href="#DejaVuSans-Bold-73" transform="translate(1412.011719 0)"/>
     <use xlink:href="#DejaVuSans-Bold-65" transform="translate(1471.533203 0)"/>
    </g>
   </g>
  </g>
  <g id="axes_3">
   <g id="patch_19">
    <path d="M 633.746667 227.718438 
L 849.6 227.718438 
L 849.6 20.798437 
L 633.746667 20.798437 
z
" style="fill: #ffffff"/>
   </g>
   <g id="matplotlib.axis_3">
    <g id="xtick_6">
     <g id="line2d_33">
      <path d="M 643.558182 227.718438 
L 643.558182 20.798437 
" clip-path="url(#p5233f039e2)" style="fill: none; stroke: #b0b0b0; stroke-opacity: 0.25; stroke-width: 0.8; stroke-linecap: square"/>
     </g>
     <g id="line2d_34">
      <g>
       <use xlink:href="#m86951c83c8" x="643.558182" y="227.718438" style="stroke: #000000; stroke-width: 0.8"/>
      </g>
     </g>
     <g id="text_26">
      <!-- 0 -->
      <g transform="translate(640.376932 242.316875) scale(0.1 -0.1)">
       <use xlink:href="#DejaVuSans-30"/>
      </g>
     </g>
    </g>
    <g id="xtick_7">
     <g id="line2d_35">
      <path d="M 692.677156 227.718438 
L 692.677156 20.798437 
" clip-path="url(#p5233f039e2)" style="fill: none; stroke: #b0b0b0; stroke-opacity: 0.25; stroke-width: 0.8; stroke-linecap: square"/>
     </g>
     <g id="line2d_36">
      <g>
       <use xlink:href="#m86951c83c8" x="692.677156" y="227.718438" style="stroke: #000000; stroke-width: 0.8"/>
      </g>
     </g>
     <g id="text_27">
      <!-- 20 -->
      <g transform="translate(686.314656 242.316875) scale(0.1 -0.1)">
       <use xlink:href="#DejaVuSans-32"/>
       <use xlink:href="#DejaVuSans-30" transform="translate(63.623047 0)"/>
      </g>
     </g>
    </g>
    <g id="xtick_8">
     <g id="line2d_37">
      <path d="M 741.796131 227.718438 
L 741.796131 20.798437 
" clip-path="url(#p5233f039e2)" style="fill: none; stroke: #b0b0b0; stroke-opacity: 0.25; stroke-width: 0.8; stroke-linecap: square"/>
     </g>
     <g id="line2d_38">
      <g>
       <use xlink:href="#m86951c83c8" x="741.796131" y="227.718438" style="stroke: #000000; stroke-width: 0.8"/>
      </g>
     </g>
     <g id="text_28">
      <!-- 40 -->
      <g transform="translate(735.433631 242.316875) scale(0.1 -0.1)">
       <use xlink:href="#DejaVuSans-34"/>
       <use xlink:href="#DejaVuSans-30" transform="translate(63.623047 0)"/>
      </g>
     </g>
    </g>
    <g id="xtick_9">
     <g id="line2d_39">
      <path d="M 790.915105 227.718438 
L 790.915105 20.798437 
" clip-path="url(#p5233f039e2)" style="fill: none; stroke: #b0b0b0; stroke-opacity: 0.25; stroke-width: 0.8; stroke-linecap: square"/>
     </g>
     <g id="line2d_40">
      <g>
       <use xlink:href="#m86951c83c8" x="790.915105" y="227.718438" style="stroke: #000000; stroke-width: 0.8"/>
      </g>
     </g>
     <g id="text_29">
      <!-- 60 -->
      <g transform="translate(784.552605 242.316875) scale(0.1 -0.1)">
       <use xlink:href="#DejaVuSans-36"/>
       <use xlink:href="#DejaVuSans-30" transform="translate(63.623047 0)"/>
      </g>
     </g>
    </g>
    <g id="xtick_10">
     <g id="line2d_41">
      <path d="M 840.03408 227.718438 
L 840.03408 20.798437 
" clip-path="url(#p5233f039e2)" style="fill: none; stroke: #b0b0b0; stroke-opacity: 0.25; stroke-width: 0.8; stroke-linecap: square"/>
     </g>
     <g id="line2d_42">
      <g>
       <use xlink:href="#m86951c83c8" x="840.03408" y="227.718438" style="stroke: #000000; stroke-width: 0.8"/>
      </g>
     </g>
     <g id="text_30">
      <!-- 80 -->
      <g transform="translate(833.67158 242.316875) scale(0.1 -0.1)">
       <use xlink:href="#DejaVuSans-38"/>
       <use xlink:href="#DejaVuSans-30" transform="translate(63.623047 0)"/>
      </g>
     </g>
    </g>
    <g id="text_31">
     <!-- Time (ms) -->
     <g transform="translate(716.474115 255.995) scale(0.1 -0.1)">
      <use xlink:href="#DejaVuSans-54"/>
      <use xlink:href="#DejaVuSans-69" transform="translate(57.958984 0)"/>
      <use xlink:href="#DejaVuSans-6d" transform="translate(85.742188 0)"/>
      <use xlink:href="#DejaVuSans-65" transform="translate(183.154297 0)"/>
      <use xlink:href="#DejaVuSans-20" transform="translate(244.677734 0)"/>
      <use xlink:href="#DejaVuSans-28" transform="translate(276.464844 0)"/>
      <use xlink:href="#DejaVuSans-6d" transform="translate(315.478516 0)"/>
      <use xlink:href="#DejaVuSans-73" transform="translate(412.890625 0)"/>
      <use xlink:href="#DejaVuSans-29" transform="translate(464.990234 0)"/>
     </g>
    </g>
   </g>
   <g id="matplotlib.axis_4">
    <g id="ytick_8">
     <g id="line2d_43">
      <path d="M 633.746667 203.606981 
L 849.6 203.606981 
" clip-path="url(#p5233f039e2)" style="fill: none; stroke: #b0b0b0; stroke-opacity: 0.25; stroke-width: 0.8; stroke-linecap: square"/>
     </g>
     <g id="line2d_44">
      <g>
       <use xlink:href="#mcad8913f29" x="633.746667" y="203.606981" style="stroke: #000000; stroke-width: 0.8"/>
      </g>
     </g>
     <g id="text_32">
      <!-- 0.86 -->
      <g transform="translate(604.481042 207.4062) scale(0.1 -0.1)">
       <defs>
        <path id="DejaVuSans-2e" d="M 684 794 
L 1344 794 
L 1344 0 
L 684 0 
L 684 794 
z
" transform="scale(0.015625)"/>
       </defs>
       <use xlink:href="#DejaVuSans-30"/>
       <use xlink:href="#DejaVuSans-2e" transform="translate(63.623047 0)"/>
       <use xlink:href="#DejaVuSans-38" transform="translate(95.410156 0)"/>
       <use xlink:href="#DejaVuSans-36" transform="translate(159.033203 0)"/>
      </g>
     </g>
    </g>
    <g id="ytick_9">
     <g id="line2d_45">
      <path d="M 633.746667 178.835111 
L 849.6 178.835111 
" clip-path="url(#p5233f039e2)" style="fill: none; stroke: #b0b0b0; stroke-opacity: 0.25; stroke-width: 0.8; stroke-linecap: square"/>
     </g>
     <g id="line2d_46">
      <g>
       <use xlink:href="#mcad8913f29" x="633.746667" y="178.835111" style="stroke: #000000; stroke-width: 0.8"/>
      </g>
     </g>
     <g id="text_33">
      <!-- 0.88 -->
      <g transform="translate(604.481042 182.63433) scale(0.1 -0.1)">
       <use xlink:href="#DejaVuSans-30"/>
       <use xlink:href="#DejaVuSans-2e" transform="translate(63.623047 0)"/>
       <use xlink:href="#DejaVuSans-38" transform="translate(95.410156 0)"/>
       <use xlink:href="#DejaVuSans-38" transform="translate(159.033203 0)"/>
      </g>
     </g>
    </g>
    <g id="ytick_10">
     <g id="line2d_47">
      <path d="M 633.746667 154.063241 
L 849.6 154.063241 
" clip-path="url(#p5233f039e2)" style="fill: none; stroke: #b0b0b0; stroke-opacity: 0.25; stroke-width: 0.8; stroke-linecap: square"/>
     </g>
     <g id="line2d_48">
      <g>
       <use xlink:href="#mcad8913f29" x="633.746667" y="154.063241" style="stroke: #000000; stroke-width: 0.8"/>
      </g>
     </g>
     <g id="text_34">
      <!-- 0.90 -->
      <g transform="translate(604.481042 157.86246) scale(0.1 -0.1)">
       <defs>
        <path id="DejaVuSans-39" d="M 703 97 
L 703 672 
Q 941 559 1184 500 
Q 1428 441 1663 441 
Q 2288 441 2617 861 
Q 2947 1281 2994 2138 
Q 2813 1869 2534 1725 
Q 2256 1581 1919 1581 
Q 1219 1581 811 2004 
Q 403 2428 403 3163 
Q 403 3881 828 4315 
Q 1253 4750 1959 4750 
Q 2769 4750 3195 4129 
Q 3622 3509 3622 2328 
Q 3622 1225 3098 567 
Q 2575 -91 1691 -91 
Q 1453 -91 1209 -44 
Q 966 3 703 97 
z
M 1959 2075 
Q 2384 2075 2632 2365 
Q 2881 2656 2881 3163 
Q 2881 3666 2632 3958 
Q 2384 4250 1959 4250 
Q 1534 4250 1286 3958 
Q 1038 3666 1038 3163 
Q 1038 2656 1286 2365 
Q 1534 2075 1959 2075 
z
" transform="scale(0.015625)"/>
       </defs>
       <use xlink:href="#DejaVuSans-30"/>
       <use xlink:href="#DejaVuSans-2e" transform="translate(63.623047 0)"/>
       <use xlink:href="#DejaVuSans-39" transform="translate(95.410156 0)"/>
       <use xlink:href="#DejaVuSans-30" transform="translate(159.033203 0)"/>
      </g>
     </g>
    </g>
    <g id="ytick_11">
     <g id="line2d_49">
      <path d="M 633.746667 129.291371 
L 849.6 129.291371 
" clip-path="url(#p5233f039e2)" style="fill: none; stroke: #b0b0b0; stroke-opacity: 0.25; stroke-width: 0.8; stroke-linecap: square"/>
     </g>
     <g id="line2d_50">
      <g>
       <use xlink:href="#mcad8913f29" x="633.746667" y="129.291371" style="stroke: #000000; stroke-width: 0.8"/>
      </g>
     </g>
     <g id="text_35">
      <!-- 0.92 -->
      <g transform="translate(604.481042 133.09059) scale(0.1 -0.1)">
       <use xlink:href="#DejaVuSans-30"/>
       <use xlink:href="#DejaVuSans-2e" transform="translate(63.623047 0)"/>
       <use xlink:href="#DejaVuSans-39" transform="translate(95.410156 0)"/>
       <use xlink:href="#DejaVuSans-32" transform="translate(159.033203 0)"/>
      </g>
     </g>
    </g>
    <g id="ytick_12">
     <g id="line2d_51">
      <path d="M 633.746667 104.519502 
L 849.6 104.519502 
" clip-path="url(#p5233f039e2)" style="fill: none; stroke: #b0b0b0; stroke-opacity: 0.25; stroke-width: 0.8; stroke-linecap: square"/>
     </g>
     <g id="line2d_52">
      <g>
       <use xlink:href="#mcad8913f29" x="633.746667" y="104.519502" style="stroke: #000000; stroke-width: 0.8"/>
      </g>
     </g>
     <g id="text_36">
      <!-- 0.94 -->
      <g transform="translate(604.481042 108.31872) scale(0.1 -0.1)">
       <use xlink:href="#DejaVuSans-30"/>
       <use xlink:href="#DejaVuSans-2e" transform="translate(63.623047 0)"/>
       <use xlink:href="#DejaVuSans-39" transform="translate(95.410156 0)"/>
       <use xlink:href="#DejaVuSans-34" transform="translate(159.033203 0)"/>
      </g>
     </g>
    </g>
    <g id="ytick_13">
     <g id="line2d_53">
      <path d="M 633.746667 79.747632 
L 849.6 79.747632 
" clip-path="url(#p5233f039e2)" style="fill: none; stroke: #b0b0b0; stroke-opacity: 0.25; stroke-width: 0.8; stroke-linecap: square"/>
     </g>
     <g id="line2d_54">
      <g>
       <use xlink:href="#mcad8913f29" x="633.746667" y="79.747632" style="stroke: #000000; stroke-width: 0.8"/>
      </g>
     </g>
     <g id="text_37">
      <!-- 0.96 -->
      <g transform="translate(604.481042 83.54685) scale(0.1 -0.1)">
       <use xlink:href="#DejaVuSans-30"/>
       <use xlink:href="#DejaVuSans-2e" transform="translate(63.623047 0)"/>
       <use xlink:href="#DejaVuSans-39" transform="translate(95.410156 0)"/>
       <use xlink:href="#DejaVuSans-36" transform="translate(159.033203 0)"/>
      </g>
     </g>
    </g>
    <g id="ytick_14">
     <g id="line2d_55">
      <path d="M 633.746667 54.975762 
L 849.6 54.975762 
" clip-path="url(#p5233f039e2)" style="fill: none; stroke: #b0b0b0; stroke-opacity: 0.25; stroke-width: 0.8; stroke-linecap: square"/>
     </g>
     <g id="line2d_56">
      <g>
       <use xlink:href="#mcad8913f29" x="633.746667" y="54.975762" style="stroke: #000000; stroke-width: 0.8"/>
      </g>
     </g>
     <g id="text_38">
      <!-- 0.98 -->
      <g transform="translate(604.481042 58.774981) scale(0.1 -0.1)">
       <use xlink:href="#DejaVuSans-30"/>
       <use xlink:href="#DejaVuSans-2e" transform="translate(63.623047 0)"/>
       <use xlink:href="#DejaVuSans-39" transform="translate(95.410156 0)"/>
       <use xlink:href="#DejaVuSans-38" transform="translate(159.033203 0)"/>
      </g>
     </g>
    </g>
    <g id="ytick_15">
     <g id="line2d_57">
      <path d="M 633.746667 30.203892 
L 849.6 30.203892 
" clip-path="url(#p5233f039e2)" style="fill: none; stroke: #b0b0b0; stroke-opacity: 0.25; stroke-width: 0.8; stroke-linecap: square"/>
     </g>
     <g id="line2d_58">
      <g>
       <use xlink:href="#mcad8913f29" x="633.746667" y="30.203892" style="stroke: #000000; stroke-width: 0.8"/>
      </g>
     </g>
     <g id="text_39">
      <!-- 1.00 -->
      <g transform="translate(604.481042 34.003111) scale(0.1 -0.1)">
       <use xlink:href="#DejaVuSans-31"/>
       <use xlink:href="#DejaVuSans-2e" transform="translate(63.623047 0)"/>
       <use xlink:href="#DejaVuSans-30" transform="translate(95.410156 0)"/>
       <use xlink:href="#DejaVuSans-30" transform="translate(159.033203 0)"/>
      </g>
     </g>
    </g>
    <g id="text_40">
     <!-- Campus DC voltage (pu) -->
     <g transform="translate(598.401354 185.667813) rotate(-90) scale(0.1 -0.1)">
      <defs>
       <path id="DejaVuSans-44" d="M 1259 4147 
L 1259 519 
L 2022 519 
Q 2988 519 3436 956 
Q 3884 1394 3884 2338 
Q 3884 3275 3436 3711 
Q 2988 4147 2022 4147 
L 1259 4147 
z
M 628 4666 
L 1925 4666 
Q 3281 4666 3915 4102 
Q 4550 3538 4550 2338 
Q 4550 1131 3912 565 
Q 3275 0 1925 0 
L 628 0 
L 628 4666 
z
" transform="scale(0.015625)"/>
       <path id="DejaVuSans-76" d="M 191 3500 
L 800 3500 
L 1894 563 
L 2988 3500 
L 3597 3500 
L 2284 0 
L 1503 0 
L 191 3500 
z
" transform="scale(0.015625)"/>
      </defs>
      <use xlink:href="#DejaVuSans-43"/>
      <use xlink:href="#DejaVuSans-61" transform="translate(69.824219 0)"/>
      <use xlink:href="#DejaVuSans-6d" transform="translate(131.103516 0)"/>
      <use xlink:href="#DejaVuSans-70" transform="translate(228.515625 0)"/>
      <use xlink:href="#DejaVuSans-75" transform="translate(291.992188 0)"/>
      <use xlink:href="#DejaVuSans-73" transform="translate(355.371094 0)"/>
      <use xlink:href="#DejaVuSans-20" transform="translate(407.470703 0)"/>
      <use xlink:href="#DejaVuSans-44" transform="translate(439.257812 0)"/>
      <use xlink:href="#DejaVuSans-43" transform="translate(516.259766 0)"/>
      <use xlink:href="#DejaVuSans-20" transform="translate(586.083984 0)"/>
      <use xlink:href="#DejaVuSans-76" transform="translate(617.871094 0)"/>
      <use xlink:href="#DejaVuSans-6f" transform="translate(677.050781 0)"/>
      <use xlink:href="#DejaVuSans-6c" transform="translate(738.232422 0)"/>
      <use xlink:href="#DejaVuSans-74" transform="translate(766.015625 0)"/>
      <use xlink:href="#DejaVuSans-61" transform="translate(805.224609 0)"/>
      <use xlink:href="#DejaVuSans-67" transform="translate(866.503906 0)"/>
      <use xlink:href="#DejaVuSans-65" transform="translate(929.980469 0)"/>
      <use xlink:href="#DejaVuSans-20" transform="translate(991.503906 0)"/>
      <use xlink:href="#DejaVuSans-28" transform="translate(1023.291016 0)"/>
      <use xlink:href="#DejaVuSans-70" transform="translate(1062.304688 0)"/>
      <use xlink:href="#DejaVuSans-75" transform="translate(1125.78125 0)"/>
      <use xlink:href="#DejaVuSans-29" transform="translate(1189.160156 0)"/>
     </g>
    </g>
   </g>
   <g id="line2d_59">
    <path d="M 643.558182 30.203892 
L 650.926028 30.203892 
L 652.645192 56.093818 
L 654.364356 78.601439 
L 656.08352 98.168624 
L 657.802684 115.179518 
L 659.521849 129.968079 
L 661.241013 142.824636 
L 662.960177 154.001589 
L 664.679341 163.718366 
L 666.398505 172.165726 
L 668.117669 179.509508 
L 669.836833 185.893885 
L 671.555997 191.444196 
L 673.275161 196.269404 
L 674.994325 200.464239 
L 676.71349 204.111053 
L 678.432654 207.281441 
L 680.151818 210.037644 
L 682.116577 212.749505 
L 684.081336 215.060401 
L 686.046095 217.029617 
L 687.519664 218.312983 
L 687.765259 104.519502 
L 691.203587 98.958464 
L 694.641915 93.813559 
L 698.080243 89.053648 
L 701.518572 84.64992 
L 705.202495 80.296656 
L 708.886418 76.29146 
L 712.570341 72.606502 
L 716.499859 69.000042 
L 720.429377 65.700322 
L 724.358895 62.681252 
L 728.534008 59.754337 
L 732.70912 57.0912 
L 737.129828 54.532534 
L 741.796131 52.0954 
L 746.708028 49.793274 
L 751.619926 47.733241 
L 756.777418 45.80294 
L 762.4261 43.931818 
L 768.320377 42.218206 
L 774.705844 40.602317 
L 781.336905 39.153899 
L 788.459157 37.822116 
L 796.318192 36.581324 
L 804.914013 35.45438 
L 814.492213 34.431576 
L 825.052793 33.533203 
L 837.086941 32.739778 
L 839.788485 32.589448 
L 839.788485 32.589448 
" clip-path="url(#p5233f039e2)" style="fill: none; stroke: #e6550d; stroke-width: 1.5; stroke-linecap: square"/>
   </g>
   <g id="line2d_60">
    <path d="M 643.558182 30.203892 
L 650.926028 30.203892 
L 651.171623 61.168729 
L 687.765259 61.168729 
L 693.413941 58.44708 
L 699.308218 55.861812 
L 705.44809 53.420138 
L 711.833556 51.12696 
L 718.464618 48.985015 
L 725.341274 46.995047 
L 732.70912 45.096311 
L 740.568156 43.307037 
L 748.918382 41.640876 
L 757.759797 40.107036 
L 767.337997 38.676618 
L 777.652982 37.366343 
L 788.950346 36.162592 
L 801.23009 35.082463 
L 814.737808 34.119037 
L 829.96469 33.259114 
L 839.788485 32.807381 
L 839.788485 32.807381 
" clip-path="url(#p5233f039e2)" style="fill: none; stroke: #31a354; stroke-width: 1.5; stroke-linecap: square"/>
   </g>
   <g id="line2d_61">
    <path d="M 643.558182 30.203892 
L 650.926028 30.203892 
L 651.171623 54.975762 
L 688.010854 54.876872 
L 694.150726 52.528928 
L 700.536192 50.323779 
L 707.167254 48.264058 
L 714.289505 46.286022 
L 721.902946 44.410522 
L 729.761982 42.703643 
L 738.112208 41.114208 
L 747.199218 39.613288 
L 757.023013 38.22205 
L 767.583592 36.955014 
L 779.126551 35.797971 
L 791.897485 34.747442 
L 806.141987 33.806683 
L 822.105654 32.981829 
L 839.788485 32.286683 
L 839.788485 32.286683 
" clip-path="url(#p5233f039e2)" style="fill: none; stroke: #756bb1; stroke-width: 1.5; stroke-linecap: square"/>
   </g>
   <g id="patch_20">
    <path d="M 633.746667 227.718437 
L 633.746667 20.798437 
" style="fill: none; stroke: #000000; stroke-width: 0.8; stroke-linejoin: miter; stroke-linecap: square"/>
   </g>
   <g id="patch_21">
    <path d="M 849.6 227.718437 
L 849.6 20.798437 
" style="fill: none; stroke: #000000; stroke-width: 0.8; stroke-linejoin: miter; stroke-linecap: square"/>
   </g>
   <g id="patch_22">
    <path d="M 633.746667 227.718438 
L 849.6 227.718438 
" style="fill: none; stroke: #000000; stroke-width: 0.8; stroke-linejoin: miter; stroke-linecap: square"/>
   </g>
   <g id="patch_23">
    <path d="M 633.746667 20.798437 
L 849.6 20.798437 
" style="fill: none; stroke: #000000; stroke-width: 0.8; stroke-linejoin: miter; stroke-linecap: square"/>
   </g>
   <g id="text_41">
    <!-- c  Campus ride-through proxy -->
    <g transform="translate(633.746667 14.798437) scale(0.1 -0.1)">
     <defs>
      <path id="DejaVuSans-Bold-6d" d="M 3781 2919 
Q 3994 3244 4286 3414 
Q 4578 3584 4928 3584 
Q 5531 3584 5847 3212 
Q 6163 2841 6163 2131 
L 6163 0 
L 5038 0 
L 5038 1825 
Q 5041 1866 5042 1909 
Q 5044 1953 5044 2034 
Q 5044 2406 4934 2573 
Q 4825 2741 4581 2741 
Q 4263 2741 4089 2478 
Q 3916 2216 3909 1719 
L 3909 0 
L 2784 0 
L 2784 1825 
Q 2784 2406 2684 2573 
Q 2584 2741 2328 2741 
Q 2006 2741 1831 2477 
Q 1656 2213 1656 1722 
L 1656 0 
L 531 0 
L 531 3500 
L 1656 3500 
L 1656 2988 
Q 1863 3284 2130 3434 
Q 2397 3584 2719 3584 
Q 3081 3584 3359 3409 
Q 3638 3234 3781 2919 
z
" transform="scale(0.015625)"/>
      <path id="DejaVuSans-Bold-64" d="M 2919 2988 
L 2919 4863 
L 4044 4863 
L 4044 0 
L 2919 0 
L 2919 506 
Q 2688 197 2409 53 
Q 2131 -91 1766 -91 
Q 1119 -91 703 423 
Q 288 938 288 1747 
Q 288 2556 703 3070 
Q 1119 3584 1766 3584 
Q 2128 3584 2408 3439 
Q 2688 3294 2919 2988 
z
M 2181 722 
Q 2541 722 2730 984 
Q 2919 1247 2919 1747 
Q 2919 2247 2730 2509 
Q 2541 2772 2181 2772 
Q 1825 2772 1636 2509 
Q 1447 2247 1447 1747 
Q 1447 1247 1636 984 
Q 1825 722 2181 722 
z
" transform="scale(0.015625)"/>
      <path id="DejaVuSans-Bold-2d" d="M 347 2297 
L 2309 2297 
L 2309 1388 
L 347 1388 
L 347 2297 
z
" transform="scale(0.015625)"/>
      <path id="DejaVuSans-Bold-68" d="M 4056 2131 
L 4056 0 
L 2931 0 
L 2931 347 
L 2931 1625 
Q 2931 2084 2911 2256 
Q 2891 2428 2841 2509 
Q 2775 2619 2662 2680 
Q 2550 2741 2406 2741 
Q 2056 2741 1856 2470 
Q 1656 2200 1656 1722 
L 1656 0 
L 538 0 
L 538 4863 
L 1656 4863 
L 1656 2988 
Q 1909 3294 2193 3439 
Q 2478 3584 2822 3584 
Q 3428 3584 3742 3212 
Q 4056 2841 4056 2131 
z
" transform="scale(0.015625)"/>
      <path id="DejaVuSans-Bold-67" d="M 2919 594 
Q 2688 288 2409 144 
Q 2131 0 1766 0 
Q 1125 0 706 504 
Q 288 1009 288 1791 
Q 288 2575 706 3076 
Q 1125 3578 1766 3578 
Q 2131 3578 2409 3434 
Q 2688 3291 2919 2981 
L 2919 3500 
L 4044 3500 
L 4044 353 
Q 4044 -491 3511 -936 
Q 2978 -1381 1966 -1381 
Q 1638 -1381 1331 -1331 
Q 1025 -1281 716 -1178 
L 716 -306 
Q 1009 -475 1290 -558 
Q 1572 -641 1856 -641 
Q 2406 -641 2662 -400 
Q 2919 -159 2919 353 
L 2919 594 
z
M 2181 2772 
Q 1834 2772 1640 2515 
Q 1447 2259 1447 1791 
Q 1447 1309 1634 1061 
Q 1822 813 2181 813 
Q 2531 813 2725 1069 
Q 2919 1325 2919 1791 
Q 2919 2259 2725 2515 
Q 2531 2772 2181 2772 
z
" transform="scale(0.015625)"/>
      <path id="DejaVuSans-Bold-78" d="M 1422 1791 
L 159 3500 
L 1344 3500 
L 2059 2463 
L 2784 3500 
L 3969 3500 
L 2706 1797 
L 4031 0 
L 2847 0 
L 2059 1106 
L 1281 0 
L 97 0 
L 1422 1791 
z
" transform="scale(0.015625)"/>
      <path id="DejaVuSans-Bold-79" d="M 78 3500 
L 1197 3500 
L 2138 1125 
L 2938 3500 
L 4056 3500 
L 2584 -331 
Q 2363 -916 2067 -1148 
Q 1772 -1381 1288 -1381 
L 641 -1381 
L 641 -647 
L 991 -647 
Q 1275 -647 1404 -556 
Q 1534 -466 1606 -231 
L 1638 -134 
L 78 3500 
z
" transform="scale(0.015625)"/>
     </defs>
     <use xlink:href="#DejaVuSans-Bold-63"/>
     <use xlink:href="#DejaVuSans-Bold-20" transform="translate(59.277344 0)"/>
     <use xlink:href="#DejaVuSans-Bold-20" transform="translate(94.091797 0)"/>
     <use xlink:href="#DejaVuSans-Bold-43" transform="translate(128.90625 0)"/>
     <use xlink:href="#DejaVuSans-Bold-61" transform="translate(202.294922 0)"/>
     <use xlink:href="#DejaVuSans-Bold-6d" transform="translate(269.775391 0)"/>
     <use xlink:href="#DejaVuSans-Bold-70" transform="translate(373.974609 0)"/>
     <use xlink:href="#DejaVuSans-Bold-75" transform="translate(445.556641 0)"/>
     <use xlink:href="#DejaVuSans-Bold-73" transform="translate(516.748047 0)"/>
     <use xlink:href="#DejaVuSans-Bold-20" transform="translate(576.269531 0)"/>
     <use xlink:href="#DejaVuSans-Bold-72" transform="translate(611.083984 0)"/>
     <use xlink:href="#DejaVuSans-Bold-69" transform="translate(660.400391 0)"/>
     <use xlink:href="#DejaVuSans-Bold-64" transform="translate(694.677734 0)"/>
     <use xlink:href="#DejaVuSans-Bold-65" transform="translate(766.259766 0)"/>
     <use xlink:href="#DejaVuSans-Bold-2d" transform="translate(834.082031 0)"/>
     <use xlink:href="#DejaVuSans-Bold-74" transform="translate(875.585938 0)"/>
     <use xlink:href="#DejaVuSans-Bold-68" transform="translate(923.388672 0)"/>
     <use xlink:href="#DejaVuSans-Bold-72" transform="translate(994.580078 0)"/>
     <use xlink:href="#DejaVuSans-Bold-6f" transform="translate(1043.896484 0)"/>
     <use xlink:href="#DejaVuSans-Bold-75" transform="translate(1112.597656 0)"/>
     <use xlink:href="#DejaVuSans-Bold-67" transform="translate(1183.789062 0)"/>
     <use xlink:href="#DejaVuSans-Bold-68" transform="translate(1255.371094 0)"/>
     <use xlink:href="#DejaVuSans-Bold-20" transform="translate(1326.5625 0)"/>
     <use xlink:href="#DejaVuSans-Bold-70" transform="translate(1361.376953 0)"/>
     <use xlink:href="#DejaVuSans-Bold-72" transform="translate(1432.958984 0)"/>
     <use xlink:href="#DejaVuSans-Bold-6f" transform="translate(1482.275391 0)"/>
     <use xlink:href="#DejaVuSans-Bold-78" transform="translate(1550.976562 0)"/>
     <use xlink:href="#DejaVuSans-Bold-79" transform="translate(1615.478516 0)"/>
    </g>
   </g>
   <g id="legend_1">
    <g id="line2d_62">
     <path d="M 753.365313 196.963281 
L 760.365313 196.963281 
L 767.365313 196.963281 
" style="fill: none; stroke: #e6550d; stroke-width: 1.5; stroke-linecap: square"/>
    </g>
    <g id="text_42">
     <!-- near/faulted section -->
     <g transform="translate(772.965313 199.413281) scale(0.07 -0.07)">
      <defs>
       <path id="DejaVuSans-2f" d="M 1625 4666 
L 2156 4666 
L 531 -594 
L 0 -594 
L 1625 4666 
z
" transform="scale(0.015625)"/>
      </defs>
      <use xlink:href="#DejaVuSans-6e"/>
      <use xlink:href="#DejaVuSans-65" transform="translate(63.378906 0)"/>
      <use xlink:href="#DejaVuSans-61" transform="translate(124.902344 0)"/>
      <use xlink:href="#DejaVuSans-72" transform="translate(186.181641 0)"/>
      <use xlink:href="#DejaVuSans-2f" transform="translate(227.294922 0)"/>
      <use xlink:href="#DejaVuSans-66" transform="translate(260.986328 0)"/>
      <use xlink:href="#DejaVuSans-61" transform="translate(296.191406 0)"/>
      <use xlink:href="#DejaVuSans-75" transform="translate(357.470703 0)"/>
      <use xlink:href="#DejaVuSans-6c" transform="translate(420.849609 0)"/>
      <use xlink:href="#DejaVuSans-74" transform="translate(448.632812 0)"/>
      <use xlink:href="#DejaVuSans-65" transform="translate(487.841797 0)"/>
      <use xlink:href="#DejaVuSans-64" transform="translate(549.365234 0)"/>
      <use xlink:href="#DejaVuSans-20" transform="translate(612.841797 0)"/>
      <use xlink:href="#DejaVuSans-73" transform="translate(644.628906 0)"/>
      <use xlink:href="#DejaVuSans-65" transform="translate(696.728516 0)"/>
      <use xlink:href="#DejaVuSans-63" transform="translate(758.251953 0)"/>
      <use xlink:href="#DejaVuSans-74" transform="translate(813.232422 0)"/>
      <use xlink:href="#DejaVuSans-69" transform="translate(852.441406 0)"/>
      <use xlink:href="#DejaVuSans-6f" transform="translate(880.224609 0)"/>
      <use xlink:href="#DejaVuSans-6e" transform="translate(941.40625 0)"/>
     </g>
    </g>
    <g id="line2d_63">
     <path d="M 753.365313 207.237969 
L 760.365313 207.237969 
L 767.365313 207.237969 
" style="fill: none; stroke: #31a354; stroke-width: 1.5; stroke-linecap: square"/>
    </g>
    <g id="text_43">
     <!-- healthy campus 2 -->
     <g transform="translate(772.965313 209.687969) scale(0.07 -0.07)">
      <defs>
       <path id="DejaVuSans-68" d="M 3513 2113 
L 3513 0 
L 2938 0 
L 2938 2094 
Q 2938 2591 2744 2837 
Q 2550 3084 2163 3084 
Q 1697 3084 1428 2787 
Q 1159 2491 1159 1978 
L 1159 0 
L 581 0 
L 581 4863 
L 1159 4863 
L 1159 2956 
Q 1366 3272 1645 3428 
Q 1925 3584 2291 3584 
Q 2894 3584 3203 3211 
Q 3513 2838 3513 2113 
z
" transform="scale(0.015625)"/>
       <path id="DejaVuSans-79" d="M 2059 -325 
Q 1816 -950 1584 -1140 
Q 1353 -1331 966 -1331 
L 506 -1331 
L 506 -850 
L 844 -850 
Q 1081 -850 1212 -737 
Q 1344 -625 1503 -206 
L 1606 56 
L 191 3500 
L 800 3500 
L 1894 763 
L 2988 3500 
L 3597 3500 
L 2059 -325 
z
" transform="scale(0.015625)"/>
      </defs>
      <use xlink:href="#DejaVuSans-68"/>
      <use xlink:href="#DejaVuSans-65" transform="translate(63.378906 0)"/>
      <use xlink:href="#DejaVuSans-61" transform="translate(124.902344 0)"/>
      <use xlink:href="#DejaVuSans-6c" transform="translate(186.181641 0)"/>
      <use xlink:href="#DejaVuSans-74" transform="translate(213.964844 0)"/>
      <use xlink:href="#DejaVuSans-68" transform="translate(253.173828 0)"/>
      <use xlink:href="#DejaVuSans-79" transform="translate(316.552734 0)"/>
      <use xlink:href="#DejaVuSans-20" transform="translate(375.732422 0)"/>
      <use xlink:href="#DejaVuSans-63" transform="translate(407.519531 0)"/>
      <use xlink:href="#DejaVuSans-61" transform="translate(462.5 0)"/>
      <use xlink:href="#DejaVuSans-6d" transform="translate(523.779297 0)"/>
      <use xlink:href="#DejaVuSans-70" transform="translate(621.191406 0)"/>
      <use xlink:href="#DejaVuSans-75" transform="translate(684.667969 0)"/>
      <use xlink:href="#DejaVuSans-73" transform="translate(748.046875 0)"/>
      <use xlink:href="#DejaVuSans-20" transform="translate(800.146484 0)"/>
      <use xlink:href="#DejaVuSans-32" transform="translate(831.933594 0)"/>
     </g>
    </g>
    <g id="line2d_64">
     <path d="M 753.365313 217.512656 
L 760.365313 217.512656 
L 767.365313 217.512656 
" style="fill: none; stroke: #756bb1; stroke-width: 1.5; stroke-linecap: square"/>
    </g>
    <g id="text_44">
     <!-- healthy campus 3 -->
     <g transform="translate(772.965313 219.962656) scale(0.07 -0.07)">
      <use xlink:href="#DejaVuSans-68"/>
      <use xlink:href="#DejaVuSans-65" transform="translate(63.378906 0)"/>
      <use xlink:href="#DejaVuSans-61" transform="translate(124.902344 0)"/>
      <use xlink:href="#DejaVuSans-6c" transform="translate(186.181641 0)"/>
      <use xlink:href="#DejaVuSans-74" transform="translate(213.964844 0)"/>
      <use xlink:href="#DejaVuSans-68" transform="translate(253.173828 0)"/>
      <use xlink:href="#DejaVuSans-79" transform="translate(316.552734 0)"/>
      <use xlink:href="#DejaVuSans-20" transform="translate(375.732422 0)"/>
      <use xlink:href="#DejaVuSans-63" transform="translate(407.519531 0)"/>
      <use xlink:href="#DejaVuSans-61" transform="translate(462.5 0)"/>
      <use xlink:href="#DejaVuSans-6d" transform="translate(523.779297 0)"/>
      <use xlink:href="#DejaVuSans-70" transform="translate(621.191406 0)"/>
      <use xlink:href="#DejaVuSans-75" transform="translate(684.667969 0)"/>
      <use xlink:href="#DejaVuSans-73" transform="translate(748.046875 0)"/>
      <use xlink:href="#DejaVuSans-20" transform="translate(800.146484 0)"/>
      <use xlink:href="#DejaVuSans-33" transform="translate(831.933594 0)"/>
     </g>
    </g>
   </g>
  </g>
  <g id="axes_4">
   <g id="matplotlib.axis_5">
    <g id="ytick_16">
     <g id="line2d_65">
      <defs>
       <path id="m4a190a479b" d="M 0 0 
L 3.5 0 
" style="stroke: #000000; stroke-width: 0.8"/>
      </defs>
      <g>
       <use xlink:href="#m4a190a479b" x="536.326667" y="203.606981" style="stroke: #000000; stroke-width: 0.8"/>
      </g>
     </g>
     <g id="text_45">
      <!-- 0.86 -->
      <g transform="translate(543.326667 207.4062) scale(0.1 -0.1)">
       <use xlink:href="#DejaVuSans-30"/>
       <use xlink:href="#DejaVuSans-2e" transform="translate(63.623047 0)"/>
       <use xlink:href="#DejaVuSans-38" transform="translate(95.410156 0)"/>
       <use xlink:href="#DejaVuSans-36" transform="translate(159.033203 0)"/>
      </g>
     </g>
    </g>
    <g id="ytick_17">
     <g id="line2d_66">
      <g>
       <use xlink:href="#m4a190a479b" x="536.326667" y="178.835111" style="stroke: #000000; stroke-width: 0.8"/>
      </g>
     </g>
     <g id="text_46">
      <!-- 0.88 -->
      <g transform="translate(543.326667 182.63433) scale(0.1 -0.1)">
       <use xlink:href="#DejaVuSans-30"/>
       <use xlink:href="#DejaVuSans-2e" transform="translate(63.623047 0)"/>
       <use xlink:href="#DejaVuSans-38" transform="translate(95.410156 0)"/>
       <use xlink:href="#DejaVuSans-38" transform="translate(159.033203 0)"/>
      </g>
     </g>
    </g>
    <g id="ytick_18">
     <g id="line2d_67">
      <g>
       <use xlink:href="#m4a190a479b" x="536.326667" y="154.063241" style="stroke: #000000; stroke-width: 0.8"/>
      </g>
     </g>
     <g id="text_47">
      <!-- 0.90 -->
      <g transform="translate(543.326667 157.86246) scale(0.1 -0.1)">
       <use xlink:href="#DejaVuSans-30"/>
       <use xlink:href="#DejaVuSans-2e" transform="translate(63.623047 0)"/>
       <use xlink:href="#DejaVuSans-39" transform="translate(95.410156 0)"/>
       <use xlink:href="#DejaVuSans-30" transform="translate(159.033203 0)"/>
      </g>
     </g>
    </g>
    <g id="ytick_19">
     <g id="line2d_68">
      <g>
       <use xlink:href="#m4a190a479b" x="536.326667" y="129.291371" style="stroke: #000000; stroke-width: 0.8"/>
      </g>
     </g>
     <g id="text_48">
      <!-- 0.92 -->
      <g transform="translate(543.326667 133.09059) scale(0.1 -0.1)">
       <use xlink:href="#DejaVuSans-30"/>
       <use xlink:href="#DejaVuSans-2e" transform="translate(63.623047 0)"/>
       <use xlink:href="#DejaVuSans-39" transform="translate(95.410156 0)"/>
       <use xlink:href="#DejaVuSans-32" transform="translate(159.033203 0)"/>
      </g>
     </g>
    </g>
    <g id="ytick_20">
     <g id="line2d_69">
      <g>
       <use xlink:href="#m4a190a479b" x="536.326667" y="104.519502" style="stroke: #000000; stroke-width: 0.8"/>
      </g>
     </g>
     <g id="text_49">
      <!-- 0.94 -->
      <g transform="translate(543.326667 108.31872) scale(0.1 -0.1)">
       <use xlink:href="#DejaVuSans-30"/>
       <use xlink:href="#DejaVuSans-2e" transform="translate(63.623047 0)"/>
       <use xlink:href="#DejaVuSans-39" transform="translate(95.410156 0)"/>
       <use xlink:href="#DejaVuSans-34" transform="translate(159.033203 0)"/>
      </g>
     </g>
    </g>
    <g id="ytick_21">
     <g id="line2d_70">
      <g>
       <use xlink:href="#m4a190a479b" x="536.326667" y="79.747632" style="stroke: #000000; stroke-width: 0.8"/>
      </g>
     </g>
     <g id="text_50">
      <!-- 0.96 -->
      <g transform="translate(543.326667 83.54685) scale(0.1 -0.1)">
       <use xlink:href="#DejaVuSans-30"/>
       <use xlink:href="#DejaVuSans-2e" transform="translate(63.623047 0)"/>
       <use xlink:href="#DejaVuSans-39" transform="translate(95.410156 0)"/>
       <use xlink:href="#DejaVuSans-36" transform="translate(159.033203 0)"/>
      </g>
     </g>
    </g>
    <g id="ytick_22">
     <g id="line2d_71">
      <g>
       <use xlink:href="#m4a190a479b" x="536.326667" y="54.975762" style="stroke: #000000; stroke-width: 0.8"/>
      </g>
     </g>
     <g id="text_51">
      <!-- 0.98 -->
      <g transform="translate(543.326667 58.774981) scale(0.1 -0.1)">
       <use xlink:href="#DejaVuSans-30"/>
       <use xlink:href="#DejaVuSans-2e" transform="translate(63.623047 0)"/>
       <use xlink:href="#DejaVuSans-39" transform="translate(95.410156 0)"/>
       <use xlink:href="#DejaVuSans-38" transform="translate(159.033203 0)"/>
      </g>
     </g>
    </g>
    <g id="ytick_23">
     <g id="line2d_72">
      <g>
       <use xlink:href="#m4a190a479b" x="536.326667" y="30.203892" style="stroke: #000000; stroke-width: 0.8"/>
      </g>
     </g>
     <g id="text_52">
      <!-- 1.00 -->
      <g transform="translate(543.326667 34.003111) scale(0.1 -0.1)">
       <use xlink:href="#DejaVuSans-31"/>
       <use xlink:href="#DejaVuSans-2e" transform="translate(63.623047 0)"/>
       <use xlink:href="#DejaVuSans-30" transform="translate(95.410156 0)"/>
       <use xlink:href="#DejaVuSans-30" transform="translate(159.033203 0)"/>
      </g>
     </g>
    </g>
    <g id="text_53">
     <!-- Voltage (pu) -->
     <g transform="translate(577.190729 154.848281) rotate(-90) scale(0.1 -0.1)">
      <defs>
       <path id="DejaVuSans-56" d="M 1831 0 
L 50 4666 
L 709 4666 
L 2188 738 
L 3669 4666 
L 4325 4666 
L 2547 0 
L 1831 0 
z
" transform="scale(0.015625)"/>
      </defs>
      <use xlink:href="#DejaVuSans-56"/>
      <use xlink:href="#DejaVuSans-6f" transform="translate(60.658203 0)"/>
      <use xlink:href="#DejaVuSans-6c" transform="translate(121.839844 0)"/>
      <use xlink:href="#DejaVuSans-74" transform="translate(149.623047 0)"/>
      <use xlink:href="#DejaVuSans-61" transform="translate(188.832031 0)"/>
      <use xlink:href="#DejaVuSans-67" transform="translate(250.111328 0)"/>
      <use xlink:href="#DejaVuSans-65" transform="translate(313.587891 0)"/>
      <use xlink:href="#DejaVuSans-20" transform="translate(375.111328 0)"/>
      <use xlink:href="#DejaVuSans-28" transform="translate(406.898438 0)"/>
      <use xlink:href="#DejaVuSans-70" transform="translate(445.912109 0)"/>
      <use xlink:href="#DejaVuSans-75" transform="translate(509.388672 0)"/>
      <use xlink:href="#DejaVuSans-29" transform="translate(572.767578 0)"/>
     </g>
    </g>
   </g>
   <g id="line2d_73">
    <path d="M 330.284848 30.203892 
L 337.652695 30.203892 
L 339.371859 56.093818 
L 341.091023 78.601439 
L 342.810187 98.168624 
L 344.529351 115.179518 
L 346.248515 129.968079 
L 347.967679 142.824636 
L 349.686843 154.001589 
L 351.406008 163.718366 
L 353.125172 172.165726 
L 354.844336 179.509508 
L 356.5635 185.893885 
L 358.282664 191.444196 
L 360.001828 196.269404 
L 361.720992 200.464239 
L 363.440156 204.111053 
L 365.15932 207.281441 
L 366.878484 210.037644 
L 368.843243 212.749505 
L 370.808002 215.060401 
L 372.772761 217.029617 
L 374.246331 218.312983 
L 374.491926 104.519502 
L 377.930254 98.958464 
L 381.368582 93.813559 
L 384.80691 89.053648 
L 388.245238 84.64992 
L 391.929161 80.296656 
L 395.613085 76.29146 
L 399.297008 72.606502 
L 403.226526 69.000042 
L 407.156044 65.700322 
L 411.085561 62.681252 
L 415.260674 59.754337 
L 419.435787 57.0912 
L 423.856495 54.532534 
L 428.522797 52.0954 
L 433.434695 49.793274 
L 438.346592 47.733241 
L 443.504085 45.80294 
L 449.152767 43.931818 
L 455.047044 42.218206 
L 461.43251 40.602317 
L 468.063572 39.153899 
L 475.185823 37.822116 
L 483.044859 36.581324 
L 491.64068 35.45438 
L 501.21888 34.431576 
L 511.779459 33.533203 
L 523.813608 32.739778 
L 526.515152 32.589448 
L 526.515152 32.589448 
" clip-path="url(#p0be85b5c20)" style="fill: none; stroke: #3182bd; stroke-width: 1.3; stroke-linecap: square"/>
   </g>
   <g id="patch_24">
    <path d="M 320.473333 227.718437 
L 320.473333 20.798437 
" style="fill: none; stroke: #000000; stroke-width: 0.8; stroke-linejoin: miter; stroke-linecap: square"/>
   </g>
   <g id="patch_25">
    <path d="M 536.326667 227.718437 
L 536.326667 20.798437 
" style="fill: none; stroke: #000000; stroke-width: 0.8; stroke-linejoin: miter; stroke-linecap: square"/>
   </g>
   <g id="patch_26">
    <path d="M 320.473333 227.718438 
L 536.326667 227.718438 
" style="fill: none; stroke: #000000; stroke-width: 0.8; stroke-linejoin: miter; stroke-linecap: square"/>
   </g>
   <g id="patch_27">
    <path d="M 320.473333 20.798437 
L 536.326667 20.798437 
" style="fill: none; stroke: #000000; stroke-width: 0.8; stroke-linejoin: miter; stroke-linecap: square"/>
   </g>
  </g>
 </g>
 <defs>
  <clipPath id="pc2c79d824a">
   <rect x="7.2" y="20.798437" width="215.853333" height="206.92"/>
  </clipPath>
  <clipPath id="p0be85b5c20">
   <rect x="320.473333" y="20.798437" width="215.853333" height="206.92"/>
  </clipPath>
  <clipPath id="p5233f039e2">
   <rect x="633.746667" y="20.798437" width="215.853333" height="206.92"/>
  </clipPath>
 </defs>
</svg>
