<?xml version="1.0" encoding="utf-8" standalone="no"?>
<!DOCTYPE svg PUBLIC "-//W3C//DTD SVG 1.1//EN"
  "http://www.w3.org/Graphics/SVG/1.1/DTD/svg11.dtd">
<svg xmlns:xlink="http://www.w3.org/1999/xlink" width="856.8pt" height="265.274688pt" viewBox="0 0 856.8 265.274688" xmlns="http://www.w3.org/2000/svg" version="1.1">
 <metadata>
  <rdf:RDF xmlns:dc="http://purl.org/dc/elements/1.1/" xmlns:cc="http://creativecommons.org/ns#" xmlns:rdf="http://www.w3.org/1999/02/22-rdf-syntax-ns#">
   <cc:Work>
    <dc:type rdf:resource="http://purl.org/dc/dcmitype/StillImage"/>
    <dc:date>2026-05-27T12:41:50.019495</dc:date>
    <dc:format>image/svg+xml</dc:format>
    <dc:creator>
     <cc:Agent>
      <dc:title>Matplotlib v3.5.2, https://matplotlib.org/</dc:title>
     </cc:Agent>
    </dc:creator>
   </cc:Work>
  </rdf:RDF>
 </metadata>
 <defs>
  <style type="text/css">*{stroke-linejoin: round; stroke-linecap: butt}</style>
 </defs>
 <g id="figure_1">
  <g id="patch_1">
   <path d="M 0 265.274688 
L 856.8 265.274688 
L 856.8 0 
L 0 0 
z
" style="fill: #ffffff"/>
  </g>
  <g id="axes_1">
   <g id="patch_2">
    <path d="M 19.928267 96.841537 
L 28.989067 96.841537 
L 28.989067 89.599337 
L 19.928267 89.599337 
z
" clip-path="url(#p051b94178c)" style="fill: #eeeeee; stroke: #595959; stroke-linejoin: miter"/>
   </g>
   <g id="patch_3">
    <path d="M 20.04692 96.841537 
L 21.104013 96.841537 
L 21.104013 84.167687 
L 20.04692 84.167687 
z
" clip-path="url(#p051b94178c)" style="fill: #d8d8d8; stroke: #595959; stroke-width: 0.8; stroke-linejoin: miter"/>
   </g>
   <g id="patch_4">
    <path d="M 23.93012 96.841537 
L 24.987213 96.841537 
L 24.987213 84.167687 
L 23.93012 84.167687 
z
" clip-path="url(#p051b94178c)" style="fill: #d8d8d8; stroke: #595959; stroke-width: 0.8; stroke-linejoin: miter"/>
   </g>
   <g id="patch_5">
    <path d="M 27.81332 96.841537 
L 28.870413 96.841537 
L 28.870413 84.167687 
L 27.81332 84.167687 
z
" clip-path="url(#p051b94178c)" style="fill: #d8d8d8; stroke: #595959; stroke-width: 0.8; stroke-linejoin: miter"/>
   </g>
   <g id="patch_6">
    <path d="M 45.276933 100.773017 
L 55.4164 100.773017 
Q 56.0636 100.773017 56.0636 99.221117 
L 56.0636 87.219757 
Q 56.0636 85.667857 55.4164 85.667857 
L 45.276933 85.667857 
Q 44.629733 85.667857 44.629733 87.219757 
L 44.629733 99.221117 
Q 44.629733 100.773017 45.276933 100.773017 
z
" clip-path="url(#p051b94178c)" style="fill: #f7f7f7; stroke: #4c4c4c; stroke-linejoin: miter"/>
   </g>
   <g id="patch_7">
    <path d="M 81.196533 102.531837 
L 84.2168 102.531837 
L 84.2168 83.909037 
L 81.196533 83.909037 
z
" clip-path="url(#p051b94178c)" style="fill: #ffffff; stroke: #4c4c4c; stroke-linejoin: miter"/>
   </g>
   <g id="patch_8">
    <path d="M 115.713867 102.531837 
L 118.734133 102.531837 
L 118.734133 83.909037 
L 115.713867 83.909037 
z
" clip-path="url(#p051b94178c)" style="fill: #ffffff; stroke: #4c4c4c; stroke-linejoin: miter"/>
   </g>
   <g id="patch_9">
    <path d="M 152.388533 102.531837 
L 155.4088 102.531837 
L 155.4088 83.909037 
L 152.388533 83.909037 
z
" clip-path="url(#p051b94178c)" style="fill: #ffffff; stroke: #4c4c4c; stroke-linejoin: miter"/>
   </g>
   <g id="patch_10">
    <path d="M 90.775093 162.874883 
L 96.211573 162.874883 
Q 96.64304 162.874883 96.64304 161.840283 
L 96.64304 153.925592 
Q 96.64304 152.890992 96.211573 152.890992 
L 90.775093 152.890992 
Q 90.343627 152.890992 90.343627 153.925592 
L 90.343627 161.840283 
Q 90.343627 162.874883 90.775093 162.874883 
z
" clip-path="url(#p051b94178c)" style="fill: #f7f7f7; stroke: #4c4c4c; stroke-linejoin: miter"/>
   </g>
   <g id="patch_11">
    <path d="M 129.607093 162.874883 
L 135.043573 162.874883 
Q 135.47504 162.874883 135.47504 161.840283 
L 135.47504 153.925592 
Q 135.47504 152.890992 135.043573 152.890992 
L 129.607093 152.890992 
Q 129.175627 152.890992 129.175627 153.925592 
L 129.175627 161.840283 
Q 129.175627 162.874883 129.607093 162.874883 
z
" clip-path="url(#p051b94178c)" style="fill: #f7f7f7; stroke: #4c4c4c; stroke-linejoin: miter"/>
   </g>
   <g id="patch_12">
    <path d="M 168.439093 162.874883 
L 173.875573 162.874883 
Q 174.30704 162.874883 174.30704 161.840283 
L 174.30704 153.925592 
Q 174.30704 152.890992 173.875573 152.890992 
L 168.439093 152.890992 
Q 168.007627 152.890992 168.007627 153.925592 
L 168.007627 161.840283 
Q 168.007627 162.874883 168.439093 162.874883 
z
" clip-path="url(#p051b94178c)" style="fill: #f7f7f7; stroke: #4c4c4c; stroke-linejoin: miter"/>
   </g>
   <g id="patch_13">
    <path d="M 117.224 75.114937 
L 121.538667 95.806938 
L 118.5184 94.255037 
L 122.833067 111.325937 
L 115.066667 92.185837 
z
" clip-path="url(#p051b94178c)" style="fill: #ffd92f; stroke: #333333; stroke-linejoin: miter"/>
   </g>
   <g id="line2d_1">
    <path d="M 30.930667 93.220437 
L 42.796 93.220437 
" clip-path="url(#p051b94178c)" style="fill: none; stroke: #1f77b4; stroke-width: 2; stroke-linecap: square"/>
   </g>
   <g id="line2d_2">
    <path d="M 57.897333 93.220437 
L 184.101333 93.220437 
" clip-path="url(#p051b94178c)" style="fill: none; stroke: #d94801; stroke-width: 2.5; stroke-linecap: square"/>
   </g>
   <g id="line2d_3">
    <path d="M 93.493333 93.220437 
L 93.493333 147.536938 
" clip-path="url(#p051b94178c)" style="fill: none; stroke: #d94801; stroke-width: 1.5; stroke-linecap: square"/>
   </g>
   <g id="line2d_4">
    <path d="M 132.325333 93.220437 
L 132.325333 147.536938 
" clip-path="url(#p051b94178c)" style="fill: none; stroke: #d94801; stroke-width: 1.5; stroke-linecap: square"/>
   </g>
   <g id="line2d_5">
    <path d="M 171.157333 93.220437 
L 171.157333 147.536938 
" clip-path="url(#p051b94178c)" style="fill: none; stroke: #d94801; stroke-width: 1.5; stroke-linecap: square"/>
   </g>
   <g id="text_1">
    <!-- AC grid -->
    <g transform="translate(11.714292 106.505764)scale(0.07 -0.07)">
     <defs>
      <path id="DejaVuSans-41" d="M 2188 4044 
L 1331 1722 
L 3047 1722 
L 2188 4044 
z
M 1831 4666 
L 2547 4666 
L 4325 0 
L 3669 0 
L 3244 1197 
L 1141 1197 
L 716 0 
L 50 0 
L 1831 4666 
z
" transform="scale(0.015625)"/>
      <path id="DejaVuSans-43" d="M 4122 4306 
L 4122 3641 
Q 3803 3938 3442 4084 
Q 3081 4231 2675 4231 
Q 1875 4231 1450 3742 
Q 1025 3253 1025 2328 
Q 1025 1406 1450 917 
Q 1875 428 2675 428 
Q 3081 428 3442 575 
Q 3803 722 4122 1019 
L 4122 359 
Q 3791 134 3420 21 
Q 3050 -91 2638 -91 
Q 1578 -91 968 557 
Q 359 1206 359 2328 
Q 359 3453 968 4101 
Q 1578 4750 2638 4750 
Q 3056 4750 3426 4639 
Q 3797 4528 4122 4306 
z
" transform="scale(0.015625)"/>
      <path id="DejaVuSans-20" transform="scale(0.015625)"/>
      <path id="DejaVuSans-67" d="M 2906 1791 
Q 2906 2416 2648 2759 
Q 2391 3103 1925 3103 
Q 1463 3103 1205 2759 
Q 947 2416 947 1791 
Q 947 1169 1205 825 
Q 1463 481 1925 481 
Q 2391 481 2648 825 
Q 2906 1169 2906 1791 
z
M 3481 434 
Q 3481 -459 3084 -895 
Q 2688 -1331 1869 -1331 
Q 1566 -1331 1297 -1286 
Q 1028 -1241 775 -1147 
L 775 -588 
Q 1028 -725 1275 -790 
Q 1522 -856 1778 -856 
Q 2344 -856 2625 -561 
Q 2906 -266 2906 331 
L 2906 616 
Q 2728 306 2450 153 
Q 2172 0 1784 0 
Q 1141 0 747 490 
Q 353 981 353 1791 
Q 353 2603 747 3093 
Q 1141 3584 1784 3584 
Q 2172 3584 2450 3431 
Q 2728 3278 2906 2969 
L 2906 3500 
L 3481 3500 
L 3481 434 
z
" transform="scale(0.015625)"/>
      <path id="DejaVuSans-72" d="M 2631 2963 
Q 2534 3019 2420 3045 
Q 2306 3072 2169 3072 
Q 1681 3072 1420 2755 
Q 1159 2438 1159 1844 
L 1159 0 
L 581 0 
L 581 3500 
L 1159 3500 
L 1159 2956 
Q 1341 3275 1631 3429 
Q 1922 3584 2338 3584 
Q 2397 3584 2469 3576 
Q 2541 3569 2628 3553 
L 2631 2963 
z
" transform="scale(0.015625)"/>
      <path id="DejaVuSans-69" d="M 603 3500 
L 1178 3500 
L 1178 0 
L 603 0 
L 603 3500 
z
M 603 4863 
L 1178 4863 
L 1178 4134 
L 603 4134 
L 603 4863 
z
" transform="scale(0.015625)"/>
      <path id="DejaVuSans-64" d="M 2906 2969 
L 2906 4863 
L 3481 4863 
L 3481 0 
L 2906 0 
L 2906 525 
Q 2725 213 2448 61 
Q 2172 -91 1784 -91 
Q 1150 -91 751 415 
Q 353 922 353 1747 
Q 353 2572 751 3078 
Q 1150 3584 1784 3584 
Q 2172 3584 2448 3432 
Q 2725 3281 2906 2969 
z
M 947 1747 
Q 947 1113 1208 752 
Q 1469 391 1925 391 
Q 2381 391 2643 752 
Q 2906 1113 2906 1747 
Q 2906 2381 2643 2742 
Q 2381 3103 1925 3103 
Q 1469 3103 1208 2742 
Q 947 2381 947 1747 
z
" transform="scale(0.015625)"/>
     </defs>
     <use xlink:href="#DejaVuSans-41"/>
     <use xlink:href="#DejaVuSans-43" x="66.658203"/>
     <use xlink:href="#DejaVuSans-20" x="136.482422"/>
     <use xlink:href="#DejaVuSans-67" x="168.269531"/>
     <use xlink:href="#DejaVuSans-72" x="231.746094"/>
     <use xlink:href="#DejaVuSans-69" x="272.859375"/>
     <use xlink:href="#DejaVuSans-64" x="300.642578"/>
    </g>
   </g>
   <g id="text_2">
    <!-- AC/DC -->
    <g transform="translate(38.31651 95.152)scale(0.07 -0.07)">
     <defs>
      <path id="DejaVuSans-Bold-41" d="M 3419 850 
L 1538 850 
L 1241 0 
L 31 0 
L 1759 4666 
L 3194 4666 
L 4922 0 
L 3713 0 
L 3419 850 
z
M 1838 1716 
L 3116 1716 
L 2478 3572 
L 1838 1716 
z
" transform="scale(0.015625)"/>
      <path id="DejaVuSans-Bold-43" d="M 4288 256 
Q 3956 84 3597 -3 
Q 3238 -91 2847 -91 
Q 1681 -91 1000 561 
Q 319 1213 319 2328 
Q 319 3447 1000 4098 
Q 1681 4750 2847 4750 
Q 3238 4750 3597 4662 
Q 3956 4575 4288 4403 
L 4288 3438 
Q 3953 3666 3628 3772 
Q 3303 3878 2944 3878 
Q 2300 3878 1931 3465 
Q 1563 3053 1563 2328 
Q 1563 1606 1931 1193 
Q 2300 781 2944 781 
Q 3303 781 3628 887 
Q 3953 994 4288 1222 
L 4288 256 
z
" transform="scale(0.015625)"/>
      <path id="DejaVuSans-Bold-2f" d="M 1644 4666 
L 2338 4666 
L 691 -594 
L 0 -594 
L 1644 4666 
z
" transform="scale(0.015625)"/>
      <path id="DejaVuSans-Bold-44" d="M 1791 3756 
L 1791 909 
L 2222 909 
Q 2959 909 3348 1275 
Q 3738 1641 3738 2338 
Q 3738 3031 3350 3393 
Q 2963 3756 2222 3756 
L 1791 3756 
z
M 588 4666 
L 1856 4666 
Q 2919 4666 3439 4514 
Q 3959 4363 4331 4000 
Q 4659 3684 4818 3271 
Q 4978 2859 4978 2338 
Q 4978 1809 4818 1395 
Q 4659 981 4331 666 
Q 3956 303 3431 151 
Q 2906 0 1856 0 
L 588 0 
L 588 4666 
z
" transform="scale(0.015625)"/>
     </defs>
     <use xlink:href="#DejaVuSans-Bold-41"/>
     <use xlink:href="#DejaVuSans-Bold-43" x="77.392578"/>
     <use xlink:href="#DejaVuSans-Bold-2f" x="150.78125"/>
     <use xlink:href="#DejaVuSans-Bold-44" x="187.304688"/>
     <use xlink:href="#DejaVuSans-Bold-43" x="270.3125"/>
    </g>
   </g>
   <g id="text_3">
    <!-- DC/DC -->
    <g transform="translate(81.266302 159.8145)scale(0.07 -0.07)">
     <use xlink:href="#DejaVuSans-Bold-44"/>
     <use xlink:href="#DejaVuSans-Bold-43" x="83.007812"/>
     <use xlink:href="#DejaVuSans-Bold-2f" x="156.396484"/>
     <use xlink:href="#DejaVuSans-Bold-44" x="192.919922"/>
     <use xlink:href="#DejaVuSans-Bold-43" x="275.927734"/>
    </g>
   </g>
   <g id="text_4">
    <!-- campus 1 -->
    <g transform="translate(76.41224 181.161438)scale(0.07 -0.07)">
     <defs>
      <path id="DejaVuSans-63" d="M 3122 3366 
L 3122 2828 
Q 2878 2963 2633 3030 
Q 2388 3097 2138 3097 
Q 1578 3097 1268 2742 
Q 959 2388 959 1747 
Q 959 1106 1268 751 
Q 1578 397 2138 397 
Q 2388 397 2633 464 
Q 2878 531 3122 666 
L 3122 134 
Q 2881 22 2623 -34 
Q 2366 -91 2075 -91 
Q 1284 -91 818 406 
Q 353 903 353 1747 
Q 353 2603 823 3093 
Q 1294 3584 2113 3584 
Q 2378 3584 2631 3529 
Q 2884 3475 3122 3366 
z
" transform="scale(0.015625)"/>
      <path id="DejaVuSans-61" d="M 2194 1759 
Q 1497 1759 1228 1600 
Q 959 1441 959 1056 
Q 959 750 1161 570 
Q 1363 391 1709 391 
Q 2188 391 2477 730 
Q 2766 1069 2766 1631 
L 2766 1759 
L 2194 1759 
z
M 3341 1997 
L 3341 0 
L 2766 0 
L 2766 531 
Q 2569 213 2275 61 
Q 1981 -91 1556 -91 
Q 1019 -91 701 211 
Q 384 513 384 1019 
Q 384 1609 779 1909 
Q 1175 2209 1959 2209 
L 2766 2209 
L 2766 2266 
Q 2766 2663 2505 2880 
Q 2244 3097 1772 3097 
Q 1472 3097 1187 3025 
Q 903 2953 641 2809 
L 641 3341 
Q 956 3463 1253 3523 
Q 1550 3584 1831 3584 
Q 2591 3584 2966 3190 
Q 3341 2797 3341 1997 
z
" transform="scale(0.015625)"/>
      <path id="DejaVuSans-6d" d="M 3328 2828 
Q 3544 3216 3844 3400 
Q 4144 3584 4550 3584 
Q 5097 3584 5394 3201 
Q 5691 2819 5691 2113 
L 5691 0 
L 5113 0 
L 5113 2094 
Q 5113 2597 4934 2840 
Q 4756 3084 4391 3084 
Q 3944 3084 3684 2787 
Q 3425 2491 3425 1978 
L 3425 0 
L 2847 0 
L 2847 2094 
Q 2847 2600 2669 2842 
Q 2491 3084 2119 3084 
Q 1678 3084 1418 2786 
Q 1159 2488 1159 1978 
L 1159 0 
L 581 0 
L 581 3500 
L 1159 3500 
L 1159 2956 
Q 1356 3278 1631 3431 
Q 1906 3584 2284 3584 
Q 2666 3584 2933 3390 
Q 3200 3197 3328 2828 
z
" transform="scale(0.015625)"/>
      <path id="DejaVuSans-70" d="M 1159 525 
L 1159 -1331 
L 581 -1331 
L 581 3500 
L 1159 3500 
L 1159 2969 
Q 1341 3281 1617 3432 
Q 1894 3584 2278 3584 
Q 2916 3584 3314 3078 
Q 3713 2572 3713 1747 
Q 3713 922 3314 415 
Q 2916 -91 2278 -91 
Q 1894 -91 1617 61 
Q 1341 213 1159 525 
z
M 3116 1747 
Q 3116 2381 2855 2742 
Q 2594 3103 2138 3103 
Q 1681 3103 1420 2742 
Q 1159 2381 1159 1747 
Q 1159 1113 1420 752 
Q 1681 391 2138 391 
Q 2594 391 2855 752 
Q 3116 1113 3116 1747 
z
" transform="scale(0.015625)"/>
      <path id="DejaVuSans-75" d="M 544 1381 
L 544 3500 
L 1119 3500 
L 1119 1403 
Q 1119 906 1312 657 
Q 1506 409 1894 409 
Q 2359 409 2629 706 
Q 2900 1003 2900 1516 
L 2900 3500 
L 3475 3500 
L 3475 0 
L 2900 0 
L 2900 538 
Q 2691 219 2414 64 
Q 2138 -91 1772 -91 
Q 1169 -91 856 284 
Q 544 659 544 1381 
z
M 1991 3584 
L 1991 3584 
z
" transform="scale(0.015625)"/>
      <path id="DejaVuSans-73" d="M 2834 3397 
L 2834 2853 
Q 2591 2978 2328 3040 
Q 2066 3103 1784 3103 
Q 1356 3103 1142 2972 
Q 928 2841 928 2578 
Q 928 2378 1081 2264 
Q 1234 2150 1697 2047 
L 1894 2003 
Q 2506 1872 2764 1633 
Q 3022 1394 3022 966 
Q 3022 478 2636 193 
Q 2250 -91 1575 -91 
Q 1294 -91 989 -36 
Q 684 19 347 128 
L 347 722 
Q 666 556 975 473 
Q 1284 391 1588 391 
Q 1994 391 2212 530 
Q 2431 669 2431 922 
Q 2431 1156 2273 1281 
Q 2116 1406 1581 1522 
L 1381 1569 
Q 847 1681 609 1914 
Q 372 2147 372 2553 
Q 372 3047 722 3315 
Q 1072 3584 1716 3584 
Q 2034 3584 2315 3537 
Q 2597 3491 2834 3397 
z
" transform="scale(0.015625)"/>
      <path id="DejaVuSans-31" d="M 794 531 
L 1825 531 
L 1825 4091 
L 703 3866 
L 703 4441 
L 1819 4666 
L 2450 4666 
L 2450 531 
L 3481 531 
L 3481 0 
L 794 0 
L 794 531 
z
" transform="scale(0.015625)"/>
     </defs>
     <use xlink:href="#DejaVuSans-63"/>
     <use xlink:href="#DejaVuSans-61" x="54.980469"/>
     <use xlink:href="#DejaVuSans-6d" x="116.259766"/>
     <use xlink:href="#DejaVuSans-70" x="213.671875"/>
     <use xlink:href="#DejaVuSans-75" x="277.148438"/>
     <use xlink:href="#DejaVuSans-73" x="340.527344"/>
     <use xlink:href="#DejaVuSans-20" x="392.626953"/>
     <use xlink:href="#DejaVuSans-31" x="424.414062"/>
    </g>
   </g>
   <g id="text_5">
    <!-- DC/DC -->
    <g transform="translate(120.098302 159.8145)scale(0.07 -0.07)">
     <use xlink:href="#DejaVuSans-Bold-44"/>
     <use xlink:href="#DejaVuSans-Bold-43" x="83.007812"/>
     <use xlink:href="#DejaVuSans-Bold-2f" x="156.396484"/>
     <use xlink:href="#DejaVuSans-Bold-44" x="192.919922"/>
     <use xlink:href="#DejaVuSans-Bold-43" x="275.927734"/>
    </g>
   </g>
   <g id="text_6">
    <!-- campus 2 -->
    <g transform="translate(115.24424 181.161438)scale(0.07 -0.07)">
     <defs>
      <path id="DejaVuSans-32" d="M 1228 531 
L 3431 531 
L 3431 0 
L 469 0 
L 469 531 
Q 828 903 1448 1529 
Q 2069 2156 2228 2338 
Q 2531 2678 2651 2914 
Q 2772 3150 2772 3378 
Q 2772 3750 2511 3984 
Q 2250 4219 1831 4219 
Q 1534 4219 1204 4116 
Q 875 4013 500 3803 
L 500 4441 
Q 881 4594 1212 4672 
Q 1544 4750 1819 4750 
Q 2544 4750 2975 4387 
Q 3406 4025 3406 3419 
Q 3406 3131 3298 2873 
Q 3191 2616 2906 2266 
Q 2828 2175 2409 1742 
Q 1991 1309 1228 531 
z
" transform="scale(0.015625)"/>
     </defs>
     <use xlink:href="#DejaVuSans-63"/>
     <use xlink:href="#DejaVuSans-61" x="54.980469"/>
     <use xlink:href="#DejaVuSans-6d" x="116.259766"/>
     <use xlink:href="#DejaVuSans-70" x="213.671875"/>
     <use xlink:href="#DejaVuSans-75" x="277.148438"/>
     <use xlink:href="#DejaVuSans-73" x="340.527344"/>
     <use xlink:href="#DejaVuSans-20" x="392.626953"/>
     <use xlink:href="#DejaVuSans-32" x="424.414062"/>
    </g>
   </g>
   <g id="text_7">
    <!-- DC/DC -->
    <g transform="translate(158.930302 159.8145)scale(0.07 -0.07)">
     <use xlink:href="#DejaVuSans-Bold-44"/>
     <use xlink:href="#DejaVuSans-Bold-43" x="83.007812"/>
     <use xlink:href="#DejaVuSans-Bold-2f" x="156.396484"/>
     <use xlink:href="#DejaVuSans-Bold-44" x="192.919922"/>
     <use xlink:href="#DejaVuSans-Bold-43" x="275.927734"/>
    </g>
   </g>
   <g id="text_8">
    <!-- campus 3 -->
    <g transform="translate(154.07624 181.161438)scale(0.07 -0.07)">
     <defs>
      <path id="DejaVuSans-33" d="M 2597 2516 
Q 3050 2419 3304 2112 
Q 3559 1806 3559 1356 
Q 3559 666 3084 287 
Q 2609 -91 1734 -91 
Q 1441 -91 1130 -33 
Q 819 25 488 141 
L 488 750 
Q 750 597 1062 519 
Q 1375 441 1716 441 
Q 2309 441 2620 675 
Q 2931 909 2931 1356 
Q 2931 1769 2642 2001 
Q 2353 2234 1838 2234 
L 1294 2234 
L 1294 2753 
L 1863 2753 
Q 2328 2753 2575 2939 
Q 2822 3125 2822 3475 
Q 2822 3834 2567 4026 
Q 2313 4219 1838 4219 
Q 1578 4219 1281 4162 
Q 984 4106 628 3988 
L 628 4550 
Q 988 4650 1302 4700 
Q 1616 4750 1894 4750 
Q 2613 4750 3031 4423 
Q 3450 4097 3450 3541 
Q 3450 3153 3228 2886 
Q 3006 2619 2597 2516 
z
" transform="scale(0.015625)"/>
     </defs>
     <use xlink:href="#DejaVuSans-63"/>
     <use xlink:href="#DejaVuSans-61" x="54.980469"/>
     <use xlink:href="#DejaVuSans-6d" x="116.259766"/>
     <use xlink:href="#DejaVuSans-70" x="213.671875"/>
     <use xlink:href="#DejaVuSans-75" x="277.148438"/>
     <use xlink:href="#DejaVuSans-73" x="340.527344"/>
     <use xlink:href="#DejaVuSans-20" x="392.626953"/>
     <use xlink:href="#DejaVuSans-33" x="424.414062"/>
    </g>
   </g>
   <g id="text_9">
    <!-- backbone fault -->
    <g transform="translate(122.617333 67.355437)scale(0.07 -0.07)">
     <defs>
      <path id="DejaVuSans-62" d="M 3116 1747 
Q 3116 2381 2855 2742 
Q 2594 3103 2138 3103 
Q 1681 3103 1420 2742 
Q 1159 2381 1159 1747 
Q 1159 1113 1420 752 
Q 1681 391 2138 391 
Q 2594 391 2855 752 
Q 3116 1113 3116 1747 
z
M 1159 2969 
Q 1341 3281 1617 3432 
Q 1894 3584 2278 3584 
Q 2916 3584 3314 3078 
Q 3713 2572 3713 1747 
Q 3713 922 3314 415 
Q 2916 -91 2278 -91 
Q 1894 -91 1617 61 
Q 1341 213 1159 525 
L 1159 0 
L 581 0 
L 581 4863 
L 1159 4863 
L 1159 2969 
z
" transform="scale(0.015625)"/>
      <path id="DejaVuSans-6b" d="M 581 4863 
L 1159 4863 
L 1159 1991 
L 2875 3500 
L 3609 3500 
L 1753 1863 
L 3688 0 
L 2938 0 
L 1159 1709 
L 1159 0 
L 581 0 
L 581 4863 
z
" transform="scale(0.015625)"/>
      <path id="DejaVuSans-6f" d="M 1959 3097 
Q 1497 3097 1228 2736 
Q 959 2375 959 1747 
Q 959 1119 1226 758 
Q 1494 397 1959 397 
Q 2419 397 2687 759 
Q 2956 1122 2956 1747 
Q 2956 2369 2687 2733 
Q 2419 3097 1959 3097 
z
M 1959 3584 
Q 2709 3584 3137 3096 
Q 3566 2609 3566 1747 
Q 3566 888 3137 398 
Q 2709 -91 1959 -91 
Q 1206 -91 779 398 
Q 353 888 353 1747 
Q 353 2609 779 3096 
Q 1206 3584 1959 3584 
z
" transform="scale(0.015625)"/>
      <path id="DejaVuSans-6e" d="M 3513 2113 
L 3513 0 
L 2938 0 
L 2938 2094 
Q 2938 2591 2744 2837 
Q 2550 3084 2163 3084 
Q 1697 3084 1428 2787 
Q 1159 2491 1159 1978 
L 1159 0 
L 581 0 
L 581 3500 
L 1159 3500 
L 1159 2956 
Q 1366 3272 1645 3428 
Q 1925 3584 2291 3584 
Q 2894 3584 3203 3211 
Q 3513 2838 3513 2113 
z
" transform="scale(0.015625)"/>
      <path id="DejaVuSans-65" d="M 3597 1894 
L 3597 1613 
L 953 1613 
Q 991 1019 1311 708 
Q 1631 397 2203 397 
Q 2534 397 2845 478 
Q 3156 559 3463 722 
L 3463 178 
Q 3153 47 2828 -22 
Q 2503 -91 2169 -91 
Q 1331 -91 842 396 
Q 353 884 353 1716 
Q 353 2575 817 3079 
Q 1281 3584 2069 3584 
Q 2775 3584 3186 3129 
Q 3597 2675 3597 1894 
z
M 3022 2063 
Q 3016 2534 2758 2815 
Q 2500 3097 2075 3097 
Q 1594 3097 1305 2825 
Q 1016 2553 972 2059 
L 3022 2063 
z
" transform="scale(0.015625)"/>
      <path id="DejaVuSans-66" d="M 2375 4863 
L 2375 4384 
L 1825 4384 
Q 1516 4384 1395 4259 
Q 1275 4134 1275 3809 
L 1275 3500 
L 2222 3500 
L 2222 3053 
L 1275 3053 
L 1275 0 
L 697 0 
L 697 3053 
L 147 3053 
L 147 3500 
L 697 3500 
L 697 3744 
Q 697 4328 969 4595 
Q 1241 4863 1831 4863 
L 2375 4863 
z
" transform="scale(0.015625)"/>
      <path id="DejaVuSans-6c" d="M 603 4863 
L 1178 4863 
L 1178 0 
L 603 0 
L 603 4863 
z
" transform="scale(0.015625)"/>
      <path id="DejaVuSans-74" d="M 1172 4494 
L 1172 3500 
L 2356 3500 
L 2356 3053 
L 1172 3053 
L 1172 1153 
Q 1172 725 1289 603 
Q 1406 481 1766 481 
L 2356 481 
L 2356 0 
L 1766 0 
Q 1100 0 847 248 
Q 594 497 594 1153 
L 594 3053 
L 172 3053 
L 172 3500 
L 594 3500 
L 594 4494 
L 1172 4494 
z
" transform="scale(0.015625)"/>
     </defs>
     <use xlink:href="#DejaVuSans-62"/>
     <use xlink:href="#DejaVuSans-61" x="63.476562"/>
     <use xlink:href="#DejaVuSans-63" x="124.755859"/>
     <use xlink:href="#DejaVuSans-6b" x="179.736328"/>
     <use xlink:href="#DejaVuSans-62" x="237.646484"/>
     <use xlink:href="#DejaVuSans-6f" x="301.123047"/>
     <use xlink:href="#DejaVuSans-6e" x="362.304688"/>
     <use xlink:href="#DejaVuSans-65" x="425.683594"/>
     <use xlink:href="#DejaVuSans-20" x="487.207031"/>
     <use xlink:href="#DejaVuSans-66" x="518.994141"/>
     <use xlink:href="#DejaVuSans-61" x="554.199219"/>
     <use xlink:href="#DejaVuSans-75" x="615.478516"/>
     <use xlink:href="#DejaVuSans-6c" x="678.857422"/>
     <use xlink:href="#DejaVuSans-74" x="706.640625"/>
    </g>
   </g>
   <g id="text_10">
    <!-- terminal -->
    <g style="fill: #404040" transform="translate(36.353089 57.266403)scale(0.067 -0.067)">
     <use xlink:href="#DejaVuSans-74"/>
     <use xlink:href="#DejaVuSans-65" x="39.208984"/>
     <use xlink:href="#DejaVuSans-72" x="100.732422"/>
     <use xlink:href="#DejaVuSans-6d" x="140.095703"/>
     <use xlink:href="#DejaVuSans-69" x="237.507812"/>
     <use xlink:href="#DejaVuSans-6e" x="265.291016"/>
     <use xlink:href="#DejaVuSans-61" x="328.669922"/>
     <use xlink:href="#DejaVuSans-6c" x="389.949219"/>
    </g>
    <!-- protection -->
    <g style="fill: #404040" transform="translate(33.234971 64.768937)scale(0.067 -0.067)">
     <use xlink:href="#DejaVuSans-70"/>
     <use xlink:href="#DejaVuSans-72" x="63.476562"/>
     <use xlink:href="#DejaVuSans-6f" x="102.339844"/>
     <use xlink:href="#DejaVuSans-74" x="163.521484"/>
     <use xlink:href="#DejaVuSans-65" x="202.730469"/>
     <use xlink:href="#DejaVuSans-63" x="264.253906"/>
     <use xlink:href="#DejaVuSans-74" x="319.234375"/>
     <use xlink:href="#DejaVuSans-69" x="358.443359"/>
     <use xlink:href="#DejaVuSans-6f" x="386.226562"/>
     <use xlink:href="#DejaVuSans-6e" x="447.408203"/>
    </g>
   </g>
   <g id="text_11">
    <!-- section -->
    <g style="fill: #404040" transform="translate(70.641432 57.266403)scale(0.067 -0.067)">
     <use xlink:href="#DejaVuSans-73"/>
     <use xlink:href="#DejaVuSans-65" x="52.099609"/>
     <use xlink:href="#DejaVuSans-63" x="113.623047"/>
     <use xlink:href="#DejaVuSans-74" x="168.603516"/>
     <use xlink:href="#DejaVuSans-69" x="207.8125"/>
     <use xlink:href="#DejaVuSans-6f" x="235.595703"/>
     <use xlink:href="#DejaVuSans-6e" x="296.777344"/>
    </g>
    <!-- breaker -->
    <g style="fill: #404040" transform="translate(69.907049 64.768937)scale(0.067 -0.067)">
     <use xlink:href="#DejaVuSans-62"/>
     <use xlink:href="#DejaVuSans-72" x="63.476562"/>
     <use xlink:href="#DejaVuSans-65" x="102.339844"/>
     <use xlink:href="#DejaVuSans-61" x="163.863281"/>
     <use xlink:href="#DejaVuSans-6b" x="225.142578"/>
     <use xlink:href="#DejaVuSans-65" x="279.427734"/>
     <use xlink:href="#DejaVuSans-72" x="340.951172"/>
    </g>
   </g>
   <g id="text_12">
    <!-- section -->
    <g style="fill: #404040" transform="translate(141.833432 57.266403)scale(0.067 -0.067)">
     <use xlink:href="#DejaVuSans-73"/>
     <use xlink:href="#DejaVuSans-65" x="52.099609"/>
     <use xlink:href="#DejaVuSans-63" x="113.623047"/>
     <use xlink:href="#DejaVuSans-74" x="168.603516"/>
     <use xlink:href="#DejaVuSans-69" x="207.8125"/>
     <use xlink:href="#DejaVuSans-6f" x="235.595703"/>
     <use xlink:href="#DejaVuSans-6e" x="296.777344"/>
    </g>
    <!-- breaker -->
    <g style="fill: #404040" transform="translate(141.099049 64.768937)scale(0.067 -0.067)">
     <use xlink:href="#DejaVuSans-62"/>
     <use xlink:href="#DejaVuSans-72" x="63.476562"/>
     <use xlink:href="#DejaVuSans-65" x="102.339844"/>
     <use xlink:href="#DejaVuSans-61" x="163.863281"/>
     <use xlink:href="#DejaVuSans-6b" x="225.142578"/>
     <use xlink:href="#DejaVuSans-65" x="279.427734"/>
     <use xlink:href="#DejaVuSans-72" x="340.951172"/>
    </g>
   </g>
   <g id="text_13">
    <!-- screening model, -->
    <g style="fill: #595959" transform="translate(128.078188 196.601469)scale(0.07 -0.07)">
     <defs>
      <path id="DejaVuSans-2c" d="M 750 794 
L 1409 794 
L 1409 256 
L 897 -744 
L 494 -744 
L 750 256 
L 750 794 
z
" transform="scale(0.015625)"/>
     </defs>
     <use xlink:href="#DejaVuSans-73"/>
     <use xlink:href="#DejaVuSans-63" x="52.099609"/>
     <use xlink:href="#DejaVuSans-72" x="107.080078"/>
     <use xlink:href="#DejaVuSans-65" x="145.943359"/>
     <use xlink:href="#DejaVuSans-65" x="207.466797"/>
     <use xlink:href="#DejaVuSans-6e" x="268.990234"/>
     <use xlink:href="#DejaVuSans-69" x="332.369141"/>
     <use xlink:href="#DejaVuSans-6e" x="360.152344"/>
     <use xlink:href="#DejaVuSans-67" x="423.53125"/>
     <use xlink:href="#DejaVuSans-20" x="487.007812"/>
     <use xlink:href="#DejaVuSans-6d" x="518.794922"/>
     <use xlink:href="#DejaVuSans-6f" x="616.207031"/>
     <use xlink:href="#DejaVuSans-64" x="677.388672"/>
     <use xlink:href="#DejaVuSans-65" x="740.865234"/>
     <use xlink:href="#DejaVuSans-6c" x="802.388672"/>
     <use xlink:href="#DejaVuSans-2c" x="830.171875"/>
    </g>
    <!-- not breaker design -->
    <g style="fill: #595959" transform="translate(122.535063 204.439938)scale(0.07 -0.07)">
     <use xlink:href="#DejaVuSans-6e"/>
     <use xlink:href="#DejaVuSans-6f" x="63.378906"/>
     <use xlink:href="#DejaVuSans-74" x="124.560547"/>
     <use xlink:href="#DejaVuSans-20" x="163.769531"/>
     <use xlink:href="#DejaVuSans-62" x="195.556641"/>
     <use xlink:href="#DejaVuSans-72" x="259.033203"/>
     <use xlink:href="#DejaVuSans-65" x="297.896484"/>
     <use xlink:href="#DejaVuSans-61" x="359.419922"/>
     <use xlink:href="#DejaVuSans-6b" x="420.699219"/>
     <use xlink:href="#DejaVuSans-65" x="474.984375"/>
     <use xlink:href="#DejaVuSans-72" x="536.507812"/>
     <use xlink:href="#DejaVuSans-20" x="577.621094"/>
     <use xlink:href="#DejaVuSans-64" x="609.408203"/>
     <use xlink:href="#DejaVuSans-65" x="672.884766"/>
     <use xlink:href="#DejaVuSans-73" x="734.408203"/>
     <use xlink:href="#DejaVuSans-69" x="786.507812"/>
     <use xlink:href="#DejaVuSans-67" x="814.291016"/>
     <use xlink:href="#DejaVuSans-6e" x="877.767578"/>
    </g>
   </g>
   <g id="text_14">
    <!-- a  Protection zones -->
    <g transform="translate(7.2 14.798437)scale(0.1 -0.1)">
     <defs>
      <path id="DejaVuSans-Bold-61" d="M 2106 1575 
Q 1756 1575 1579 1456 
Q 1403 1338 1403 1106 
Q 1403 894 1545 773 
Q 1688 653 1941 653 
Q 2256 653 2472 879 
Q 2688 1106 2688 1447 
L 2688 1575 
L 2106 1575 
z
M 3816 1997 
L 3816 0 
L 2688 0 
L 2688 519 
Q 2463 200 2181 54 
Q 1900 -91 1497 -91 
Q 953 -91 614 226 
Q 275 544 275 1050 
Q 275 1666 698 1953 
Q 1122 2241 2028 2241 
L 2688 2241 
L 2688 2328 
Q 2688 2594 2478 2717 
Q 2269 2841 1825 2841 
Q 1466 2841 1156 2769 
Q 847 2697 581 2553 
L 581 3406 
Q 941 3494 1303 3539 
Q 1666 3584 2028 3584 
Q 2975 3584 3395 3211 
Q 3816 2838 3816 1997 
z
" transform="scale(0.015625)"/>
      <path id="DejaVuSans-Bold-20" transform="scale(0.015625)"/>
      <path id="DejaVuSans-Bold-50" d="M 588 4666 
L 2584 4666 
Q 3475 4666 3951 4270 
Q 4428 3875 4428 3144 
Q 4428 2409 3951 2014 
Q 3475 1619 2584 1619 
L 1791 1619 
L 1791 0 
L 588 0 
L 588 4666 
z
M 1791 3794 
L 1791 2491 
L 2456 2491 
Q 2806 2491 2997 2661 
Q 3188 2831 3188 3144 
Q 3188 3456 2997 3625 
Q 2806 3794 2456 3794 
L 1791 3794 
z
" transform="scale(0.015625)"/>
      <path id="DejaVuSans-Bold-72" d="M 3138 2547 
Q 2991 2616 2845 2648 
Q 2700 2681 2553 2681 
Q 2122 2681 1889 2404 
Q 1656 2128 1656 1613 
L 1656 0 
L 538 0 
L 538 3500 
L 1656 3500 
L 1656 2925 
Q 1872 3269 2151 3426 
Q 2431 3584 2822 3584 
Q 2878 3584 2943 3579 
Q 3009 3575 3134 3559 
L 3138 2547 
z
" transform="scale(0.015625)"/>
      <path id="DejaVuSans-Bold-6f" d="M 2203 2784 
Q 1831 2784 1636 2517 
Q 1441 2250 1441 1747 
Q 1441 1244 1636 976 
Q 1831 709 2203 709 
Q 2569 709 2762 976 
Q 2956 1244 2956 1747 
Q 2956 2250 2762 2517 
Q 2569 2784 2203 2784 
z
M 2203 3584 
Q 3106 3584 3614 3096 
Q 4122 2609 4122 1747 
Q 4122 884 3614 396 
Q 3106 -91 2203 -91 
Q 1297 -91 786 396 
Q 275 884 275 1747 
Q 275 2609 786 3096 
Q 1297 3584 2203 3584 
z
" transform="scale(0.015625)"/>
      <path id="DejaVuSans-Bold-74" d="M 1759 4494 
L 1759 3500 
L 2913 3500 
L 2913 2700 
L 1759 2700 
L 1759 1216 
Q 1759 972 1856 886 
Q 1953 800 2241 800 
L 2816 800 
L 2816 0 
L 1856 0 
Q 1194 0 917 276 
Q 641 553 641 1216 
L 641 2700 
L 84 2700 
L 84 3500 
L 641 3500 
L 641 4494 
L 1759 4494 
z
" transform="scale(0.015625)"/>
      <path id="DejaVuSans-Bold-65" d="M 4031 1759 
L 4031 1441 
L 1416 1441 
Q 1456 1047 1700 850 
Q 1944 653 2381 653 
Q 2734 653 3104 758 
Q 3475 863 3866 1075 
L 3866 213 
Q 3469 63 3072 -14 
Q 2675 -91 2278 -91 
Q 1328 -91 801 392 
Q 275 875 275 1747 
Q 275 2603 792 3093 
Q 1309 3584 2216 3584 
Q 3041 3584 3536 3087 
Q 4031 2591 4031 1759 
z
M 2881 2131 
Q 2881 2450 2695 2645 
Q 2509 2841 2209 2841 
Q 1884 2841 1681 2658 
Q 1478 2475 1428 2131 
L 2881 2131 
z
" transform="scale(0.015625)"/>
      <path id="DejaVuSans-Bold-63" d="M 3366 3391 
L 3366 2478 
Q 3138 2634 2908 2709 
Q 2678 2784 2431 2784 
Q 1963 2784 1702 2511 
Q 1441 2238 1441 1747 
Q 1441 1256 1702 982 
Q 1963 709 2431 709 
Q 2694 709 2930 787 
Q 3166 866 3366 1019 
L 3366 103 
Q 3103 6 2833 -42 
Q 2563 -91 2291 -91 
Q 1344 -91 809 395 
Q 275 881 275 1747 
Q 275 2613 809 3098 
Q 1344 3584 2291 3584 
Q 2566 3584 2833 3536 
Q 3100 3488 3366 3391 
z
" transform="scale(0.015625)"/>
      <path id="DejaVuSans-Bold-69" d="M 538 3500 
L 1656 3500 
L 1656 0 
L 538 0 
L 538 3500 
z
M 538 4863 
L 1656 4863 
L 1656 3950 
L 538 3950 
L 538 4863 
z
" transform="scale(0.015625)"/>
      <path id="DejaVuSans-Bold-6e" d="M 4056 2131 
L 4056 0 
L 2931 0 
L 2931 347 
L 2931 1631 
Q 2931 2084 2911 2256 
Q 2891 2428 2841 2509 
Q 2775 2619 2662 2680 
Q 2550 2741 2406 2741 
Q 2056 2741 1856 2470 
Q 1656 2200 1656 1722 
L 1656 0 
L 538 0 
L 538 3500 
L 1656 3500 
L 1656 2988 
Q 1909 3294 2193 3439 
Q 2478 3584 2822 3584 
Q 3428 3584 3742 3212 
Q 4056 2841 4056 2131 
z
" transform="scale(0.015625)"/>
      <path id="DejaVuSans-Bold-7a" d="M 366 3500 
L 3419 3500 
L 3419 2719 
L 1575 800 
L 3419 800 
L 3419 0 
L 288 0 
L 288 781 
L 2131 2700 
L 366 2700 
L 366 3500 
z
" transform="scale(0.015625)"/>
      <path id="DejaVuSans-Bold-73" d="M 3272 3391 
L 3272 2541 
Q 2913 2691 2578 2766 
Q 2244 2841 1947 2841 
Q 1628 2841 1473 2761 
Q 1319 2681 1319 2516 
Q 1319 2381 1436 2309 
Q 1553 2238 1856 2203 
L 2053 2175 
Q 2913 2066 3209 1816 
Q 3506 1566 3506 1031 
Q 3506 472 3093 190 
Q 2681 -91 1863 -91 
Q 1516 -91 1145 -36 
Q 775 19 384 128 
L 384 978 
Q 719 816 1070 734 
Q 1422 653 1784 653 
Q 2113 653 2278 743 
Q 2444 834 2444 1013 
Q 2444 1163 2330 1236 
Q 2216 1309 1875 1350 
L 1678 1375 
Q 931 1469 631 1722 
Q 331 1975 331 2491 
Q 331 3047 712 3315 
Q 1094 3584 1881 3584 
Q 2191 3584 2531 3537 
Q 2872 3491 3272 3391 
z
" transform="scale(0.015625)"/>
     </defs>
     <use xlink:href="#DejaVuSans-Bold-61"/>
     <use xlink:href="#DejaVuSans-Bold-20" x="67.480469"/>
     <use xlink:href="#DejaVuSans-Bold-20" x="102.294922"/>
     <use xlink:href="#DejaVuSans-Bold-50" x="137.109375"/>
     <use xlink:href="#DejaVuSans-Bold-72" x="210.400391"/>
     <use xlink:href="#DejaVuSans-Bold-6f" x="259.716797"/>
     <use xlink:href="#DejaVuSans-Bold-74" x="328.417969"/>
     <use xlink:href="#DejaVuSans-Bold-65" x="376.220703"/>
     <use xlink:href="#DejaVuSans-Bold-63" x="444.042969"/>
     <use xlink:href="#DejaVuSans-Bold-74" x="503.320312"/>
     <use xlink:href="#DejaVuSans-Bold-69" x="551.123047"/>
     <use xlink:href="#DejaVuSans-Bold-6f" x="585.400391"/>
     <use xlink:href="#DejaVuSans-Bold-6e" x="654.101562"/>
     <use xlink:href="#DejaVuSans-Bold-20" x="725.292969"/>
     <use xlink:href="#DejaVuSans-Bold-7a" x="760.107422"/>
     <use xlink:href="#DejaVuSans-Bold-6f" x="818.310547"/>
     <use xlink:href="#DejaVuSans-Bold-6e" x="887.011719"/>
     <use xlink:href="#DejaVuSans-Bold-65" x="958.203125"/>
     <use xlink:href="#DejaVuSans-Bold-73" x="1026.025391"/>
    </g>
   </g>
  </g>
  <g id="axes_2">
   <g id="patch_14">
    <path d="M 320.533333 227.718438 
L 536.266667 227.718438 
L 536.266667 20.798437 
L 320.533333 20.798437 
z
" style="fill: #ffffff"/>
   </g>
   <g id="matplotlib.axis_1">
    <g id="xtick_1">
     <g id="line2d_6">
      <path d="M 330.339394 227.718438 
L 330.339394 20.798437 
" clip-path="url(#p4e40f50441)" style="fill: none; stroke: #b0b0b0; stroke-opacity: 0.25; stroke-width: 0.8; stroke-linecap: square"/>
     </g>
     <g id="line2d_7">
      <defs>
       <path id="m0f609c18d4" d="M 0 0 
L 0 3.5 
" style="stroke: #000000; stroke-width: 0.8"/>
      </defs>
      <g>
       <use xlink:href="#m0f609c18d4" x="330.339394" y="227.718438" style="stroke: #000000; stroke-width: 0.8"/>
      </g>
     </g>
     <g id="text_15">
      <!-- 0 -->
      <g transform="translate(327.158144 242.316875)scale(0.1 -0.1)">
       <defs>
        <path id="DejaVuSans-30" d="M 2034 4250 
Q 1547 4250 1301 3770 
Q 1056 3291 1056 2328 
Q 1056 1369 1301 889 
Q 1547 409 2034 409 
Q 2525 409 2770 889 
Q 3016 1369 3016 2328 
Q 3016 3291 2770 3770 
Q 2525 4250 2034 4250 
z
M 2034 4750 
Q 2819 4750 3233 4129 
Q 3647 3509 3647 2328 
Q 3647 1150 3233 529 
Q 2819 -91 2034 -91 
Q 1250 -91 836 529 
Q 422 1150 422 2328 
Q 422 3509 836 4129 
Q 1250 4750 2034 4750 
z
" transform="scale(0.015625)"/>
       </defs>
       <use xlink:href="#DejaVuSans-30"/>
      </g>
     </g>
    </g>
    <g id="xtick_2">
     <g id="line2d_8">
      <path d="M 379.431062 227.718438 
L 379.431062 20.798437 
" clip-path="url(#p4e40f50441)" style="fill: none; stroke: #b0b0b0; stroke-opacity: 0.25; stroke-width: 0.8; stroke-linecap: square"/>
     </g>
     <g id="line2d_9">
      <g>
       <use xlink:href="#m0f609c18d4" x="379.431062" y="227.718438" style="stroke: #000000; stroke-width: 0.8"/>
      </g>
     </g>
     <g id="text_16">
      <!-- 20 -->
      <g transform="translate(373.068562 242.316875)scale(0.1 -0.1)">
       <use xlink:href="#DejaVuSans-32"/>
       <use xlink:href="#DejaVuSans-30" x="63.623047"/>
      </g>
     </g>
    </g>
    <g id="xtick_3">
     <g id="line2d_10">
      <path d="M 428.522729 227.718438 
L 428.522729 20.798437 
" clip-path="url(#p4e40f50441)" style="fill: none; stroke: #b0b0b0; stroke-opacity: 0.25; stroke-width: 0.8; stroke-linecap: square"/>
     </g>
     <g id="line2d_11">
      <g>
       <use xlink:href="#m0f609c18d4" x="428.522729" y="227.718438" style="stroke: #000000; stroke-width: 0.8"/>
      </g>
     </g>
     <g id="text_17">
      <!-- 40 -->
      <g transform="translate(422.160229 242.316875)scale(0.1 -0.1)">
       <defs>
        <path id="DejaVuSans-34" d="M 2419 4116 
L 825 1625 
L 2419 1625 
L 2419 4116 
z
M 2253 4666 
L 3047 4666 
L 3047 1625 
L 3713 1625 
L 3713 1100 
L 3047 1100 
L 3047 0 
L 2419 0 
L 2419 1100 
L 313 1100 
L 313 1709 
L 2253 4666 
z
" transform="scale(0.015625)"/>
       </defs>
       <use xlink:href="#DejaVuSans-34"/>
       <use xlink:href="#DejaVuSans-30" x="63.623047"/>
      </g>
     </g>
    </g>
    <g id="xtick_4">
     <g id="line2d_12">
      <path d="M 477.614397 227.718438 
L 477.614397 20.798437 
" clip-path="url(#p4e40f50441)" style="fill: none; stroke: #b0b0b0; stroke-opacity: 0.25; stroke-width: 0.8; stroke-linecap: square"/>
     </g>
     <g id="line2d_13">
      <g>
       <use xlink:href="#m0f609c18d4" x="477.614397" y="227.718438" style="stroke: #000000; stroke-width: 0.8"/>
      </g>
     </g>
     <g id="text_18">
      <!-- 60 -->
      <g transform="translate(471.251897 242.316875)scale(0.1 -0.1)">
       <defs>
        <path id="DejaVuSans-36" d="M 2113 2584 
Q 1688 2584 1439 2293 
Q 1191 2003 1191 1497 
Q 1191 994 1439 701 
Q 1688 409 2113 409 
Q 2538 409 2786 701 
Q 3034 994 3034 1497 
Q 3034 2003 2786 2293 
Q 2538 2584 2113 2584 
z
M 3366 4563 
L 3366 3988 
Q 3128 4100 2886 4159 
Q 2644 4219 2406 4219 
Q 1781 4219 1451 3797 
Q 1122 3375 1075 2522 
Q 1259 2794 1537 2939 
Q 1816 3084 2150 3084 
Q 2853 3084 3261 2657 
Q 3669 2231 3669 1497 
Q 3669 778 3244 343 
Q 2819 -91 2113 -91 
Q 1303 -91 875 529 
Q 447 1150 447 2328 
Q 447 3434 972 4092 
Q 1497 4750 2381 4750 
Q 2619 4750 2861 4703 
Q 3103 4656 3366 4563 
z
" transform="scale(0.015625)"/>
       </defs>
       <use xlink:href="#DejaVuSans-36"/>
       <use xlink:href="#DejaVuSans-30" x="63.623047"/>
      </g>
     </g>
    </g>
    <g id="xtick_5">
     <g id="line2d_14">
      <path d="M 526.706064 227.718438 
L 526.706064 20.798437 
" clip-path="url(#p4e40f50441)" style="fill: none; stroke: #b0b0b0; stroke-opacity: 0.25; stroke-width: 0.8; stroke-linecap: square"/>
     </g>
     <g id="line2d_15">
      <g>
       <use xlink:href="#m0f609c18d4" x="526.706064" y="227.718438" style="stroke: #000000; stroke-width: 0.8"/>
      </g>
     </g>
     <g id="text_19">
      <!-- 80 -->
      <g transform="translate(520.343564 242.316875)scale(0.1 -0.1)">
       <defs>
        <path id="DejaVuSans-38" d="M 2034 2216 
Q 1584 2216 1326 1975 
Q 1069 1734 1069 1313 
Q 1069 891 1326 650 
Q 1584 409 2034 409 
Q 2484 409 2743 651 
Q 3003 894 3003 1313 
Q 3003 1734 2745 1975 
Q 2488 2216 2034 2216 
z
M 1403 2484 
Q 997 2584 770 2862 
Q 544 3141 544 3541 
Q 544 4100 942 4425 
Q 1341 4750 2034 4750 
Q 2731 4750 3128 4425 
Q 3525 4100 3525 3541 
Q 3525 3141 3298 2862 
Q 3072 2584 2669 2484 
Q 3125 2378 3379 2068 
Q 3634 1759 3634 1313 
Q 3634 634 3220 271 
Q 2806 -91 2034 -91 
Q 1263 -91 848 271 
Q 434 634 434 1313 
Q 434 1759 690 2068 
Q 947 2378 1403 2484 
z
M 1172 3481 
Q 1172 3119 1398 2916 
Q 1625 2713 2034 2713 
Q 2441 2713 2670 2916 
Q 2900 3119 2900 3481 
Q 2900 3844 2670 4047 
Q 2441 4250 2034 4250 
Q 1625 4250 1398 4047 
Q 1172 3844 1172 3481 
z
" transform="scale(0.015625)"/>
       </defs>
       <use xlink:href="#DejaVuSans-38"/>
       <use xlink:href="#DejaVuSans-30" x="63.623047"/>
      </g>
     </g>
    </g>
    <g id="text_20">
     <!-- Time (ms) -->
     <g transform="translate(403.200781 255.995)scale(0.1 -0.1)">
      <defs>
       <path id="DejaVuSans-54" d="M -19 4666 
L 3928 4666 
L 3928 4134 
L 2272 4134 
L 2272 0 
L 1638 0 
L 1638 4134 
L -19 4134 
L -19 4666 
z
" transform="scale(0.015625)"/>
       <path id="DejaVuSans-28" d="M 1984 4856 
Q 1566 4138 1362 3434 
Q 1159 2731 1159 2009 
Q 1159 1288 1364 580 
Q 1569 -128 1984 -844 
L 1484 -844 
Q 1016 -109 783 600 
Q 550 1309 550 2009 
Q 550 2706 781 3412 
Q 1013 4119 1484 4856 
L 1984 4856 
z
" transform="scale(0.015625)"/>
       <path id="DejaVuSans-29" d="M 513 4856 
L 1013 4856 
Q 1481 4119 1714 3412 
Q 1947 2706 1947 2009 
Q 1947 1309 1714 600 
Q 1481 -109 1013 -844 
L 513 -844 
Q 928 -128 1133 580 
Q 1338 1288 1338 2009 
Q 1338 2731 1133 3434 
Q 928 4138 513 4856 
z
" transform="scale(0.015625)"/>
      </defs>
      <use xlink:href="#DejaVuSans-54"/>
      <use xlink:href="#DejaVuSans-69" x="57.958984"/>
      <use xlink:href="#DejaVuSans-6d" x="85.742188"/>
      <use xlink:href="#DejaVuSans-65" x="183.154297"/>
      <use xlink:href="#DejaVuSans-20" x="244.677734"/>
      <use xlink:href="#DejaVuSans-28" x="276.464844"/>
      <use xlink:href="#DejaVuSans-6d" x="315.478516"/>
      <use xlink:href="#DejaVuSans-73" x="412.890625"/>
      <use xlink:href="#DejaVuSans-29" x="464.990234"/>
     </g>
    </g>
   </g>
   <g id="matplotlib.axis_2">
    <g id="ytick_1">
     <g id="line2d_16">
      <path d="M 320.533333 218.312983 
L 536.266667 218.312983 
" clip-path="url(#p4e40f50441)" style="fill: none; stroke: #b0b0b0; stroke-opacity: 0.25; stroke-width: 0.8; stroke-linecap: square"/>
     </g>
     <g id="line2d_17">
      <defs>
       <path id="mccd06fe859" d="M 0 0 
L -3.5 0 
" style="stroke: #000000; stroke-width: 0.8"/>
      </defs>
      <g>
       <use xlink:href="#mccd06fe859" x="320.533333" y="218.312983" style="stroke: #000000; stroke-width: 0.8"/>
      </g>
     </g>
     <g id="text_21">
      <!-- 0 -->
      <g transform="translate(307.170833 222.112202)scale(0.1 -0.1)">
       <use xlink:href="#DejaVuSans-30"/>
      </g>
     </g>
    </g>
    <g id="ytick_2">
     <g id="line2d_18">
      <path d="M 320.533333 186.784728 
L 536.266667 186.784728 
" clip-path="url(#p4e40f50441)" style="fill: none; stroke: #b0b0b0; stroke-opacity: 0.25; stroke-width: 0.8; stroke-linecap: square"/>
     </g>
     <g id="line2d_19">
      <g>
       <use xlink:href="#mccd06fe859" x="320.533333" y="186.784728" style="stroke: #000000; stroke-width: 0.8"/>
      </g>
     </g>
     <g id="text_22">
      <!-- 10 -->
      <g transform="translate(300.808333 190.583947)scale(0.1 -0.1)">
       <use xlink:href="#DejaVuSans-31"/>
       <use xlink:href="#DejaVuSans-30" x="63.623047"/>
      </g>
     </g>
    </g>
    <g id="ytick_3">
     <g id="line2d_20">
      <path d="M 320.533333 155.256473 
L 536.266667 155.256473 
" clip-path="url(#p4e40f50441)" style="fill: none; stroke: #b0b0b0; stroke-opacity: 0.25; stroke-width: 0.8; stroke-linecap: square"/>
     </g>
     <g id="line2d_21">
      <g>
       <use xlink:href="#mccd06fe859" x="320.533333" y="155.256473" style="stroke: #000000; stroke-width: 0.8"/>
      </g>
     </g>
     <g id="text_23">
      <!-- 20 -->
      <g transform="translate(300.808333 159.055691)scale(0.1 -0.1)">
       <use xlink:href="#DejaVuSans-32"/>
       <use xlink:href="#DejaVuSans-30" x="63.623047"/>
      </g>
     </g>
    </g>
    <g id="ytick_4">
     <g id="line2d_22">
      <path d="M 320.533333 123.728217 
L 536.266667 123.728217 
" clip-path="url(#p4e40f50441)" style="fill: none; stroke: #b0b0b0; stroke-opacity: 0.25; stroke-width: 0.8; stroke-linecap: square"/>
     </g>
     <g id="line2d_23">
      <g>
       <use xlink:href="#mccd06fe859" x="320.533333" y="123.728217" style="stroke: #000000; stroke-width: 0.8"/>
      </g>
     </g>
     <g id="text_24">
      <!-- 30 -->
      <g transform="translate(300.808333 127.527436)scale(0.1 -0.1)">
       <use xlink:href="#DejaVuSans-33"/>
       <use xlink:href="#DejaVuSans-30" x="63.623047"/>
      </g>
     </g>
    </g>
    <g id="ytick_5">
     <g id="line2d_24">
      <path d="M 320.533333 92.199962 
L 536.266667 92.199962 
" clip-path="url(#p4e40f50441)" style="fill: none; stroke: #b0b0b0; stroke-opacity: 0.25; stroke-width: 0.8; stroke-linecap: square"/>
     </g>
     <g id="line2d_25">
      <g>
       <use xlink:href="#mccd06fe859" x="320.533333" y="92.199962" style="stroke: #000000; stroke-width: 0.8"/>
      </g>
     </g>
     <g id="text_25">
      <!-- 40 -->
      <g transform="translate(300.808333 95.999181)scale(0.1 -0.1)">
       <use xlink:href="#DejaVuSans-34"/>
       <use xlink:href="#DejaVuSans-30" x="63.623047"/>
      </g>
     </g>
    </g>
    <g id="ytick_6">
     <g id="line2d_26">
      <path d="M 320.533333 60.671707 
L 536.266667 60.671707 
" clip-path="url(#p4e40f50441)" style="fill: none; stroke: #b0b0b0; stroke-opacity: 0.25; stroke-width: 0.8; stroke-linecap: square"/>
     </g>
     <g id="line2d_27">
      <g>
       <use xlink:href="#mccd06fe859" x="320.533333" y="60.671707" style="stroke: #000000; stroke-width: 0.8"/>
      </g>
     </g>
     <g id="text_26">
      <!-- 50 -->
      <g transform="translate(300.808333 64.470926)scale(0.1 -0.1)">
       <defs>
        <path id="DejaVuSans-35" d="M 691 4666 
L 3169 4666 
L 3169 4134 
L 1269 4134 
L 1269 2991 
Q 1406 3038 1543 3061 
Q 1681 3084 1819 3084 
Q 2600 3084 3056 2656 
Q 3513 2228 3513 1497 
Q 3513 744 3044 326 
Q 2575 -91 1722 -91 
Q 1428 -91 1123 -41 
Q 819 9 494 109 
L 494 744 
Q 775 591 1075 516 
Q 1375 441 1709 441 
Q 2250 441 2565 725 
Q 2881 1009 2881 1497 
Q 2881 1984 2565 2268 
Q 2250 2553 1709 2553 
Q 1456 2553 1204 2497 
Q 953 2441 691 2322 
L 691 4666 
z
" transform="scale(0.015625)"/>
       </defs>
       <use xlink:href="#DejaVuSans-35"/>
       <use xlink:href="#DejaVuSans-30" x="63.623047"/>
      </g>
     </g>
    </g>
    <g id="ytick_7">
     <g id="line2d_28">
      <path d="M 320.533333 29.143452 
L 536.266667 29.143452 
" clip-path="url(#p4e40f50441)" style="fill: none; stroke: #b0b0b0; stroke-opacity: 0.25; stroke-width: 0.8; stroke-linecap: square"/>
     </g>
     <g id="line2d_29">
      <g>
       <use xlink:href="#mccd06fe859" x="320.533333" y="29.143452" style="stroke: #000000; stroke-width: 0.8"/>
      </g>
     </g>
     <g id="text_27">
      <!-- 60 -->
      <g transform="translate(300.808333 32.942671)scale(0.1 -0.1)">
       <use xlink:href="#DejaVuSans-36"/>
       <use xlink:href="#DejaVuSans-30" x="63.623047"/>
      </g>
     </g>
    </g>
    <g id="text_28">
     <!-- Fault current (kA) -->
     <g transform="translate(294.728646 167.689688)rotate(-90)scale(0.1 -0.1)">
      <defs>
       <path id="DejaVuSans-46" d="M 628 4666 
L 3309 4666 
L 3309 4134 
L 1259 4134 
L 1259 2759 
L 3109 2759 
L 3109 2228 
L 1259 2228 
L 1259 0 
L 628 0 
L 628 4666 
z
" transform="scale(0.015625)"/>
      </defs>
      <use xlink:href="#DejaVuSans-46"/>
      <use xlink:href="#DejaVuSans-61" x="48.394531"/>
      <use xlink:href="#DejaVuSans-75" x="109.673828"/>
      <use xlink:href="#DejaVuSans-6c" x="173.052734"/>
      <use xlink:href="#DejaVuSans-74" x="200.835938"/>
      <use xlink:href="#DejaVuSans-20" x="240.044922"/>
      <use xlink:href="#DejaVuSans-63" x="271.832031"/>
      <use xlink:href="#DejaVuSans-75" x="326.8125"/>
      <use xlink:href="#DejaVuSans-72" x="390.191406"/>
      <use xlink:href="#DejaVuSans-72" x="429.554688"/>
      <use xlink:href="#DejaVuSans-65" x="468.417969"/>
      <use xlink:href="#DejaVuSans-6e" x="529.941406"/>
      <use xlink:href="#DejaVuSans-74" x="593.320312"/>
      <use xlink:href="#DejaVuSans-20" x="632.529297"/>
      <use xlink:href="#DejaVuSans-28" x="664.316406"/>
      <use xlink:href="#DejaVuSans-6b" x="703.330078"/>
      <use xlink:href="#DejaVuSans-41" x="761.240234"/>
      <use xlink:href="#DejaVuSans-29" x="829.648438"/>
     </g>
    </g>
   </g>
   <g id="line2d_30">
    <path d="M 330.339394 218.312983 
L 331.566686 184.393417 
L 332.793977 155.762584 
L 334.021269 131.595863 
L 335.248561 111.197213 
L 336.475852 93.979117 
L 337.703144 79.445662 
L 338.930436 67.17826 
L 340.157727 56.82359 
L 341.385019 48.083417 
L 342.612311 40.706011 
L 343.839603 34.478888 
L 344.821436 30.203892 
L 346.048728 57.129317 
L 347.276019 79.856535 
L 348.503311 99.04013 
L 349.730603 115.232622 
L 350.957894 128.900385 
L 352.185186 140.437073 
L 353.412478 150.174963 
L 354.639769 158.394523 
L 355.867061 165.332491 
L 357.094353 171.188692 
L 358.321644 176.131796 
L 359.548936 180.304172 
L 360.776228 183.825992 
L 362.248978 187.335119 
L 363.721728 190.198371 
L 365.194478 192.534625 
L 366.667228 194.440878 
L 368.139978 195.996274 
L 369.612728 197.26539 
L 371.330936 198.453939 
L 373.294603 199.508075 
L 374.276436 199.937146 
L 376.485561 202.496753 
L 378.694687 204.699828 
L 380.903812 206.596032 
L 383.358395 208.394798 
L 385.812978 209.917421 
L 388.51302 211.323756 
L 391.45852 212.590688 
L 394.649479 213.705401 
L 398.085895 214.664287 
L 402.013229 215.518343 
L 406.431479 216.242663 
L 411.586104 216.854053 
L 417.722562 217.351197 
L 425.577229 217.748755 
L 435.886479 218.032796 
L 451.350355 218.214935 
L 481.050814 218.299933 
L 526.460606 218.312385 
L 526.460606 218.312385 
" clip-path="url(#p4e40f50441)" style="fill: none; stroke: #d94801; stroke-width: 1.5; stroke-linecap: square"/>
   </g>
   <g id="line2d_31">
    <path d="M 337.703144 227.718438 
L 337.703144 20.798437 
" clip-path="url(#p4e40f50441)" style="fill: none; stroke-dasharray: 1,1.65; stroke-dashoffset: 0; stroke: #808080"/>
   </g>
   <g id="line2d_32">
    <path d="M 374.521895 227.718438 
L 374.521895 20.798437 
" clip-path="url(#p4e40f50441)" style="fill: none; stroke-dasharray: 3.7,1.6; stroke-dashoffset: 0; stroke: #808080"/>
   </g>
   <g id="patch_15">
    <path d="M 320.533333 227.718438 
L 320.533333 20.798438 
" style="fill: none; stroke: #000000; stroke-width: 0.8; stroke-linejoin: miter; stroke-linecap: square"/>
   </g>
   <g id="patch_16">
    <path d="M 536.266667 227.718438 
L 536.266667 20.798438 
" style="fill: none; stroke: #000000; stroke-width: 0.8; stroke-linejoin: miter; stroke-linecap: square"/>
   </g>
   <g id="patch_17">
    <path d="M 320.533333 227.718438 
L 536.266667 227.718438 
" style="fill: none; stroke: #000000; stroke-width: 0.8; stroke-linejoin: miter; stroke-linecap: square"/>
   </g>
   <g id="patch_18">
    <path d="M 320.533333 20.798437 
L 536.266667 20.798437 
" style="fill: none; stroke: #000000; stroke-width: 0.8; stroke-linejoin: miter; stroke-linecap: square"/>
   </g>
   <g id="text_29">
    <!-- detect -->
    <g style="fill: #595959" transform="translate(338.684977 44.500183)scale(0.07 -0.07)">
     <use xlink:href="#DejaVuSans-64"/>
     <use xlink:href="#DejaVuSans-65" x="63.476562"/>
     <use xlink:href="#DejaVuSans-74" x="125"/>
     <use xlink:href="#DejaVuSans-65" x="164.208984"/>
     <use xlink:href="#DejaVuSans-63" x="225.732422"/>
     <use xlink:href="#DejaVuSans-74" x="280.712891"/>
    </g>
   </g>
   <g id="text_30">
    <!-- open -->
    <g style="fill: #595959" transform="translate(375.503728 64.251637)scale(0.07 -0.07)">
     <use xlink:href="#DejaVuSans-6f"/>
     <use xlink:href="#DejaVuSans-70" x="61.181641"/>
     <use xlink:href="#DejaVuSans-65" x="124.658203"/>
     <use xlink:href="#DejaVuSans-6e" x="186.181641"/>
    </g>
   </g>
   <g id="text_31">
    <!-- b  Backbone fault response -->
    <g transform="translate(320.533333 14.798437)scale(0.1 -0.1)">
     <defs>
      <path id="DejaVuSans-Bold-62" d="M 2400 722 
Q 2759 722 2948 984 
Q 3138 1247 3138 1747 
Q 3138 2247 2948 2509 
Q 2759 2772 2400 2772 
Q 2041 2772 1848 2508 
Q 1656 2244 1656 1747 
Q 1656 1250 1848 986 
Q 2041 722 2400 722 
z
M 1656 2988 
Q 1888 3294 2169 3439 
Q 2450 3584 2816 3584 
Q 3463 3584 3878 3070 
Q 4294 2556 4294 1747 
Q 4294 938 3878 423 
Q 3463 -91 2816 -91 
Q 2450 -91 2169 54 
Q 1888 200 1656 506 
L 1656 0 
L 538 0 
L 538 4863 
L 1656 4863 
L 1656 2988 
z
" transform="scale(0.015625)"/>
      <path id="DejaVuSans-Bold-42" d="M 2456 2859 
Q 2741 2859 2887 2984 
Q 3034 3109 3034 3353 
Q 3034 3594 2887 3720 
Q 2741 3847 2456 3847 
L 1791 3847 
L 1791 2859 
L 2456 2859 
z
M 2497 819 
Q 2859 819 3042 972 
Q 3225 1125 3225 1434 
Q 3225 1738 3044 1889 
Q 2863 2041 2497 2041 
L 1791 2041 
L 1791 819 
L 2497 819 
z
M 3616 2497 
Q 4003 2384 4215 2081 
Q 4428 1778 4428 1338 
Q 4428 663 3972 331 
Q 3516 0 2584 0 
L 588 0 
L 588 4666 
L 2394 4666 
Q 3366 4666 3802 4372 
Q 4238 4078 4238 3431 
Q 4238 3091 4078 2852 
Q 3919 2613 3616 2497 
z
" transform="scale(0.015625)"/>
      <path id="DejaVuSans-Bold-6b" d="M 538 4863 
L 1656 4863 
L 1656 2216 
L 2944 3500 
L 4244 3500 
L 2534 1894 
L 4378 0 
L 3022 0 
L 1656 1459 
L 1656 0 
L 538 0 
L 538 4863 
z
" transform="scale(0.015625)"/>
      <path id="DejaVuSans-Bold-66" d="M 2841 4863 
L 2841 4128 
L 2222 4128 
Q 1984 4128 1890 4042 
Q 1797 3956 1797 3744 
L 1797 3500 
L 2753 3500 
L 2753 2700 
L 1797 2700 
L 1797 0 
L 678 0 
L 678 2700 
L 122 2700 
L 122 3500 
L 678 3500 
L 678 3744 
Q 678 4316 997 4589 
Q 1316 4863 1984 4863 
L 2841 4863 
z
" transform="scale(0.015625)"/>
      <path id="DejaVuSans-Bold-75" d="M 500 1363 
L 500 3500 
L 1625 3500 
L 1625 3150 
Q 1625 2866 1622 2436 
Q 1619 2006 1619 1863 
Q 1619 1441 1641 1255 
Q 1663 1069 1716 984 
Q 1784 875 1895 815 
Q 2006 756 2150 756 
Q 2500 756 2700 1025 
Q 2900 1294 2900 1772 
L 2900 3500 
L 4019 3500 
L 4019 0 
L 2900 0 
L 2900 506 
Q 2647 200 2364 54 
Q 2081 -91 1741 -91 
Q 1134 -91 817 281 
Q 500 653 500 1363 
z
" transform="scale(0.015625)"/>
      <path id="DejaVuSans-Bold-6c" d="M 538 4863 
L 1656 4863 
L 1656 0 
L 538 0 
L 538 4863 
z
" transform="scale(0.015625)"/>
      <path id="DejaVuSans-Bold-70" d="M 1656 506 
L 1656 -1331 
L 538 -1331 
L 538 3500 
L 1656 3500 
L 1656 2988 
Q 1888 3294 2169 3439 
Q 2450 3584 2816 3584 
Q 3463 3584 3878 3070 
Q 4294 2556 4294 1747 
Q 4294 938 3878 423 
Q 3463 -91 2816 -91 
Q 2450 -91 2169 54 
Q 1888 200 1656 506 
z
M 2400 2772 
Q 2041 2772 1848 2508 
Q 1656 2244 1656 1747 
Q 1656 1250 1848 986 
Q 2041 722 2400 722 
Q 2759 722 2948 984 
Q 3138 1247 3138 1747 
Q 3138 2247 2948 2509 
Q 2759 2772 2400 2772 
z
" transform="scale(0.015625)"/>
     </defs>
     <use xlink:href="#DejaVuSans-Bold-62"/>
     <use xlink:href="#DejaVuSans-Bold-20" x="71.582031"/>
     <use xlink:href="#DejaVuSans-Bold-20" x="106.396484"/>
     <use xlink:href="#DejaVuSans-Bold-42" x="141.210938"/>
     <use xlink:href="#DejaVuSans-Bold-61" x="217.431641"/>
     <use xlink:href="#DejaVuSans-Bold-63" x="284.912109"/>
     <use xlink:href="#DejaVuSans-Bold-6b" x="344.189453"/>
     <use xlink:href="#DejaVuSans-Bold-62" x="410.693359"/>
     <use xlink:href="#DejaVuSans-Bold-6f" x="482.275391"/>
     <use xlink:href="#DejaVuSans-Bold-6e" x="550.976562"/>
     <use xlink:href="#DejaVuSans-Bold-65" x="622.167969"/>
     <use xlink:href="#DejaVuSans-Bold-20" x="689.990234"/>
     <use xlink:href="#DejaVuSans-Bold-66" x="724.804688"/>
     <use xlink:href="#DejaVuSans-Bold-61" x="768.310547"/>
     <use xlink:href="#DejaVuSans-Bold-75" x="835.791016"/>
     <use xlink:href="#DejaVuSans-Bold-6c" x="906.982422"/>
     <use xlink:href="#DejaVuSans-Bold-74" x="941.259766"/>
     <use xlink:href="#DejaVuSans-Bold-20" x="989.0625"/>
     <use xlink:href="#DejaVuSans-Bold-72" x="1023.876953"/>
     <use xlink:href="#DejaVuSans-Bold-65" x="1073.193359"/>
     <use xlink:href="#DejaVuSans-Bold-73" x="1141.015625"/>
     <use xlink:href="#DejaVuSans-Bold-70" x="1200.537109"/>
     <use xlink:href="#DejaVuSans-Bold-6f" x="1272.119141"/>
     <use xlink:href="#DejaVuSans-Bold-6e" x="1340.820312"/>
     <use xlink:href="#DejaVuSans-Bold-73" x="1412.011719"/>
     <use xlink:href="#DejaVuSans-Bold-65" x="1471.533203"/>
    </g>
   </g>
  </g>
  <g id="axes_3">
   <g id="patch_19">
    <path d="M 633.866667 227.718438 
L 849.6 227.718438 
L 849.6 20.798437 
L 633.866667 20.798437 
z
" style="fill: #ffffff"/>
   </g>
   <g id="matplotlib.axis_3">
    <g id="xtick_6">
     <g id="line2d_33">
      <path d="M 643.672727 227.718438 
L 643.672727 20.798437 
" clip-path="url(#p3fc1f094fa)" style="fill: none; stroke: #b0b0b0; stroke-opacity: 0.25; stroke-width: 0.8; stroke-linecap: square"/>
     </g>
     <g id="line2d_34">
      <g>
       <use xlink:href="#m0f609c18d4" x="643.672727" y="227.718438" style="stroke: #000000; stroke-width: 0.8"/>
      </g>
     </g>
     <g id="text_32">
      <!-- 0 -->
      <g transform="translate(640.491477 242.316875)scale(0.1 -0.1)">
       <use xlink:href="#DejaVuSans-30"/>
      </g>
     </g>
    </g>
    <g id="xtick_7">
     <g id="line2d_35">
      <path d="M 692.764395 227.718438 
L 692.764395 20.798437 
" clip-path="url(#p3fc1f094fa)" style="fill: none; stroke: #b0b0b0; stroke-opacity: 0.25; stroke-width: 0.8; stroke-linecap: square"/>
     </g>
     <g id="line2d_36">
      <g>
       <use xlink:href="#m0f609c18d4" x="692.764395" y="227.718438" style="stroke: #000000; stroke-width: 0.8"/>
      </g>
     </g>
     <g id="text_33">
      <!-- 20 -->
      <g transform="translate(686.401895 242.316875)scale(0.1 -0.1)">
       <use xlink:href="#DejaVuSans-32"/>
       <use xlink:href="#DejaVuSans-30" x="63.623047"/>
      </g>
     </g>
    </g>
    <g id="xtick_8">
     <g id="line2d_37">
      <path d="M 741.856063 227.718438 
L 741.856063 20.798437 
" clip-path="url(#p3fc1f094fa)" style="fill: none; stroke: #b0b0b0; stroke-opacity: 0.25; stroke-width: 0.8; stroke-linecap: square"/>
     </g>
     <g id="line2d_38">
      <g>
       <use xlink:href="#m0f609c18d4" x="741.856063" y="227.718438" style="stroke: #000000; stroke-width: 0.8"/>
      </g>
     </g>
     <g id="text_34">
      <!-- 40 -->
      <g transform="translate(735.493563 242.316875)scale(0.1 -0.1)">
       <use xlink:href="#DejaVuSans-34"/>
       <use xlink:href="#DejaVuSans-30" x="63.623047"/>
      </g>
     </g>
    </g>
    <g id="xtick_9">
     <g id="line2d_39">
      <path d="M 790.94773 227.718438 
L 790.94773 20.798437 
" clip-path="url(#p3fc1f094fa)" style="fill: none; stroke: #b0b0b0; stroke-opacity: 0.25; stroke-width: 0.8; stroke-linecap: square"/>
     </g>
     <g id="line2d_40">
      <g>
       <use xlink:href="#m0f609c18d4" x="790.94773" y="227.718438" style="stroke: #000000; stroke-width: 0.8"/>
      </g>
     </g>
     <g id="text_35">
      <!-- 60 -->
      <g transform="translate(784.58523 242.316875)scale(0.1 -0.1)">
       <use xlink:href="#DejaVuSans-36"/>
       <use xlink:href="#DejaVuSans-30" x="63.623047"/>
      </g>
     </g>
    </g>
    <g id="xtick_10">
     <g id="line2d_41">
      <path d="M 840.039398 227.718438 
L 840.039398 20.798437 
" clip-path="url(#p3fc1f094fa)" style="fill: none; stroke: #b0b0b0; stroke-opacity: 0.25; stroke-width: 0.8; stroke-linecap: square"/>
     </g>
     <g id="line2d_42">
      <g>
       <use xlink:href="#m0f609c18d4" x="840.039398" y="227.718438" style="stroke: #000000; stroke-width: 0.8"/>
      </g>
     </g>
     <g id="text_36">
      <!-- 80 -->
      <g transform="translate(833.676898 242.316875)scale(0.1 -0.1)">
       <use xlink:href="#DejaVuSans-38"/>
       <use xlink:href="#DejaVuSans-30" x="63.623047"/>
      </g>
     </g>
    </g>
    <g id="text_37">
     <!-- Time (ms) -->
     <g transform="translate(716.534115 255.995)scale(0.1 -0.1)">
      <use xlink:href="#DejaVuSans-54"/>
      <use xlink:href="#DejaVuSans-69" x="57.958984"/>
      <use xlink:href="#DejaVuSans-6d" x="85.742188"/>
      <use xlink:href="#DejaVuSans-65" x="183.154297"/>
      <use xlink:href="#DejaVuSans-20" x="244.677734"/>
      <use xlink:href="#DejaVuSans-28" x="276.464844"/>
      <use xlink:href="#DejaVuSans-6d" x="315.478516"/>
      <use xlink:href="#DejaVuSans-73" x="412.890625"/>
      <use xlink:href="#DejaVuSans-29" x="464.990234"/>
     </g>
    </g>
   </g>
   <g id="matplotlib.axis_4">
    <g id="ytick_8">
     <g id="line2d_43">
      <path d="M 633.866667 203.606981 
L 849.6 203.606981 
" clip-path="url(#p3fc1f094fa)" style="fill: none; stroke: #b0b0b0; stroke-opacity: 0.25; stroke-width: 0.8; stroke-linecap: square"/>
     </g>
     <g id="line2d_44">
      <g>
       <use xlink:href="#mccd06fe859" x="633.866667" y="203.606981" style="stroke: #000000; stroke-width: 0.8"/>
      </g>
     </g>
     <g id="text_38">
      <!-- 0.86 -->
      <g transform="translate(604.601042 207.4062)scale(0.1 -0.1)">
       <defs>
        <path id="DejaVuSans-2e" d="M 684 794 
L 1344 794 
L 1344 0 
L 684 0 
L 684 794 
z
" transform="scale(0.015625)"/>
       </defs>
       <use xlink:href="#DejaVuSans-30"/>
       <use xlink:href="#DejaVuSans-2e" x="63.623047"/>
       <use xlink:href="#DejaVuSans-38" x="95.410156"/>
       <use xlink:href="#DejaVuSans-36" x="159.033203"/>
      </g>
     </g>
    </g>
    <g id="ytick_9">
     <g id="line2d_45">
      <path d="M 633.866667 178.835111 
L 849.6 178.835111 
" clip-path="url(#p3fc1f094fa)" style="fill: none; stroke: #b0b0b0; stroke-opacity: 0.25; stroke-width: 0.8; stroke-linecap: square"/>
     </g>
     <g id="line2d_46">
      <g>
       <use xlink:href="#mccd06fe859" x="633.866667" y="178.835111" style="stroke: #000000; stroke-width: 0.8"/>
      </g>
     </g>
     <g id="text_39">
      <!-- 0.88 -->
      <g transform="translate(604.601042 182.63433)scale(0.1 -0.1)">
       <use xlink:href="#DejaVuSans-30"/>
       <use xlink:href="#DejaVuSans-2e" x="63.623047"/>
       <use xlink:href="#DejaVuSans-38" x="95.410156"/>
       <use xlink:href="#DejaVuSans-38" x="159.033203"/>
      </g>
     </g>
    </g>
    <g id="ytick_10">
     <g id="line2d_47">
      <path d="M 633.866667 154.063241 
L 849.6 154.063241 
" clip-path="url(#p3fc1f094fa)" style="fill: none; stroke: #b0b0b0; stroke-opacity: 0.25; stroke-width: 0.8; stroke-linecap: square"/>
     </g>
     <g id="line2d_48">
      <g>
       <use xlink:href="#mccd06fe859" x="633.866667" y="154.063241" style="stroke: #000000; stroke-width: 0.8"/>
      </g>
     </g>
     <g id="text_40">
      <!-- 0.90 -->
      <g transform="translate(604.601042 157.86246)scale(0.1 -0.1)">
       <defs>
        <path id="DejaVuSans-39" d="M 703 97 
L 703 672 
Q 941 559 1184 500 
Q 1428 441 1663 441 
Q 2288 441 2617 861 
Q 2947 1281 2994 2138 
Q 2813 1869 2534 1725 
Q 2256 1581 1919 1581 
Q 1219 1581 811 2004 
Q 403 2428 403 3163 
Q 403 3881 828 4315 
Q 1253 4750 1959 4750 
Q 2769 4750 3195 4129 
Q 3622 3509 3622 2328 
Q 3622 1225 3098 567 
Q 2575 -91 1691 -91 
Q 1453 -91 1209 -44 
Q 966 3 703 97 
z
M 1959 2075 
Q 2384 2075 2632 2365 
Q 2881 2656 2881 3163 
Q 2881 3666 2632 3958 
Q 2384 4250 1959 4250 
Q 1534 4250 1286 3958 
Q 1038 3666 1038 3163 
Q 1038 2656 1286 2365 
Q 1534 2075 1959 2075 
z
" transform="scale(0.015625)"/>
       </defs>
       <use xlink:href="#DejaVuSans-30"/>
       <use xlink:href="#DejaVuSans-2e" x="63.623047"/>
       <use xlink:href="#DejaVuSans-39" x="95.410156"/>
       <use xlink:href="#DejaVuSans-30" x="159.033203"/>
      </g>
     </g>
    </g>
    <g id="ytick_11">
     <g id="line2d_49">
      <path d="M 633.866667 129.291371 
L 849.6 129.291371 
" clip-path="url(#p3fc1f094fa)" style="fill: none; stroke: #b0b0b0; stroke-opacity: 0.25; stroke-width: 0.8; stroke-linecap: square"/>
     </g>
     <g id="line2d_50">
      <g>
       <use xlink:href="#mccd06fe859" x="633.866667" y="129.291371" style="stroke: #000000; stroke-width: 0.8"/>
      </g>
     </g>
     <g id="text_41">
      <!-- 0.92 -->
      <g transform="translate(604.601042 133.09059)scale(0.1 -0.1)">
       <use xlink:href="#DejaVuSans-30"/>
       <use xlink:href="#DejaVuSans-2e" x="63.623047"/>
       <use xlink:href="#DejaVuSans-39" x="95.410156"/>
       <use xlink:href="#DejaVuSans-32" x="159.033203"/>
      </g>
     </g>
    </g>
    <g id="ytick_12">
     <g id="line2d_51">
      <path d="M 633.866667 104.519502 
L 849.6 104.519502 
" clip-path="url(#p3fc1f094fa)" style="fill: none; stroke: #b0b0b0; stroke-opacity: 0.25; stroke-width: 0.8; stroke-linecap: square"/>
     </g>
     <g id="line2d_52">
      <g>
       <use xlink:href="#mccd06fe859" x="633.866667" y="104.519502" style="stroke: #000000; stroke-width: 0.8"/>
      </g>
     </g>
     <g id="text_42">
      <!-- 0.94 -->
      <g transform="translate(604.601042 108.31872)scale(0.1 -0.1)">
       <use xlink:href="#DejaVuSans-30"/>
       <use xlink:href="#DejaVuSans-2e" x="63.623047"/>
       <use xlink:href="#DejaVuSans-39" x="95.410156"/>
       <use xlink:href="#DejaVuSans-34" x="159.033203"/>
      </g>
     </g>
    </g>
    <g id="ytick_13">
     <g id="line2d_53">
      <path d="M 633.866667 79.747632 
L 849.6 79.747632 
" clip-path="url(#p3fc1f094fa)" style="fill: none; stroke: #b0b0b0; stroke-opacity: 0.25; stroke-width: 0.8; stroke-linecap: square"/>
     </g>
     <g id="line2d_54">
      <g>
       <use xlink:href="#mccd06fe859" x="633.866667" y="79.747632" style="stroke: #000000; stroke-width: 0.8"/>
      </g>
     </g>
     <g id="text_43">
      <!-- 0.96 -->
      <g transform="translate(604.601042 83.54685)scale(0.1 -0.1)">
       <use xlink:href="#DejaVuSans-30"/>
       <use xlink:href="#DejaVuSans-2e" x="63.623047"/>
       <use xlink:href="#DejaVuSans-39" x="95.410156"/>
       <use xlink:href="#DejaVuSans-36" x="159.033203"/>
      </g>
     </g>
    </g>
    <g id="ytick_14">
     <g id="line2d_55">
      <path d="M 633.866667 54.975762 
L 849.6 54.975762 
" clip-path="url(#p3fc1f094fa)" style="fill: none; stroke: #b0b0b0; stroke-opacity: 0.25; stroke-width: 0.8; stroke-linecap: square"/>
     </g>
     <g id="line2d_56">
      <g>
       <use xlink:href="#mccd06fe859" x="633.866667" y="54.975762" style="stroke: #000000; stroke-width: 0.8"/>
      </g>
     </g>
     <g id="text_44">
      <!-- 0.98 -->
      <g transform="translate(604.601042 58.774981)scale(0.1 -0.1)">
       <use xlink:href="#DejaVuSans-30"/>
       <use xlink:href="#DejaVuSans-2e" x="63.623047"/>
       <use xlink:href="#DejaVuSans-39" x="95.410156"/>
       <use xlink:href="#DejaVuSans-38" x="159.033203"/>
      </g>
     </g>
    </g>
    <g id="ytick_15">
     <g id="line2d_57">
      <path d="M 633.866667 30.203892 
L 849.6 30.203892 
" clip-path="url(#p3fc1f094fa)" style="fill: none; stroke: #b0b0b0; stroke-opacity: 0.25; stroke-width: 0.8; stroke-linecap: square"/>
     </g>
     <g id="line2d_58">
      <g>
       <use xlink:href="#mccd06fe859" x="633.866667" y="30.203892" style="stroke: #000000; stroke-width: 0.8"/>
      </g>
     </g>
     <g id="text_45">
      <!-- 1.00 -->
      <g transform="translate(604.601042 34.003111)scale(0.1 -0.1)">
       <use xlink:href="#DejaVuSans-31"/>
       <use xlink:href="#DejaVuSans-2e" x="63.623047"/>
       <use xlink:href="#DejaVuSans-30" x="95.410156"/>
       <use xlink:href="#DejaVuSans-30" x="159.033203"/>
      </g>
     </g>
    </g>
    <g id="text_46">
     <!-- Campus DC voltage (pu) -->
     <g transform="translate(598.521354 185.667813)rotate(-90)scale(0.1 -0.1)">
      <defs>
       <path id="DejaVuSans-44" d="M 1259 4147 
L 1259 519 
L 2022 519 
Q 2988 519 3436 956 
Q 3884 1394 3884 2338 
Q 3884 3275 3436 3711 
Q 2988 4147 2022 4147 
L 1259 4147 
z
M 628 4666 
L 1925 4666 
Q 3281 4666 3915 4102 
Q 4550 3538 4550 2338 
Q 4550 1131 3912 565 
Q 3275 0 1925 0 
L 628 0 
L 628 4666 
z
" transform="scale(0.015625)"/>
       <path id="DejaVuSans-76" d="M 191 3500 
L 800 3500 
L 1894 563 
L 2988 3500 
L 3597 3500 
L 2284 0 
L 1503 0 
L 191 3500 
z
" transform="scale(0.015625)"/>
      </defs>
      <use xlink:href="#DejaVuSans-43"/>
      <use xlink:href="#DejaVuSans-61" x="69.824219"/>
      <use xlink:href="#DejaVuSans-6d" x="131.103516"/>
      <use xlink:href="#DejaVuSans-70" x="228.515625"/>
      <use xlink:href="#DejaVuSans-75" x="291.992188"/>
      <use xlink:href="#DejaVuSans-73" x="355.371094"/>
      <use xlink:href="#DejaVuSans-20" x="407.470703"/>
      <use xlink:href="#DejaVuSans-44" x="439.257812"/>
      <use xlink:href="#DejaVuSans-43" x="516.259766"/>
      <use xlink:href="#DejaVuSans-20" x="586.083984"/>
      <use xlink:href="#DejaVuSans-76" x="617.871094"/>
      <use xlink:href="#DejaVuSans-6f" x="677.050781"/>
      <use xlink:href="#DejaVuSans-6c" x="738.232422"/>
      <use xlink:href="#DejaVuSans-74" x="766.015625"/>
      <use xlink:href="#DejaVuSans-61" x="805.224609"/>
      <use xlink:href="#DejaVuSans-67" x="866.503906"/>
      <use xlink:href="#DejaVuSans-65" x="929.980469"/>
      <use xlink:href="#DejaVuSans-20" x="991.503906"/>
      <use xlink:href="#DejaVuSans-28" x="1023.291016"/>
      <use xlink:href="#DejaVuSans-70" x="1062.304688"/>
      <use xlink:href="#DejaVuSans-75" x="1125.78125"/>
      <use xlink:href="#DejaVuSans-29" x="1189.160156"/>
     </g>
    </g>
   </g>
   <g id="line2d_59">
    <path d="M 643.672727 30.203892 
L 651.036477 30.203892 
L 652.754686 56.093818 
L 654.472894 78.601439 
L 656.191103 98.168624 
L 657.909311 115.179518 
L 659.627519 129.968079 
L 661.345728 142.824636 
L 663.063936 154.001589 
L 664.782144 163.718366 
L 666.500353 172.165726 
L 668.218561 179.509508 
L 669.936769 185.893885 
L 671.654978 191.444196 
L 673.373186 196.269404 
L 675.091395 200.464239 
L 676.809603 204.111053 
L 678.527811 207.281441 
L 680.24602 210.037644 
L 682.209686 212.749505 
L 684.173353 215.060401 
L 686.13702 217.029617 
L 687.60977 218.312983 
L 687.855228 104.519502 
L 691.291645 98.958464 
L 694.728062 93.813559 
L 698.164478 89.053648 
L 701.600895 84.64992 
L 705.28277 80.296656 
L 708.964645 76.29146 
L 712.64652 72.606502 
L 716.573854 69.000042 
L 720.501187 65.700322 
L 724.42852 62.681252 
L 728.601312 59.754337 
L 732.774104 57.0912 
L 737.192354 54.532534 
L 741.856063 52.0954 
L 746.765229 49.793274 
L 751.674396 47.733241 
L 756.829021 45.80294 
L 762.474563 43.931818 
L 768.365563 42.218206 
L 774.74748 40.602317 
L 781.374855 39.153899 
L 788.493147 37.822116 
L 796.347814 36.581324 
L 804.938855 35.45438 
L 814.511731 34.431576 
L 825.066439 33.533203 
L 837.093898 32.739778 
L 839.793939 32.589448 
L 839.793939 32.589448 
" clip-path="url(#p3fc1f094fa)" style="fill: none; stroke: #e6550d; stroke-width: 1.5; stroke-linecap: square"/>
   </g>
   <g id="line2d_60">
    <path d="M 643.672727 30.203892 
L 651.036477 30.203892 
L 651.281936 61.168729 
L 687.855228 61.168729 
L 693.50077 58.44708 
L 699.39177 55.861812 
L 705.528228 53.420138 
L 711.910145 51.12696 
L 718.53752 48.985015 
L 725.410354 46.995047 
L 732.774104 45.096311 
L 740.628771 43.307037 
L 748.974354 41.640876 
L 757.810854 40.107036 
L 767.38373 38.676618 
L 777.69298 37.366343 
L 788.984063 36.162592 
L 801.25698 35.082463 
L 814.757189 34.119037 
L 829.975606 33.259114 
L 839.793939 32.807381 
L 839.793939 32.807381 
" clip-path="url(#p3fc1f094fa)" style="fill: none; stroke: #31a354; stroke-width: 1.5; stroke-linecap: square"/>
   </g>
   <g id="line2d_61">
    <path d="M 643.672727 30.203892 
L 651.036477 30.203892 
L 651.281936 54.975762 
L 688.100686 54.876872 
L 694.237145 52.528928 
L 700.619062 50.323779 
L 707.246437 48.264058 
L 714.364729 46.286022 
L 721.973937 44.410522 
L 729.828604 42.703643 
L 738.174187 41.114208 
L 747.256146 39.613288 
L 757.074479 38.22205 
L 767.629188 36.955014 
L 779.16573 35.797971 
L 791.929563 34.747442 
L 806.166147 33.806683 
L 822.120939 32.981829 
L 839.793939 32.286683 
L 839.793939 32.286683 
" clip-path="url(#p3fc1f094fa)" style="fill: none; stroke: #756bb1; stroke-width: 1.5; stroke-linecap: square"/>
   </g>
   <g id="patch_20">
    <path d="M 633.866667 227.718437 
L 633.866667 20.798437 
" style="fill: none; stroke: #000000; stroke-width: 0.8; stroke-linejoin: miter; stroke-linecap: square"/>
   </g>
   <g id="patch_21">
    <path d="M 849.6 227.718437 
L 849.6 20.798437 
" style="fill: none; stroke: #000000; stroke-width: 0.8; stroke-linejoin: miter; stroke-linecap: square"/>
   </g>
   <g id="patch_22">
    <path d="M 633.866667 227.718438 
L 849.6 227.718438 
" style="fill: none; stroke: #000000; stroke-width: 0.8; stroke-linejoin: miter; stroke-linecap: square"/>
   </g>
   <g id="patch_23">
    <path d="M 633.866667 20.798437 
L 849.6 20.798437 
" style="fill: none; stroke: #000000; stroke-width: 0.8; stroke-linejoin: miter; stroke-linecap: square"/>
   </g>
   <g id="text_47">
    <!-- c  Campus ride-through proxy -->
    <g transform="translate(633.866667 14.798437)scale(0.1 -0.1)">
     <defs>
      <path id="DejaVuSans-Bold-6d" d="M 3781 2919 
Q 3994 3244 4286 3414 
Q 4578 3584 4928 3584 
Q 5531 3584 5847 3212 
Q 6163 2841 6163 2131 
L 6163 0 
L 5038 0 
L 5038 1825 
Q 5041 1866 5042 1909 
Q 5044 1953 5044 2034 
Q 5044 2406 4934 2573 
Q 4825 2741 4581 2741 
Q 4263 2741 4089 2478 
Q 3916 2216 3909 1719 
L 3909 0 
L 2784 0 
L 2784 1825 
Q 2784 2406 2684 2573 
Q 2584 2741 2328 2741 
Q 2006 2741 1831 2477 
Q 1656 2213 1656 1722 
L 1656 0 
L 531 0 
L 531 3500 
L 1656 3500 
L 1656 2988 
Q 1863 3284 2130 3434 
Q 2397 3584 2719 3584 
Q 3081 3584 3359 3409 
Q 3638 3234 3781 2919 
z
" transform="scale(0.015625)"/>
      <path id="DejaVuSans-Bold-64" d="M 2919 2988 
L 2919 4863 
L 4044 4863 
L 4044 0 
L 2919 0 
L 2919 506 
Q 2688 197 2409 53 
Q 2131 -91 1766 -91 
Q 1119 -91 703 423 
Q 288 938 288 1747 
Q 288 2556 703 3070 
Q 1119 3584 1766 3584 
Q 2128 3584 2408 3439 
Q 2688 3294 2919 2988 
z
M 2181 722 
Q 2541 722 2730 984 
Q 2919 1247 2919 1747 
Q 2919 2247 2730 2509 
Q 2541 2772 2181 2772 
Q 1825 2772 1636 2509 
Q 1447 2247 1447 1747 
Q 1447 1247 1636 984 
Q 1825 722 2181 722 
z
" transform="scale(0.015625)"/>
      <path id="DejaVuSans-Bold-2d" d="M 347 2297 
L 2309 2297 
L 2309 1388 
L 347 1388 
L 347 2297 
z
" transform="scale(0.015625)"/>
      <path id="DejaVuSans-Bold-68" d="M 4056 2131 
L 4056 0 
L 2931 0 
L 2931 347 
L 2931 1625 
Q 2931 2084 2911 2256 
Q 2891 2428 2841 2509 
Q 2775 2619 2662 2680 
Q 2550 2741 2406 2741 
Q 2056 2741 1856 2470 
Q 1656 2200 1656 1722 
L 1656 0 
L 538 0 
L 538 4863 
L 1656 4863 
L 1656 2988 
Q 1909 3294 2193 3439 
Q 2478 3584 2822 3584 
Q 3428 3584 3742 3212 
Q 4056 2841 4056 2131 
z
" transform="scale(0.015625)"/>
      <path id="DejaVuSans-Bold-67" d="M 2919 594 
Q 2688 288 2409 144 
Q 2131 0 1766 0 
Q 1125 0 706 504 
Q 288 1009 288 1791 
Q 288 2575 706 3076 
Q 1125 3578 1766 3578 
Q 2131 3578 2409 3434 
Q 2688 3291 2919 2981 
L 2919 3500 
L 4044 3500 
L 4044 353 
Q 4044 -491 3511 -936 
Q 2978 -1381 1966 -1381 
Q 1638 -1381 1331 -1331 
Q 1025 -1281 716 -1178 
L 716 -306 
Q 1009 -475 1290 -558 
Q 1572 -641 1856 -641 
Q 2406 -641 2662 -400 
Q 2919 -159 2919 353 
L 2919 594 
z
M 2181 2772 
Q 1834 2772 1640 2515 
Q 1447 2259 1447 1791 
Q 1447 1309 1634 1061 
Q 1822 813 2181 813 
Q 2531 813 2725 1069 
Q 2919 1325 2919 1791 
Q 2919 2259 2725 2515 
Q 2531 2772 2181 2772 
z
" transform="scale(0.015625)"/>
      <path id="DejaVuSans-Bold-78" d="M 1422 1791 
L 159 3500 
L 1344 3500 
L 2059 2463 
L 2784 3500 
L 3969 3500 
L 2706 1797 
L 4031 0 
L 2847 0 
L 2059 1106 
L 1281 0 
L 97 0 
L 1422 1791 
z
" transform="scale(0.015625)"/>
      <path id="DejaVuSans-Bold-79" d="M 78 3500 
L 1197 3500 
L 2138 1125 
L 2938 3500 
L 4056 3500 
L 2584 -331 
Q 2363 -916 2067 -1148 
Q 1772 -1381 1288 -1381 
L 641 -1381 
L 641 -647 
L 991 -647 
Q 1275 -647 1404 -556 
Q 1534 -466 1606 -231 
L 1638 -134 
L 78 3500 
z
" transform="scale(0.015625)"/>
     </defs>
     <use xlink:href="#DejaVuSans-Bold-63"/>
     <use xlink:href="#DejaVuSans-Bold-20" x="59.277344"/>
     <use xlink:href="#DejaVuSans-Bold-20" x="94.091797"/>
     <use xlink:href="#DejaVuSans-Bold-43" x="128.90625"/>
     <use xlink:href="#DejaVuSans-Bold-61" x="202.294922"/>
     <use xlink:href="#DejaVuSans-Bold-6d" x="269.775391"/>
     <use xlink:href="#DejaVuSans-Bold-70" x="373.974609"/>
     <use xlink:href="#DejaVuSans-Bold-75" x="445.556641"/>
     <use xlink:href="#DejaVuSans-Bold-73" x="516.748047"/>
     <use xlink:href="#DejaVuSans-Bold-20" x="576.269531"/>
     <use xlink:href="#DejaVuSans-Bold-72" x="611.083984"/>
     <use xlink:href="#DejaVuSans-Bold-69" x="660.400391"/>
     <use xlink:href="#DejaVuSans-Bold-64" x="694.677734"/>
     <use xlink:href="#DejaVuSans-Bold-65" x="766.259766"/>
     <use xlink:href="#DejaVuSans-Bold-2d" x="834.082031"/>
     <use xlink:href="#DejaVuSans-Bold-74" x="875.585938"/>
     <use xlink:href="#DejaVuSans-Bold-68" x="923.388672"/>
     <use xlink:href="#DejaVuSans-Bold-72" x="994.580078"/>
     <use xlink:href="#DejaVuSans-Bold-6f" x="1043.896484"/>
     <use xlink:href="#DejaVuSans-Bold-75" x="1112.597656"/>
     <use xlink:href="#DejaVuSans-Bold-67" x="1183.789062"/>
     <use xlink:href="#DejaVuSans-Bold-68" x="1255.371094"/>
     <use xlink:href="#DejaVuSans-Bold-20" x="1326.5625"/>
     <use xlink:href="#DejaVuSans-Bold-70" x="1361.376953"/>
     <use xlink:href="#DejaVuSans-Bold-72" x="1432.958984"/>
     <use xlink:href="#DejaVuSans-Bold-6f" x="1482.275391"/>
     <use xlink:href="#DejaVuSans-Bold-78" x="1550.976562"/>
     <use xlink:href="#DejaVuSans-Bold-79" x="1615.478516"/>
    </g>
   </g>
   <g id="legend_1">
    <g id="line2d_62">
     <path d="M 753.365313 196.963281 
L 760.365313 196.963281 
L 767.365313 196.963281 
" style="fill: none; stroke: #e6550d; stroke-width: 1.5; stroke-linecap: square"/>
    </g>
    <g id="text_48">
     <!-- near/faulted section -->
     <g transform="translate(772.965313 199.413281)scale(0.07 -0.07)">
      <defs>
       <path id="DejaVuSans-2f" d="M 1625 4666 
L 2156 4666 
L 531 -594 
L 0 -594 
L 1625 4666 
z
" transform="scale(0.015625)"/>
      </defs>
      <use xlink:href="#DejaVuSans-6e"/>
      <use xlink:href="#DejaVuSans-65" x="63.378906"/>
      <use xlink:href="#DejaVuSans-61" x="124.902344"/>
      <use xlink:href="#DejaVuSans-72" x="186.181641"/>
      <use xlink:href="#DejaVuSans-2f" x="227.294922"/>
      <use xlink:href="#DejaVuSans-66" x="260.986328"/>
      <use xlink:href="#DejaVuSans-61" x="296.191406"/>
      <use xlink:href="#DejaVuSans-75" x="357.470703"/>
      <use xlink:href="#DejaVuSans-6c" x="420.849609"/>
      <use xlink:href="#DejaVuSans-74" x="448.632812"/>
      <use xlink:href="#DejaVuSans-65" x="487.841797"/>
      <use xlink:href="#DejaVuSans-64" x="549.365234"/>
      <use xlink:href="#DejaVuSans-20" x="612.841797"/>
      <use xlink:href="#DejaVuSans-73" x="644.628906"/>
      <use xlink:href="#DejaVuSans-65" x="696.728516"/>
      <use xlink:href="#DejaVuSans-63" x="758.251953"/>
      <use xlink:href="#DejaVuSans-74" x="813.232422"/>
      <use xlink:href="#DejaVuSans-69" x="852.441406"/>
      <use xlink:href="#DejaVuSans-6f" x="880.224609"/>
      <use xlink:href="#DejaVuSans-6e" x="941.40625"/>
     </g>
    </g>
    <g id="line2d_63">
     <path d="M 753.365313 207.237969 
L 760.365313 207.237969 
L 767.365313 207.237969 
" style="fill: none; stroke: #31a354; stroke-width: 1.5; stroke-linecap: square"/>
    </g>
    <g id="text_49">
     <!-- healthy campus 2 -->
     <g transform="translate(772.965313 209.687969)scale(0.07 -0.07)">
      <defs>
       <path id="DejaVuSans-68" d="M 3513 2113 
L 3513 0 
L 2938 0 
L 2938 2094 
Q 2938 2591 2744 2837 
Q 2550 3084 2163 3084 
Q 1697 3084 1428 2787 
Q 1159 2491 1159 1978 
L 1159 0 
L 581 0 
L 581 4863 
L 1159 4863 
L 1159 2956 
Q 1366 3272 1645 3428 
Q 1925 3584 2291 3584 
Q 2894 3584 3203 3211 
Q 3513 2838 3513 2113 
z
" transform="scale(0.015625)"/>
       <path id="DejaVuSans-79" d="M 2059 -325 
Q 1816 -950 1584 -1140 
Q 1353 -1331 966 -1331 
L 506 -1331 
L 506 -850 
L 844 -850 
Q 1081 -850 1212 -737 
Q 1344 -625 1503 -206 
L 1606 56 
L 191 3500 
L 800 3500 
L 1894 763 
L 2988 3500 
L 3597 3500 
L 2059 -325 
z
" transform="scale(0.015625)"/>
      </defs>
      <use xlink:href="#DejaVuSans-68"/>
      <use xlink:href="#DejaVuSans-65" x="63.378906"/>
      <use xlink:href="#DejaVuSans-61" x="124.902344"/>
      <use xlink:href="#DejaVuSans-6c" x="186.181641"/>
      <use xlink:href="#DejaVuSans-74" x="213.964844"/>
      <use xlink:href="#DejaVuSans-68" x="253.173828"/>
      <use xlink:href="#DejaVuSans-79" x="316.552734"/>
      <use xlink:href="#DejaVuSans-20" x="375.732422"/>
      <use xlink:href="#DejaVuSans-63" x="407.519531"/>
      <use xlink:href="#DejaVuSans-61" x="462.5"/>
      <use xlink:href="#DejaVuSans-6d" x="523.779297"/>
      <use xlink:href="#DejaVuSans-70" x="621.191406"/>
      <use xlink:href="#DejaVuSans-75" x="684.667969"/>
      <use xlink:href="#DejaVuSans-73" x="748.046875"/>
      <use xlink:href="#DejaVuSans-20" x="800.146484"/>
      <use xlink:href="#DejaVuSans-32" x="831.933594"/>
     </g>
    </g>
    <g id="line2d_64">
     <path d="M 753.365313 217.512656 
L 760.365313 217.512656 
L 767.365313 217.512656 
" style="fill: none; stroke: #756bb1; stroke-width: 1.5; stroke-linecap: square"/>
    </g>
    <g id="text_50">
     <!-- healthy campus 3 -->
     <g transform="translate(772.965313 219.962656)scale(0.07 -0.07)">
      <use xlink:href="#DejaVuSans-68"/>
      <use xlink:href="#DejaVuSans-65" x="63.378906"/>
      <use xlink:href="#DejaVuSans-61" x="124.902344"/>
      <use xlink:href="#DejaVuSans-6c" x="186.181641"/>
      <use xlink:href="#DejaVuSans-74" x="213.964844"/>
      <use xlink:href="#DejaVuSans-68" x="253.173828"/>
      <use xlink:href="#DejaVuSans-79" x="316.552734"/>
      <use xlink:href="#DejaVuSans-20" x="375.732422"/>
      <use xlink:href="#DejaVuSans-63" x="407.519531"/>
      <use xlink:href="#DejaVuSans-61" x="462.5"/>
      <use xlink:href="#DejaVuSans-6d" x="523.779297"/>
      <use xlink:href="#DejaVuSans-70" x="621.191406"/>
      <use xlink:href="#DejaVuSans-75" x="684.667969"/>
      <use xlink:href="#DejaVuSans-73" x="748.046875"/>
      <use xlink:href="#DejaVuSans-20" x="800.146484"/>
      <use xlink:href="#DejaVuSans-33" x="831.933594"/>
     </g>
    </g>
   </g>
  </g>
  <g id="axes_4">
   <g id="matplotlib.axis_5">
    <g id="ytick_16">
     <g id="line2d_65">
      <defs>
       <path id="me597730ae7" d="M 0 0 
L 3.5 0 
" style="stroke: #000000; stroke-width: 0.8"/>
      </defs>
      <g>
       <use xlink:href="#me597730ae7" x="536.266667" y="203.606981" style="stroke: #000000; stroke-width: 0.8"/>
      </g>
     </g>
     <g id="text_51">
      <!-- 0.86 -->
      <g transform="translate(543.266667 207.4062)scale(0.1 -0.1)">
       <use xlink:href="#DejaVuSans-30"/>
       <use xlink:href="#DejaVuSans-2e" x="63.623047"/>
       <use xlink:href="#DejaVuSans-38" x="95.410156"/>
       <use xlink:href="#DejaVuSans-36" x="159.033203"/>
      </g>
     </g>
    </g>
    <g id="ytick_17">
     <g id="line2d_66">
      <g>
       <use xlink:href="#me597730ae7" x="536.266667" y="178.835111" style="stroke: #000000; stroke-width: 0.8"/>
      </g>
     </g>
     <g id="text_52">
      <!-- 0.88 -->
      <g transform="translate(543.266667 182.63433)scale(0.1 -0.1)">
       <use xlink:href="#DejaVuSans-30"/>
       <use xlink:href="#DejaVuSans-2e" x="63.623047"/>
       <use xlink:href="#DejaVuSans-38" x="95.410156"/>
       <use xlink:href="#DejaVuSans-38" x="159.033203"/>
      </g>
     </g>
    </g>
    <g id="ytick_18">
     <g id="line2d_67">
      <g>
       <use xlink:href="#me597730ae7" x="536.266667" y="154.063241" style="stroke: #000000; stroke-width: 0.8"/>
      </g>
     </g>
     <g id="text_53">
      <!-- 0.90 -->
      <g transform="translate(543.266667 157.86246)scale(0.1 -0.1)">
       <use xlink:href="#DejaVuSans-30"/>
       <use xlink:href="#DejaVuSans-2e" x="63.623047"/>
       <use xlink:href="#DejaVuSans-39" x="95.410156"/>
       <use xlink:href="#DejaVuSans-30" x="159.033203"/>
      </g>
     </g>
    </g>
    <g id="ytick_19">
     <g id="line2d_68">
      <g>
       <use xlink:href="#me597730ae7" x="536.266667" y="129.291371" style="stroke: #000000; stroke-width: 0.8"/>
      </g>
     </g>
     <g id="text_54">
      <!-- 0.92 -->
      <g transform="translate(543.266667 133.09059)scale(0.1 -0.1)">
       <use xlink:href="#DejaVuSans-30"/>
       <use xlink:href="#DejaVuSans-2e" x="63.623047"/>
       <use xlink:href="#DejaVuSans-39" x="95.410156"/>
       <use xlink:href="#DejaVuSans-32" x="159.033203"/>
      </g>
     </g>
    </g>
    <g id="ytick_20">
     <g id="line2d_69">
      <g>
       <use xlink:href="#me597730ae7" x="536.266667" y="104.519502" style="stroke: #000000; stroke-width: 0.8"/>
      </g>
     </g>
     <g id="text_55">
      <!-- 0.94 -->
      <g transform="translate(543.266667 108.31872)scale(0.1 -0.1)">
       <use xlink:href="#DejaVuSans-30"/>
       <use xlink:href="#DejaVuSans-2e" x="63.623047"/>
       <use xlink:href="#DejaVuSans-39" x="95.410156"/>
       <use xlink:href="#DejaVuSans-34" x="159.033203"/>
      </g>
     </g>
    </g>
    <g id="ytick_21">
     <g id="line2d_70">
      <g>
       <use xlink:href="#me597730ae7" x="536.266667" y="79.747632" style="stroke: #000000; stroke-width: 0.8"/>
      </g>
     </g>
     <g id="text_56">
      <!-- 0.96 -->
      <g transform="translate(543.266667 83.54685)scale(0.1 -0.1)">
       <use xlink:href="#DejaVuSans-30"/>
       <use xlink:href="#DejaVuSans-2e" x="63.623047"/>
       <use xlink:href="#DejaVuSans-39" x="95.410156"/>
       <use xlink:href="#DejaVuSans-36" x="159.033203"/>
      </g>
     </g>
    </g>
    <g id="ytick_22">
     <g id="line2d_71">
      <g>
       <use xlink:href="#me597730ae7" x="536.266667" y="54.975762" style="stroke: #000000; stroke-width: 0.8"/>
      </g>
     </g>
     <g id="text_57">
      <!-- 0.98 -->
      <g transform="translate(543.266667 58.774981)scale(0.1 -0.1)">
       <use xlink:href="#DejaVuSans-30"/>
       <use xlink:href="#DejaVuSans-2e" x="63.623047"/>
       <use xlink:href="#DejaVuSans-39" x="95.410156"/>
       <use xlink:href="#DejaVuSans-38" x="159.033203"/>
      </g>
     </g>
    </g>
    <g id="ytick_23">
     <g id="line2d_72">
      <g>
       <use xlink:href="#me597730ae7" x="536.266667" y="30.203892" style="stroke: #000000; stroke-width: 0.8"/>
      </g>
     </g>
     <g id="text_58">
      <!-- 1.00 -->
      <g transform="translate(543.266667 34.003111)scale(0.1 -0.1)">
       <use xlink:href="#DejaVuSans-31"/>
       <use xlink:href="#DejaVuSans-2e" x="63.623047"/>
       <use xlink:href="#DejaVuSans-30" x="95.410156"/>
       <use xlink:href="#DejaVuSans-30" x="159.033203"/>
      </g>
     </g>
    </g>
    <g id="text_59">
     <!-- Voltage (pu) -->
     <g transform="translate(577.130729 154.848281)rotate(-90)scale(0.1 -0.1)">
      <defs>
       <path id="DejaVuSans-56" d="M 1831 0 
L 50 4666 
L 709 4666 
L 2188 738 
L 3669 4666 
L 4325 4666 
L 2547 0 
L 1831 0 
z
" transform="scale(0.015625)"/>
      </defs>
      <use xlink:href="#DejaVuSans-56"/>
      <use xlink:href="#DejaVuSans-6f" x="60.658203"/>
      <use xlink:href="#DejaVuSans-6c" x="121.839844"/>
      <use xlink:href="#DejaVuSans-74" x="149.623047"/>
      <use xlink:href="#DejaVuSans-61" x="188.832031"/>
      <use xlink:href="#DejaVuSans-67" x="250.111328"/>
      <use xlink:href="#DejaVuSans-65" x="313.587891"/>
      <use xlink:href="#DejaVuSans-20" x="375.111328"/>
      <use xlink:href="#DejaVuSans-28" x="406.898438"/>
      <use xlink:href="#DejaVuSans-70" x="445.912109"/>
      <use xlink:href="#DejaVuSans-75" x="509.388672"/>
      <use xlink:href="#DejaVuSans-29" x="572.767578"/>
     </g>
    </g>
   </g>
   <g id="line2d_73">
    <path d="M 330.339394 30.203892 
L 337.703144 30.203892 
L 339.421352 56.093818 
L 341.139561 78.601439 
L 342.857769 98.168624 
L 344.575978 115.179518 
L 346.294186 129.968079 
L 348.012394 142.824636 
L 349.730603 154.001589 
L 351.448811 163.718366 
L 353.167019 172.165726 
L 354.885228 179.509508 
L 356.603436 185.893885 
L 358.321644 191.444196 
L 360.039853 196.269404 
L 361.758061 200.464239 
L 363.47627 204.111053 
L 365.194478 207.281441 
L 366.912686 210.037644 
L 368.876353 212.749505 
L 370.84002 215.060401 
L 372.803686 217.029617 
L 374.276436 218.312983 
L 374.521895 104.519502 
L 377.958312 98.958464 
L 381.394728 93.813559 
L 384.831145 89.053648 
L 388.267562 84.64992 
L 391.949437 80.296656 
L 395.631312 76.29146 
L 399.313187 72.606502 
L 403.24052 69.000042 
L 407.167854 65.700322 
L 411.095187 62.681252 
L 415.267979 59.754337 
L 419.440771 57.0912 
L 423.859021 54.532534 
L 428.522729 52.0954 
L 433.431896 49.793274 
L 438.341063 47.733241 
L 443.495688 45.80294 
L 449.14123 43.931818 
L 455.03223 42.218206 
L 461.414146 40.602317 
L 468.041522 39.153899 
L 475.159813 37.822116 
L 483.01448 36.581324 
L 491.605522 35.45438 
L 501.178397 34.431576 
L 511.733106 33.533203 
L 523.760564 32.739778 
L 526.460606 32.589448 
L 526.460606 32.589448 
" clip-path="url(#p4e40f50441)" style="fill: none; stroke: #3182bd; stroke-width: 1.3; stroke-linecap: square"/>
   </g>
   <g id="patch_24">
    <path d="M 320.533333 227.718437 
L 320.533333 20.798437 
" style="fill: none; stroke: #000000; stroke-width: 0.8; stroke-linejoin: miter; stroke-linecap: square"/>
   </g>
   <g id="patch_25">
    <path d="M 536.266667 227.718437 
L 536.266667 20.798437 
" style="fill: none; stroke: #000000; stroke-width: 0.8; stroke-linejoin: miter; stroke-linecap: square"/>
   </g>
   <g id="patch_26">
    <path d="M 320.533333 227.718438 
L 536.266667 227.718438 
" style="fill: none; stroke: #000000; stroke-width: 0.8; stroke-linejoin: miter; stroke-linecap: square"/>
   </g>
   <g id="patch_27">
    <path d="M 320.533333 20.798437 
L 536.266667 20.798437 
" style="fill: none; stroke: #000000; stroke-width: 0.8; stroke-linejoin: miter; stroke-linecap: square"/>
   </g>
  </g>
 </g>
 <defs>
  <clipPath id="p051b94178c">
   <rect x="7.2" y="20.798437" width="215.733333" height="206.92"/>
  </clipPath>
  <clipPath id="p4e40f50441">
   <rect x="320.533333" y="20.798437" width="215.733333" height="206.92"/>
  </clipPath>
  <clipPath id="p3fc1f094fa">
   <rect x="633.866667" y="20.798437" width="215.733333" height="206.92"/>
  </clipPath>
 </defs>
</svg>
